G04 #@! TF.GenerationSoftware,KiCad,Pcbnew,(5.1.0)-1*
G04 #@! TF.CreationDate,2019-11-12T11:38:22+01:00*
G04 #@! TF.ProjectId,third_channel_half_bridge,74686972-645f-4636-9861-6e6e656c5f68,rev?*
G04 #@! TF.SameCoordinates,Original*
G04 #@! TF.FileFunction,Copper,L1,Top*
G04 #@! TF.FilePolarity,Positive*
%FSLAX46Y46*%
G04 Gerber Fmt 4.6, Leading zero omitted, Abs format (unit mm)*
G04 Created by KiCad (PCBNEW (5.1.0)-1) date 2019-11-12 11:38:22*
%MOMM*%
%LPD*%
G04 APERTURE LIST*
%ADD10C,0.010000*%
%ADD11C,0.000100*%
%ADD12R,1.981200X0.533400*%
%ADD13C,0.100000*%
%ADD14C,0.975000*%
%ADD15C,0.800000*%
%ADD16C,0.250000*%
%ADD17C,0.500000*%
G04 APERTURE END LIST*
D10*
G36*
X148410000Y-112410000D02*
G01*
X147160000Y-112410000D01*
X147160000Y-111010000D01*
X148410000Y-111010000D01*
X148410000Y-112410000D01*
G37*
X148410000Y-112410000D02*
X147160000Y-112410000D01*
X147160000Y-111010000D01*
X148410000Y-111010000D01*
X148410000Y-112410000D01*
G36*
X148410000Y-105410000D02*
G01*
X147160000Y-105410000D01*
X147160000Y-104010000D01*
X148410000Y-104010000D01*
X148410000Y-105410000D01*
G37*
X148410000Y-105410000D02*
X147160000Y-105410000D01*
X147160000Y-104010000D01*
X148410000Y-104010000D01*
X148410000Y-105410000D01*
D11*
G36*
X145740000Y-105060000D02*
G01*
X144260000Y-105060000D01*
X144260000Y-103120000D01*
X145740000Y-103120000D01*
X145740000Y-105060000D01*
G37*
X145740000Y-105060000D02*
X144260000Y-105060000D01*
X144260000Y-103120000D01*
X145740000Y-103120000D01*
X145740000Y-105060000D01*
G36*
X143240000Y-105062500D02*
G01*
X141760000Y-105062500D01*
X141760000Y-103122500D01*
X143240000Y-103120000D01*
X143240000Y-105062500D01*
G37*
X143240000Y-105062500D02*
X141760000Y-105062500D01*
X141760000Y-103122500D01*
X143240000Y-103120000D01*
X143240000Y-105062500D01*
G36*
X140740000Y-105062500D02*
G01*
X139260000Y-105062500D01*
X139260000Y-103122500D01*
X140740000Y-103120000D01*
X140740000Y-105062500D01*
G37*
X140740000Y-105062500D02*
X139260000Y-105062500D01*
X139260000Y-103122500D01*
X140740000Y-103120000D01*
X140740000Y-105062500D01*
G36*
X138230000Y-105062500D02*
G01*
X136750000Y-105060000D01*
X136750000Y-103122500D01*
X138230000Y-103120000D01*
X138230000Y-105062500D01*
G37*
X138230000Y-105062500D02*
X136750000Y-105060000D01*
X136750000Y-103122500D01*
X138230000Y-103120000D01*
X138230000Y-105062500D01*
G36*
X135740000Y-105132500D02*
G01*
X134250000Y-105132500D01*
X134250000Y-103125000D01*
X135740000Y-103120000D01*
X135740000Y-105132500D01*
G37*
X135740000Y-105132500D02*
X134250000Y-105132500D01*
X134250000Y-103125000D01*
X135740000Y-103120000D01*
X135740000Y-105132500D01*
G36*
X133240000Y-105132500D02*
G01*
X131750000Y-105132500D01*
X131750000Y-103120000D01*
X133240000Y-103120000D01*
X133240000Y-105132500D01*
G37*
X133240000Y-105132500D02*
X131750000Y-105132500D01*
X131750000Y-103120000D01*
X133240000Y-103120000D01*
X133240000Y-105132500D01*
D12*
X136062400Y-111840000D03*
X136062400Y-110570000D03*
X136062400Y-109300000D03*
X136062400Y-108030000D03*
X140990000Y-108030000D03*
X140990000Y-109300000D03*
X140990000Y-110570000D03*
X140990000Y-111840000D03*
D13*
G36*
X133090142Y-106108674D02*
G01*
X133113803Y-106112184D01*
X133137007Y-106117996D01*
X133159529Y-106126054D01*
X133181153Y-106136282D01*
X133201670Y-106148579D01*
X133220883Y-106162829D01*
X133238607Y-106178893D01*
X133254671Y-106196617D01*
X133268921Y-106215830D01*
X133281218Y-106236347D01*
X133291446Y-106257971D01*
X133299504Y-106280493D01*
X133305316Y-106303697D01*
X133308826Y-106327358D01*
X133310000Y-106351250D01*
X133310000Y-106838750D01*
X133308826Y-106862642D01*
X133305316Y-106886303D01*
X133299504Y-106909507D01*
X133291446Y-106932029D01*
X133281218Y-106953653D01*
X133268921Y-106974170D01*
X133254671Y-106993383D01*
X133238607Y-107011107D01*
X133220883Y-107027171D01*
X133201670Y-107041421D01*
X133181153Y-107053718D01*
X133159529Y-107063946D01*
X133137007Y-107072004D01*
X133113803Y-107077816D01*
X133090142Y-107081326D01*
X133066250Y-107082500D01*
X132153750Y-107082500D01*
X132129858Y-107081326D01*
X132106197Y-107077816D01*
X132082993Y-107072004D01*
X132060471Y-107063946D01*
X132038847Y-107053718D01*
X132018330Y-107041421D01*
X131999117Y-107027171D01*
X131981393Y-107011107D01*
X131965329Y-106993383D01*
X131951079Y-106974170D01*
X131938782Y-106953653D01*
X131928554Y-106932029D01*
X131920496Y-106909507D01*
X131914684Y-106886303D01*
X131911174Y-106862642D01*
X131910000Y-106838750D01*
X131910000Y-106351250D01*
X131911174Y-106327358D01*
X131914684Y-106303697D01*
X131920496Y-106280493D01*
X131928554Y-106257971D01*
X131938782Y-106236347D01*
X131951079Y-106215830D01*
X131965329Y-106196617D01*
X131981393Y-106178893D01*
X131999117Y-106162829D01*
X132018330Y-106148579D01*
X132038847Y-106136282D01*
X132060471Y-106126054D01*
X132082993Y-106117996D01*
X132106197Y-106112184D01*
X132129858Y-106108674D01*
X132153750Y-106107500D01*
X133066250Y-106107500D01*
X133090142Y-106108674D01*
X133090142Y-106108674D01*
G37*
D14*
X132610000Y-106595000D03*
D13*
G36*
X133090142Y-107983674D02*
G01*
X133113803Y-107987184D01*
X133137007Y-107992996D01*
X133159529Y-108001054D01*
X133181153Y-108011282D01*
X133201670Y-108023579D01*
X133220883Y-108037829D01*
X133238607Y-108053893D01*
X133254671Y-108071617D01*
X133268921Y-108090830D01*
X133281218Y-108111347D01*
X133291446Y-108132971D01*
X133299504Y-108155493D01*
X133305316Y-108178697D01*
X133308826Y-108202358D01*
X133310000Y-108226250D01*
X133310000Y-108713750D01*
X133308826Y-108737642D01*
X133305316Y-108761303D01*
X133299504Y-108784507D01*
X133291446Y-108807029D01*
X133281218Y-108828653D01*
X133268921Y-108849170D01*
X133254671Y-108868383D01*
X133238607Y-108886107D01*
X133220883Y-108902171D01*
X133201670Y-108916421D01*
X133181153Y-108928718D01*
X133159529Y-108938946D01*
X133137007Y-108947004D01*
X133113803Y-108952816D01*
X133090142Y-108956326D01*
X133066250Y-108957500D01*
X132153750Y-108957500D01*
X132129858Y-108956326D01*
X132106197Y-108952816D01*
X132082993Y-108947004D01*
X132060471Y-108938946D01*
X132038847Y-108928718D01*
X132018330Y-108916421D01*
X131999117Y-108902171D01*
X131981393Y-108886107D01*
X131965329Y-108868383D01*
X131951079Y-108849170D01*
X131938782Y-108828653D01*
X131928554Y-108807029D01*
X131920496Y-108784507D01*
X131914684Y-108761303D01*
X131911174Y-108737642D01*
X131910000Y-108713750D01*
X131910000Y-108226250D01*
X131911174Y-108202358D01*
X131914684Y-108178697D01*
X131920496Y-108155493D01*
X131928554Y-108132971D01*
X131938782Y-108111347D01*
X131951079Y-108090830D01*
X131965329Y-108071617D01*
X131981393Y-108053893D01*
X131999117Y-108037829D01*
X132018330Y-108023579D01*
X132038847Y-108011282D01*
X132060471Y-108001054D01*
X132082993Y-107992996D01*
X132106197Y-107987184D01*
X132129858Y-107983674D01*
X132153750Y-107982500D01*
X133066250Y-107982500D01*
X133090142Y-107983674D01*
X133090142Y-107983674D01*
G37*
D14*
X132610000Y-108470000D03*
D13*
G36*
X133090142Y-109683674D02*
G01*
X133113803Y-109687184D01*
X133137007Y-109692996D01*
X133159529Y-109701054D01*
X133181153Y-109711282D01*
X133201670Y-109723579D01*
X133220883Y-109737829D01*
X133238607Y-109753893D01*
X133254671Y-109771617D01*
X133268921Y-109790830D01*
X133281218Y-109811347D01*
X133291446Y-109832971D01*
X133299504Y-109855493D01*
X133305316Y-109878697D01*
X133308826Y-109902358D01*
X133310000Y-109926250D01*
X133310000Y-110413750D01*
X133308826Y-110437642D01*
X133305316Y-110461303D01*
X133299504Y-110484507D01*
X133291446Y-110507029D01*
X133281218Y-110528653D01*
X133268921Y-110549170D01*
X133254671Y-110568383D01*
X133238607Y-110586107D01*
X133220883Y-110602171D01*
X133201670Y-110616421D01*
X133181153Y-110628718D01*
X133159529Y-110638946D01*
X133137007Y-110647004D01*
X133113803Y-110652816D01*
X133090142Y-110656326D01*
X133066250Y-110657500D01*
X132153750Y-110657500D01*
X132129858Y-110656326D01*
X132106197Y-110652816D01*
X132082993Y-110647004D01*
X132060471Y-110638946D01*
X132038847Y-110628718D01*
X132018330Y-110616421D01*
X131999117Y-110602171D01*
X131981393Y-110586107D01*
X131965329Y-110568383D01*
X131951079Y-110549170D01*
X131938782Y-110528653D01*
X131928554Y-110507029D01*
X131920496Y-110484507D01*
X131914684Y-110461303D01*
X131911174Y-110437642D01*
X131910000Y-110413750D01*
X131910000Y-109926250D01*
X131911174Y-109902358D01*
X131914684Y-109878697D01*
X131920496Y-109855493D01*
X131928554Y-109832971D01*
X131938782Y-109811347D01*
X131951079Y-109790830D01*
X131965329Y-109771617D01*
X131981393Y-109753893D01*
X131999117Y-109737829D01*
X132018330Y-109723579D01*
X132038847Y-109711282D01*
X132060471Y-109701054D01*
X132082993Y-109692996D01*
X132106197Y-109687184D01*
X132129858Y-109683674D01*
X132153750Y-109682500D01*
X133066250Y-109682500D01*
X133090142Y-109683674D01*
X133090142Y-109683674D01*
G37*
D14*
X132610000Y-110170000D03*
D13*
G36*
X133090142Y-111558674D02*
G01*
X133113803Y-111562184D01*
X133137007Y-111567996D01*
X133159529Y-111576054D01*
X133181153Y-111586282D01*
X133201670Y-111598579D01*
X133220883Y-111612829D01*
X133238607Y-111628893D01*
X133254671Y-111646617D01*
X133268921Y-111665830D01*
X133281218Y-111686347D01*
X133291446Y-111707971D01*
X133299504Y-111730493D01*
X133305316Y-111753697D01*
X133308826Y-111777358D01*
X133310000Y-111801250D01*
X133310000Y-112288750D01*
X133308826Y-112312642D01*
X133305316Y-112336303D01*
X133299504Y-112359507D01*
X133291446Y-112382029D01*
X133281218Y-112403653D01*
X133268921Y-112424170D01*
X133254671Y-112443383D01*
X133238607Y-112461107D01*
X133220883Y-112477171D01*
X133201670Y-112491421D01*
X133181153Y-112503718D01*
X133159529Y-112513946D01*
X133137007Y-112522004D01*
X133113803Y-112527816D01*
X133090142Y-112531326D01*
X133066250Y-112532500D01*
X132153750Y-112532500D01*
X132129858Y-112531326D01*
X132106197Y-112527816D01*
X132082993Y-112522004D01*
X132060471Y-112513946D01*
X132038847Y-112503718D01*
X132018330Y-112491421D01*
X131999117Y-112477171D01*
X131981393Y-112461107D01*
X131965329Y-112443383D01*
X131951079Y-112424170D01*
X131938782Y-112403653D01*
X131928554Y-112382029D01*
X131920496Y-112359507D01*
X131914684Y-112336303D01*
X131911174Y-112312642D01*
X131910000Y-112288750D01*
X131910000Y-111801250D01*
X131911174Y-111777358D01*
X131914684Y-111753697D01*
X131920496Y-111730493D01*
X131928554Y-111707971D01*
X131938782Y-111686347D01*
X131951079Y-111665830D01*
X131965329Y-111646617D01*
X131981393Y-111628893D01*
X131999117Y-111612829D01*
X132018330Y-111598579D01*
X132038847Y-111586282D01*
X132060471Y-111576054D01*
X132082993Y-111567996D01*
X132106197Y-111562184D01*
X132129858Y-111558674D01*
X132153750Y-111557500D01*
X133066250Y-111557500D01*
X133090142Y-111558674D01*
X133090142Y-111558674D01*
G37*
D14*
X132610000Y-112045000D03*
D15*
X140000000Y-104500000D03*
X142500000Y-104500000D03*
X137520000Y-112300000D03*
X132500000Y-104500000D03*
X135000000Y-104500000D03*
X143630000Y-108740000D03*
X145260000Y-109710000D03*
X138090000Y-109750000D03*
X143780000Y-111420000D03*
X145260000Y-107710000D03*
X145260000Y-108710000D03*
X138600000Y-112300000D03*
X137500000Y-104500000D03*
X138560000Y-106150000D03*
X145260000Y-106710000D03*
X139100000Y-107650000D03*
X145000000Y-104500000D03*
D16*
X136732400Y-112510000D02*
X136062400Y-111840000D01*
X137490000Y-112510000D02*
X136732400Y-112510000D01*
X136062400Y-110570000D02*
X136786300Y-110570000D01*
X133903037Y-111488763D02*
X134821800Y-110570000D01*
X133166237Y-111488763D02*
X133903037Y-111488763D01*
X132610000Y-112045000D02*
X133166237Y-111488763D01*
X134821800Y-110570000D02*
X136062400Y-110570000D01*
X131450000Y-105550000D02*
X132500000Y-104500000D01*
X131450000Y-111685000D02*
X131450000Y-105550000D01*
X132610000Y-112045000D02*
X131810000Y-112045000D01*
X131810000Y-112045000D02*
X131450000Y-111685000D01*
X132610000Y-110170000D02*
X132610000Y-108470000D01*
X132610000Y-108470000D02*
X134100000Y-108470000D01*
X134540000Y-108030000D02*
X136062400Y-108030000D01*
X134100000Y-108470000D02*
X134540000Y-108030000D01*
D17*
X145260000Y-109710000D02*
X151000000Y-109710000D01*
D16*
X140990000Y-108030000D02*
X141530000Y-108030000D01*
X140990000Y-108030000D02*
X141310000Y-108030000D01*
X142920000Y-108030000D02*
X140990000Y-108030000D01*
X143630000Y-108740000D02*
X142920000Y-108030000D01*
X132610000Y-106595000D02*
X132610000Y-106007500D01*
X134600001Y-104899999D02*
X134600001Y-104909999D01*
X135000000Y-104500000D02*
X134600001Y-104899999D01*
X134600001Y-104909999D02*
X133880000Y-105630000D01*
X132987500Y-105630000D02*
X132610000Y-106007500D01*
X133880000Y-105630000D02*
X132987500Y-105630000D01*
X141713900Y-109300000D02*
X140990000Y-109300000D01*
X138540000Y-109300000D02*
X138090000Y-109750000D01*
X140990000Y-109300000D02*
X138540000Y-109300000D01*
D17*
X145260000Y-108710000D02*
X151000000Y-108710000D01*
X145260000Y-107710000D02*
X151000000Y-107710000D01*
D16*
X141065000Y-110495000D02*
X140990000Y-110570000D01*
X140990000Y-110570000D02*
X142840000Y-110570000D01*
X142230600Y-110570000D02*
X140990000Y-110570000D01*
X143120000Y-110570000D02*
X142230600Y-110570000D01*
X143495685Y-110570000D02*
X142840000Y-110570000D01*
X143780000Y-111420000D02*
X143780000Y-110854315D01*
X145260000Y-107710000D02*
X145260000Y-108710000D01*
X145260000Y-108710000D02*
X145110000Y-108710000D01*
X143780000Y-110854315D02*
X143495685Y-110570000D01*
X143495685Y-110324315D02*
X143495685Y-110570000D01*
X145110000Y-108710000D02*
X143495685Y-110324315D01*
X140530000Y-112300000D02*
X140990000Y-111840000D01*
X138600000Y-112300000D02*
X140530000Y-112300000D01*
D17*
X145260000Y-106710000D02*
X151000000Y-106710000D01*
D16*
X139120000Y-106710000D02*
X138560000Y-106150000D01*
X145260000Y-106710000D02*
X139400000Y-106710000D01*
X139400000Y-106710000D02*
X139120000Y-106710000D01*
X139120000Y-106710000D02*
X139100000Y-106730000D01*
X139100000Y-106730000D02*
X139100000Y-107650000D01*
X136786300Y-109300000D02*
X136062400Y-109300000D01*
X138075001Y-105424999D02*
X139075001Y-105424999D01*
X137190000Y-109300000D02*
X137378001Y-109111999D01*
X136062400Y-109300000D02*
X137190000Y-109300000D01*
X137378001Y-109111999D02*
X137378001Y-109011999D01*
X137378001Y-109011999D02*
X137660000Y-108730000D01*
X137660000Y-108730000D02*
X137660000Y-105840000D01*
X137660000Y-105840000D02*
X138075001Y-105424999D01*
X139075001Y-105424999D02*
X141575001Y-105424999D01*
X144075001Y-105424999D02*
X145000000Y-104500000D01*
X141575001Y-105424999D02*
X144075001Y-105424999D01*
M02*
