G04 #@! TF.GenerationSoftware,KiCad,Pcbnew,(5.1.0)-1*
G04 #@! TF.CreationDate,2019-11-12T11:38:22+01:00*
G04 #@! TF.ProjectId,third_channel_half_bridge,74686972-645f-4636-9861-6e6e656c5f68,rev?*
G04 #@! TF.SameCoordinates,Original*
G04 #@! TF.FileFunction,Soldermask,Top*
G04 #@! TF.FilePolarity,Negative*
%FSLAX46Y46*%
G04 Gerber Fmt 4.6, Leading zero omitted, Abs format (unit mm)*
G04 Created by KiCad (PCBNEW (5.1.0)-1) date 2019-11-12 11:38:22*
%MOMM*%
%LPD*%
G04 APERTURE LIST*
%ADD10C,0.010000*%
%ADD11C,0.500000*%
%ADD12C,0.000100*%
%ADD13C,0.100000*%
G04 APERTURE END LIST*
D10*
G36*
X148410000Y-112410000D02*
G01*
X147160000Y-112410000D01*
X147160000Y-111010000D01*
X148410000Y-111010000D01*
X148410000Y-112410000D01*
G37*
X148410000Y-112410000D02*
X147160000Y-112410000D01*
X147160000Y-111010000D01*
X148410000Y-111010000D01*
X148410000Y-112410000D01*
G36*
X148410000Y-105410000D02*
G01*
X147160000Y-105410000D01*
X147160000Y-104010000D01*
X148410000Y-104010000D01*
X148410000Y-105410000D01*
G37*
X148410000Y-105410000D02*
X147160000Y-105410000D01*
X147160000Y-104010000D01*
X148410000Y-104010000D01*
X148410000Y-105410000D01*
D11*
X145260000Y-109710000D02*
X151000000Y-109710000D01*
X145260000Y-108710000D02*
X151000000Y-108710000D01*
X145260000Y-107710000D02*
X151000000Y-107710000D01*
X145260000Y-106710000D02*
X151000000Y-106710000D01*
D12*
G36*
X145740000Y-105060000D02*
G01*
X144260000Y-105060000D01*
X144260000Y-103120000D01*
X145740000Y-103120000D01*
X145740000Y-105060000D01*
G37*
X145740000Y-105060000D02*
X144260000Y-105060000D01*
X144260000Y-103120000D01*
X145740000Y-103120000D01*
X145740000Y-105060000D01*
G36*
X143240000Y-105062500D02*
G01*
X141760000Y-105062500D01*
X141760000Y-103122500D01*
X143240000Y-103120000D01*
X143240000Y-105062500D01*
G37*
X143240000Y-105062500D02*
X141760000Y-105062500D01*
X141760000Y-103122500D01*
X143240000Y-103120000D01*
X143240000Y-105062500D01*
G36*
X140740000Y-105062500D02*
G01*
X139260000Y-105062500D01*
X139260000Y-103122500D01*
X140740000Y-103120000D01*
X140740000Y-105062500D01*
G37*
X140740000Y-105062500D02*
X139260000Y-105062500D01*
X139260000Y-103122500D01*
X140740000Y-103120000D01*
X140740000Y-105062500D01*
G36*
X138230000Y-105062500D02*
G01*
X136750000Y-105060000D01*
X136750000Y-103122500D01*
X138230000Y-103120000D01*
X138230000Y-105062500D01*
G37*
X138230000Y-105062500D02*
X136750000Y-105060000D01*
X136750000Y-103122500D01*
X138230000Y-103120000D01*
X138230000Y-105062500D01*
G36*
X135740000Y-105132500D02*
G01*
X134250000Y-105132500D01*
X134250000Y-103125000D01*
X135740000Y-103120000D01*
X135740000Y-105132500D01*
G37*
X135740000Y-105132500D02*
X134250000Y-105132500D01*
X134250000Y-103125000D01*
X135740000Y-103120000D01*
X135740000Y-105132500D01*
G36*
X133240000Y-105132500D02*
G01*
X131750000Y-105132500D01*
X131750000Y-103120000D01*
X133240000Y-103120000D01*
X133240000Y-105132500D01*
G37*
X133240000Y-105132500D02*
X131750000Y-105132500D01*
X131750000Y-103120000D01*
X133240000Y-103120000D01*
X133240000Y-105132500D01*
D13*
G36*
X133194468Y-111511065D02*
G01*
X133233138Y-111522796D01*
X133268777Y-111541846D01*
X133300017Y-111567483D01*
X133325654Y-111598723D01*
X133344704Y-111634362D01*
X133356435Y-111673032D01*
X133361000Y-111719388D01*
X133361000Y-112370612D01*
X133356435Y-112416968D01*
X133344704Y-112455638D01*
X133325654Y-112491277D01*
X133300017Y-112522517D01*
X133268777Y-112548154D01*
X133233138Y-112567204D01*
X133194468Y-112578935D01*
X133148112Y-112583500D01*
X132071888Y-112583500D01*
X132025532Y-112578935D01*
X131986862Y-112567204D01*
X131951223Y-112548154D01*
X131919983Y-112522517D01*
X131894346Y-112491277D01*
X131875296Y-112455638D01*
X131863565Y-112416968D01*
X131859000Y-112370612D01*
X131859000Y-111719388D01*
X131863565Y-111673032D01*
X131875296Y-111634362D01*
X131894346Y-111598723D01*
X131919983Y-111567483D01*
X131951223Y-111541846D01*
X131986862Y-111522796D01*
X132025532Y-111511065D01*
X132071888Y-111506500D01*
X133148112Y-111506500D01*
X133194468Y-111511065D01*
X133194468Y-111511065D01*
G37*
G36*
X137104000Y-112157700D02*
G01*
X135020800Y-112157700D01*
X135020800Y-111522300D01*
X137104000Y-111522300D01*
X137104000Y-112157700D01*
X137104000Y-112157700D01*
G37*
G36*
X142031600Y-112157700D02*
G01*
X139948400Y-112157700D01*
X139948400Y-111522300D01*
X142031600Y-111522300D01*
X142031600Y-112157700D01*
X142031600Y-112157700D01*
G37*
G36*
X137104000Y-110887700D02*
G01*
X135020800Y-110887700D01*
X135020800Y-110252300D01*
X137104000Y-110252300D01*
X137104000Y-110887700D01*
X137104000Y-110887700D01*
G37*
G36*
X142031600Y-110887700D02*
G01*
X139948400Y-110887700D01*
X139948400Y-110252300D01*
X142031600Y-110252300D01*
X142031600Y-110887700D01*
X142031600Y-110887700D01*
G37*
G36*
X133194468Y-109636065D02*
G01*
X133233138Y-109647796D01*
X133268777Y-109666846D01*
X133300017Y-109692483D01*
X133325654Y-109723723D01*
X133344704Y-109759362D01*
X133356435Y-109798032D01*
X133361000Y-109844388D01*
X133361000Y-110495612D01*
X133356435Y-110541968D01*
X133344704Y-110580638D01*
X133325654Y-110616277D01*
X133300017Y-110647517D01*
X133268777Y-110673154D01*
X133233138Y-110692204D01*
X133194468Y-110703935D01*
X133148112Y-110708500D01*
X132071888Y-110708500D01*
X132025532Y-110703935D01*
X131986862Y-110692204D01*
X131951223Y-110673154D01*
X131919983Y-110647517D01*
X131894346Y-110616277D01*
X131875296Y-110580638D01*
X131863565Y-110541968D01*
X131859000Y-110495612D01*
X131859000Y-109844388D01*
X131863565Y-109798032D01*
X131875296Y-109759362D01*
X131894346Y-109723723D01*
X131919983Y-109692483D01*
X131951223Y-109666846D01*
X131986862Y-109647796D01*
X132025532Y-109636065D01*
X132071888Y-109631500D01*
X133148112Y-109631500D01*
X133194468Y-109636065D01*
X133194468Y-109636065D01*
G37*
G36*
X137104000Y-109617700D02*
G01*
X135020800Y-109617700D01*
X135020800Y-108982300D01*
X137104000Y-108982300D01*
X137104000Y-109617700D01*
X137104000Y-109617700D01*
G37*
G36*
X142031600Y-109617700D02*
G01*
X139948400Y-109617700D01*
X139948400Y-108982300D01*
X142031600Y-108982300D01*
X142031600Y-109617700D01*
X142031600Y-109617700D01*
G37*
G36*
X133194468Y-107936065D02*
G01*
X133233138Y-107947796D01*
X133268777Y-107966846D01*
X133300017Y-107992483D01*
X133325654Y-108023723D01*
X133344704Y-108059362D01*
X133356435Y-108098032D01*
X133361000Y-108144388D01*
X133361000Y-108795612D01*
X133356435Y-108841968D01*
X133344704Y-108880638D01*
X133325654Y-108916277D01*
X133300017Y-108947517D01*
X133268777Y-108973154D01*
X133233138Y-108992204D01*
X133194468Y-109003935D01*
X133148112Y-109008500D01*
X132071888Y-109008500D01*
X132025532Y-109003935D01*
X131986862Y-108992204D01*
X131951223Y-108973154D01*
X131919983Y-108947517D01*
X131894346Y-108916277D01*
X131875296Y-108880638D01*
X131863565Y-108841968D01*
X131859000Y-108795612D01*
X131859000Y-108144388D01*
X131863565Y-108098032D01*
X131875296Y-108059362D01*
X131894346Y-108023723D01*
X131919983Y-107992483D01*
X131951223Y-107966846D01*
X131986862Y-107947796D01*
X132025532Y-107936065D01*
X132071888Y-107931500D01*
X133148112Y-107931500D01*
X133194468Y-107936065D01*
X133194468Y-107936065D01*
G37*
G36*
X137104000Y-108347700D02*
G01*
X135020800Y-108347700D01*
X135020800Y-107712300D01*
X137104000Y-107712300D01*
X137104000Y-108347700D01*
X137104000Y-108347700D01*
G37*
G36*
X142031600Y-108347700D02*
G01*
X139948400Y-108347700D01*
X139948400Y-107712300D01*
X142031600Y-107712300D01*
X142031600Y-108347700D01*
X142031600Y-108347700D01*
G37*
G36*
X133194468Y-106061065D02*
G01*
X133233138Y-106072796D01*
X133268777Y-106091846D01*
X133300017Y-106117483D01*
X133325654Y-106148723D01*
X133344704Y-106184362D01*
X133356435Y-106223032D01*
X133361000Y-106269388D01*
X133361000Y-106920612D01*
X133356435Y-106966968D01*
X133344704Y-107005638D01*
X133325654Y-107041277D01*
X133300017Y-107072517D01*
X133268777Y-107098154D01*
X133233138Y-107117204D01*
X133194468Y-107128935D01*
X133148112Y-107133500D01*
X132071888Y-107133500D01*
X132025532Y-107128935D01*
X131986862Y-107117204D01*
X131951223Y-107098154D01*
X131919983Y-107072517D01*
X131894346Y-107041277D01*
X131875296Y-107005638D01*
X131863565Y-106966968D01*
X131859000Y-106920612D01*
X131859000Y-106269388D01*
X131863565Y-106223032D01*
X131875296Y-106184362D01*
X131894346Y-106148723D01*
X131919983Y-106117483D01*
X131951223Y-106091846D01*
X131986862Y-106072796D01*
X132025532Y-106061065D01*
X132071888Y-106056500D01*
X133148112Y-106056500D01*
X133194468Y-106061065D01*
X133194468Y-106061065D01*
G37*
M02*
