M48
; DRILL file {KiCad (5.1.0)-1} date 19.11.2020 10:18:43
; FORMAT={-:-/ absolute / metric / decimal}
; #@! TF.CreationDate,2020-11-19T10:18:43+01:00
; #@! TF.GenerationSoftware,Kicad,Pcbnew,(5.1.0)-1
; #@! TF.FileFunction,Plated,1,2,PTH
FMAT,2
METRIC
T1C0.300
T2C1.000
%
G90
G05
T1
X161.29Y-73.6
X161.544Y-68.834
X162.0Y-71.7
X162.0Y-75.438
X162.306Y-85.09
X163.0Y-76.5
X163.068Y-68.834
X163.2Y-71.628
X163.59Y-85.09
X164.4Y-85.09
X166.3Y-74.422
X167.64Y-76.2
X167.64Y-77.216
X168.65Y-81.28
X168.656Y-83.566
X169.3Y-78.232
X169.418Y-75.438
T2
X162.052Y-64.516
X162.052Y-67.056
X164.592Y-64.516
X164.592Y-67.056
X167.132Y-64.516
X167.132Y-67.056
T0
M30
