G04 #@! TF.GenerationSoftware,KiCad,Pcbnew,(5.1.0)-1*
G04 #@! TF.CreationDate,2020-01-16T15:44:38+01:00*
G04 #@! TF.ProjectId,first_channel_half_bridge,66697273-745f-4636-9861-6e6e656c5f68,rev?*
G04 #@! TF.SameCoordinates,Original*
G04 #@! TF.FileFunction,Soldermask,Bot*
G04 #@! TF.FilePolarity,Negative*
%FSLAX46Y46*%
G04 Gerber Fmt 4.6, Leading zero omitted, Abs format (unit mm)*
G04 Created by KiCad (PCBNEW (5.1.0)-1) date 2020-01-16 15:44:38*
%MOMM*%
%LPD*%
G04 APERTURE LIST*
%ADD10C,0.500000*%
%ADD11C,0.010000*%
%ADD12C,0.000100*%
%ADD13C,0.100000*%
G04 APERTURE END LIST*
D10*
X145260000Y-109710000D02*
X151000000Y-109710000D01*
X145260000Y-108710000D02*
X151000000Y-108710000D01*
X145260000Y-107710000D02*
X151000000Y-107710000D01*
X145260000Y-106710000D02*
X151000000Y-106710000D01*
D11*
G36*
X149910000Y-112410000D02*
G01*
X148660000Y-112410000D01*
X148660000Y-111010000D01*
X149910000Y-111010000D01*
X149910000Y-112410000D01*
G37*
X149910000Y-112410000D02*
X148660000Y-112410000D01*
X148660000Y-111010000D01*
X149910000Y-111010000D01*
X149910000Y-112410000D01*
D12*
G36*
X145740000Y-105060000D02*
G01*
X144260000Y-105057500D01*
X144260000Y-103117500D01*
X145740000Y-103117500D01*
X145740000Y-105060000D01*
G37*
X145740000Y-105060000D02*
X144260000Y-105057500D01*
X144260000Y-103117500D01*
X145740000Y-103117500D01*
X145740000Y-105060000D01*
G36*
X143240000Y-105062500D02*
G01*
X141760000Y-105060000D01*
X141760000Y-103120000D01*
X143240000Y-103120000D01*
X143240000Y-105062500D01*
G37*
X143240000Y-105062500D02*
X141760000Y-105060000D01*
X141760000Y-103120000D01*
X143240000Y-103120000D01*
X143240000Y-105062500D01*
G36*
X140740000Y-105062500D02*
G01*
X139260000Y-105060000D01*
X139260000Y-103120000D01*
X140740000Y-103120000D01*
X140740000Y-105062500D01*
G37*
X140740000Y-105062500D02*
X139260000Y-105060000D01*
X139260000Y-103120000D01*
X140740000Y-103120000D01*
X140740000Y-105062500D01*
G36*
X138230000Y-105062500D02*
G01*
X136750000Y-105060000D01*
X136750000Y-103120000D01*
X138230000Y-103120000D01*
X138230000Y-105062500D01*
G37*
X138230000Y-105062500D02*
X136750000Y-105060000D01*
X136750000Y-103120000D01*
X138230000Y-103120000D01*
X138230000Y-105062500D01*
G36*
X135740000Y-105132500D02*
G01*
X134250000Y-105127500D01*
X134250000Y-103120000D01*
X135740000Y-103120000D01*
X135740000Y-105132500D01*
G37*
X135740000Y-105132500D02*
X134250000Y-105127500D01*
X134250000Y-103120000D01*
X135740000Y-103120000D01*
X135740000Y-105132500D01*
G36*
X133240000Y-105132500D02*
G01*
X131750000Y-105127500D01*
X131750000Y-103120000D01*
X133240000Y-103120000D01*
X133240000Y-105132500D01*
G37*
X133240000Y-105132500D02*
X131750000Y-105127500D01*
X131750000Y-103120000D01*
X133240000Y-103120000D01*
X133240000Y-105132500D01*
D11*
G36*
X149910000Y-105410000D02*
G01*
X148660000Y-105410000D01*
X148660000Y-104010000D01*
X149910000Y-104010000D01*
X149910000Y-105410000D01*
G37*
X149910000Y-105410000D02*
X148660000Y-105410000D01*
X148660000Y-104010000D01*
X149910000Y-104010000D01*
X149910000Y-105410000D01*
D13*
G36*
X136591000Y-112971000D02*
G01*
X134489000Y-112971000D01*
X134489000Y-111269000D01*
X136591000Y-111269000D01*
X136591000Y-112971000D01*
X136591000Y-112971000D01*
G37*
G36*
X141701000Y-112971000D02*
G01*
X139599000Y-112971000D01*
X139599000Y-111269000D01*
X141701000Y-111269000D01*
X141701000Y-112971000D01*
X141701000Y-112971000D01*
G37*
G36*
X137491000Y-110221000D02*
G01*
X136089000Y-110221000D01*
X136089000Y-108219000D01*
X137491000Y-108219000D01*
X137491000Y-110221000D01*
X137491000Y-110221000D01*
G37*
G36*
X142601000Y-110221000D02*
G01*
X141199000Y-110221000D01*
X141199000Y-108219000D01*
X142601000Y-108219000D01*
X142601000Y-110221000D01*
X142601000Y-110221000D01*
G37*
G36*
X140101000Y-110221000D02*
G01*
X138699000Y-110221000D01*
X138699000Y-108219000D01*
X140101000Y-108219000D01*
X140101000Y-110221000D01*
X140101000Y-110221000D01*
G37*
G36*
X134991000Y-110221000D02*
G01*
X133589000Y-110221000D01*
X133589000Y-108219000D01*
X134991000Y-108219000D01*
X134991000Y-110221000D01*
X134991000Y-110221000D01*
G37*
G36*
X134736968Y-106153565D02*
G01*
X134775638Y-106165296D01*
X134811277Y-106184346D01*
X134842517Y-106209983D01*
X134868154Y-106241223D01*
X134887204Y-106276862D01*
X134898935Y-106315532D01*
X134903500Y-106361888D01*
X134903500Y-107438112D01*
X134898935Y-107484468D01*
X134887204Y-107523138D01*
X134868154Y-107558777D01*
X134842517Y-107590017D01*
X134811277Y-107615654D01*
X134775638Y-107634704D01*
X134736968Y-107646435D01*
X134690612Y-107651000D01*
X134039388Y-107651000D01*
X133993032Y-107646435D01*
X133954362Y-107634704D01*
X133918723Y-107615654D01*
X133887483Y-107590017D01*
X133861846Y-107558777D01*
X133842796Y-107523138D01*
X133831065Y-107484468D01*
X133826500Y-107438112D01*
X133826500Y-106361888D01*
X133831065Y-106315532D01*
X133842796Y-106276862D01*
X133861846Y-106241223D01*
X133887483Y-106209983D01*
X133918723Y-106184346D01*
X133954362Y-106165296D01*
X133993032Y-106153565D01*
X134039388Y-106149000D01*
X134690612Y-106149000D01*
X134736968Y-106153565D01*
X134736968Y-106153565D01*
G37*
G36*
X136611968Y-106153565D02*
G01*
X136650638Y-106165296D01*
X136686277Y-106184346D01*
X136717517Y-106209983D01*
X136743154Y-106241223D01*
X136762204Y-106276862D01*
X136773935Y-106315532D01*
X136778500Y-106361888D01*
X136778500Y-107438112D01*
X136773935Y-107484468D01*
X136762204Y-107523138D01*
X136743154Y-107558777D01*
X136717517Y-107590017D01*
X136686277Y-107615654D01*
X136650638Y-107634704D01*
X136611968Y-107646435D01*
X136565612Y-107651000D01*
X135914388Y-107651000D01*
X135868032Y-107646435D01*
X135829362Y-107634704D01*
X135793723Y-107615654D01*
X135762483Y-107590017D01*
X135736846Y-107558777D01*
X135717796Y-107523138D01*
X135706065Y-107484468D01*
X135701500Y-107438112D01*
X135701500Y-106361888D01*
X135706065Y-106315532D01*
X135717796Y-106276862D01*
X135736846Y-106241223D01*
X135762483Y-106209983D01*
X135793723Y-106184346D01*
X135829362Y-106165296D01*
X135868032Y-106153565D01*
X135914388Y-106149000D01*
X136565612Y-106149000D01*
X136611968Y-106153565D01*
X136611968Y-106153565D01*
G37*
G36*
X141101968Y-105783565D02*
G01*
X141140638Y-105795296D01*
X141176277Y-105814346D01*
X141207517Y-105839983D01*
X141233154Y-105871223D01*
X141252204Y-105906862D01*
X141263935Y-105945532D01*
X141268500Y-105991888D01*
X141268500Y-107068112D01*
X141263935Y-107114468D01*
X141252204Y-107153138D01*
X141233154Y-107188777D01*
X141207517Y-107220017D01*
X141176277Y-107245654D01*
X141140638Y-107264704D01*
X141101968Y-107276435D01*
X141055612Y-107281000D01*
X140404388Y-107281000D01*
X140358032Y-107276435D01*
X140319362Y-107264704D01*
X140283723Y-107245654D01*
X140252483Y-107220017D01*
X140226846Y-107188777D01*
X140207796Y-107153138D01*
X140196065Y-107114468D01*
X140191500Y-107068112D01*
X140191500Y-105991888D01*
X140196065Y-105945532D01*
X140207796Y-105906862D01*
X140226846Y-105871223D01*
X140252483Y-105839983D01*
X140283723Y-105814346D01*
X140319362Y-105795296D01*
X140358032Y-105783565D01*
X140404388Y-105779000D01*
X141055612Y-105779000D01*
X141101968Y-105783565D01*
X141101968Y-105783565D01*
G37*
G36*
X142976968Y-105783565D02*
G01*
X143015638Y-105795296D01*
X143051277Y-105814346D01*
X143082517Y-105839983D01*
X143108154Y-105871223D01*
X143127204Y-105906862D01*
X143138935Y-105945532D01*
X143143500Y-105991888D01*
X143143500Y-107068112D01*
X143138935Y-107114468D01*
X143127204Y-107153138D01*
X143108154Y-107188777D01*
X143082517Y-107220017D01*
X143051277Y-107245654D01*
X143015638Y-107264704D01*
X142976968Y-107276435D01*
X142930612Y-107281000D01*
X142279388Y-107281000D01*
X142233032Y-107276435D01*
X142194362Y-107264704D01*
X142158723Y-107245654D01*
X142127483Y-107220017D01*
X142101846Y-107188777D01*
X142082796Y-107153138D01*
X142071065Y-107114468D01*
X142066500Y-107068112D01*
X142066500Y-105991888D01*
X142071065Y-105945532D01*
X142082796Y-105906862D01*
X142101846Y-105871223D01*
X142127483Y-105839983D01*
X142158723Y-105814346D01*
X142194362Y-105795296D01*
X142233032Y-105783565D01*
X142279388Y-105779000D01*
X142930612Y-105779000D01*
X142976968Y-105783565D01*
X142976968Y-105783565D01*
G37*
M02*
