G04 #@! TF.GenerationSoftware,KiCad,Pcbnew,(5.1.0)-1*
G04 #@! TF.CreationDate,2020-01-16T15:44:38+01:00*
G04 #@! TF.ProjectId,first_channel_half_bridge,66697273-745f-4636-9861-6e6e656c5f68,rev?*
G04 #@! TF.SameCoordinates,Original*
G04 #@! TF.FileFunction,Legend,Top*
G04 #@! TF.FilePolarity,Positive*
%FSLAX46Y46*%
G04 Gerber Fmt 4.6, Leading zero omitted, Abs format (unit mm)*
G04 Created by KiCad (PCBNEW (5.1.0)-1) date 2020-01-16 15:44:38*
%MOMM*%
%LPD*%
G04 APERTURE LIST*
%ADD10C,0.300000*%
%ADD11C,0.152400*%
%ADD12C,0.120000*%
%ADD13C,0.050000*%
%ADD14C,0.150000*%
G04 APERTURE END LIST*
D10*
X145434285Y-112345714D02*
X145362857Y-112417142D01*
X145148571Y-112488571D01*
X145005714Y-112488571D01*
X144791428Y-112417142D01*
X144648571Y-112274285D01*
X144577142Y-112131428D01*
X144505714Y-111845714D01*
X144505714Y-111631428D01*
X144577142Y-111345714D01*
X144648571Y-111202857D01*
X144791428Y-111060000D01*
X145005714Y-110988571D01*
X145148571Y-110988571D01*
X145362857Y-111060000D01*
X145434285Y-111131428D01*
X146077142Y-112488571D02*
X146077142Y-110988571D01*
X146077142Y-111702857D02*
X146934285Y-111702857D01*
X146934285Y-112488571D02*
X146934285Y-110988571D01*
X148434285Y-112488571D02*
X147577142Y-112488571D01*
X148005714Y-112488571D02*
X148005714Y-110988571D01*
X147862857Y-111202857D01*
X147720000Y-111345714D01*
X147577142Y-111417142D01*
D11*
X136392600Y-112576600D02*
X140659800Y-112576600D01*
X140659800Y-107293400D02*
X136392600Y-107293400D01*
D12*
X133320000Y-107791078D02*
X133320000Y-107273922D01*
X131900000Y-107791078D02*
X131900000Y-107273922D01*
X133320000Y-111366078D02*
X133320000Y-110848922D01*
X131900000Y-111366078D02*
X131900000Y-110848922D01*
D13*
X140940629Y-112834221D02*
X140940629Y-113089189D01*
X140955627Y-113119186D01*
X140970626Y-113134184D01*
X141000622Y-113149182D01*
X141060614Y-113149182D01*
X141090611Y-113134184D01*
X141105609Y-113119186D01*
X141120607Y-113089189D01*
X141120607Y-112834221D01*
X141255590Y-112864217D02*
X141270588Y-112849219D01*
X141300585Y-112834221D01*
X141375575Y-112834221D01*
X141405572Y-112849219D01*
X141420570Y-112864217D01*
X141435568Y-112894213D01*
X141435568Y-112924210D01*
X141420570Y-112969204D01*
X141240592Y-113149182D01*
X141435568Y-113149182D01*
D14*
X134842380Y-106571666D02*
X134366190Y-106905000D01*
X134842380Y-107143095D02*
X133842380Y-107143095D01*
X133842380Y-106762142D01*
X133890000Y-106666904D01*
X133937619Y-106619285D01*
X134032857Y-106571666D01*
X134175714Y-106571666D01*
X134270952Y-106619285D01*
X134318571Y-106666904D01*
X134366190Y-106762142D01*
X134366190Y-107143095D01*
X133842380Y-105714523D02*
X133842380Y-105905000D01*
X133890000Y-106000238D01*
X133937619Y-106047857D01*
X134080476Y-106143095D01*
X134270952Y-106190714D01*
X134651904Y-106190714D01*
X134747142Y-106143095D01*
X134794761Y-106095476D01*
X134842380Y-106000238D01*
X134842380Y-105809761D01*
X134794761Y-105714523D01*
X134747142Y-105666904D01*
X134651904Y-105619285D01*
X134413809Y-105619285D01*
X134318571Y-105666904D01*
X134270952Y-105714523D01*
X134223333Y-105809761D01*
X134223333Y-106000238D01*
X134270952Y-106095476D01*
X134318571Y-106143095D01*
X134413809Y-106190714D01*
X134922380Y-108701666D02*
X134446190Y-109035000D01*
X134922380Y-109273095D02*
X133922380Y-109273095D01*
X133922380Y-108892142D01*
X133970000Y-108796904D01*
X134017619Y-108749285D01*
X134112857Y-108701666D01*
X134255714Y-108701666D01*
X134350952Y-108749285D01*
X134398571Y-108796904D01*
X134446190Y-108892142D01*
X134446190Y-109273095D01*
X133922380Y-107796904D02*
X133922380Y-108273095D01*
X134398571Y-108320714D01*
X134350952Y-108273095D01*
X134303333Y-108177857D01*
X134303333Y-107939761D01*
X134350952Y-107844523D01*
X134398571Y-107796904D01*
X134493809Y-107749285D01*
X134731904Y-107749285D01*
X134827142Y-107796904D01*
X134874761Y-107844523D01*
X134922380Y-107939761D01*
X134922380Y-108177857D01*
X134874761Y-108273095D01*
X134827142Y-108320714D01*
M02*
