G04 #@! TF.GenerationSoftware,KiCad,Pcbnew,(5.1.0)-1*
G04 #@! TF.CreationDate,2019-11-28T11:04:33+01:00*
G04 #@! TF.ProjectId,main_PCB_3,6d61696e-5f50-4434-925f-332e6b696361,rev?*
G04 #@! TF.SameCoordinates,Original*
G04 #@! TF.FileFunction,Soldermask,Top*
G04 #@! TF.FilePolarity,Negative*
%FSLAX46Y46*%
G04 Gerber Fmt 4.6, Leading zero omitted, Abs format (unit mm)*
G04 Created by KiCad (PCBNEW (5.1.0)-1) date 2019-11-28 11:04:33*
%MOMM*%
%LPD*%
G04 APERTURE LIST*
%ADD10C,0.600000*%
%ADD11C,0.100000*%
G04 APERTURE END LIST*
D10*
X168840000Y-50000000D02*
G75*
G03X168840000Y-50000000I-300000J0D01*
G01*
X166300000Y-50000000D02*
G75*
G03X166300000Y-50000000I-300000J0D01*
G01*
X168300000Y-56000000D02*
G75*
G03X168300000Y-56000000I-300000J0D01*
G01*
X168300000Y-58540000D02*
G75*
G03X168300000Y-58540000I-300000J0D01*
G01*
X174510000Y-73180000D02*
G75*
G03X174510000Y-73180000I-300000J0D01*
G01*
X171970000Y-73180000D02*
G75*
G03X171970000Y-73180000I-300000J0D01*
G01*
X169430000Y-73180000D02*
G75*
G03X169430000Y-73180000I-300000J0D01*
G01*
X174510000Y-70640000D02*
G75*
G03X174510000Y-70640000I-300000J0D01*
G01*
X171970000Y-70640000D02*
G75*
G03X171970000Y-70640000I-300000J0D01*
G01*
X169430000Y-68100000D02*
G75*
G03X169430000Y-68100000I-300000J0D01*
G01*
X177050000Y-68100000D02*
G75*
G03X177050000Y-68100000I-300000J0D01*
G01*
X177050000Y-75720000D02*
G75*
G03X177050000Y-75720000I-300000J0D01*
G01*
X169430000Y-75720000D02*
G75*
G03X169430000Y-75720000I-300000J0D01*
G01*
X177050000Y-81420000D02*
G75*
G03X177050000Y-81420000I-300000J0D01*
G01*
X169430000Y-81420000D02*
G75*
G03X169430000Y-81420000I-300000J0D01*
G01*
X171970000Y-83960000D02*
G75*
G03X171970000Y-83960000I-300000J0D01*
G01*
X174510000Y-83960000D02*
G75*
G03X174510000Y-83960000I-300000J0D01*
G01*
X174510000Y-86500000D02*
G75*
G03X174510000Y-86500000I-300000J0D01*
G01*
X171970000Y-86500000D02*
G75*
G03X171970000Y-86500000I-300000J0D01*
G01*
X169430000Y-86500000D02*
G75*
G03X169430000Y-86500000I-300000J0D01*
G01*
X169430000Y-89040000D02*
G75*
G03X169430000Y-89040000I-300000J0D01*
G01*
X177050000Y-89040000D02*
G75*
G03X177050000Y-89040000I-300000J0D01*
G01*
D11*
G36*
X160414579Y-94714112D02*
G01*
X160540544Y-94739168D01*
X160687991Y-94800243D01*
X160896512Y-94886615D01*
X160896513Y-94886616D01*
X161216877Y-95100676D01*
X161489324Y-95373123D01*
X161546371Y-95458500D01*
X161703385Y-95693488D01*
X161850832Y-96049457D01*
X161925078Y-96422712D01*
X161926000Y-96427351D01*
X161926000Y-96812649D01*
X161850832Y-97190544D01*
X161793508Y-97328935D01*
X161703385Y-97546512D01*
X161703384Y-97546513D01*
X161489324Y-97866877D01*
X161216877Y-98139324D01*
X161002816Y-98282355D01*
X160896512Y-98353385D01*
X160687991Y-98439757D01*
X160540544Y-98500832D01*
X160414579Y-98525888D01*
X160162651Y-98576000D01*
X159777349Y-98576000D01*
X159525421Y-98525888D01*
X159399456Y-98500832D01*
X159252009Y-98439757D01*
X159043488Y-98353385D01*
X158937184Y-98282355D01*
X158723123Y-98139324D01*
X158450676Y-97866877D01*
X158236616Y-97546513D01*
X158236615Y-97546512D01*
X158146492Y-97328935D01*
X158089168Y-97190544D01*
X158014000Y-96812649D01*
X158014000Y-96427351D01*
X158014923Y-96422712D01*
X158089168Y-96049457D01*
X158236615Y-95693488D01*
X158393629Y-95458500D01*
X158450676Y-95373123D01*
X158723123Y-95100676D01*
X159043487Y-94886616D01*
X159043488Y-94886615D01*
X159252009Y-94800243D01*
X159399456Y-94739168D01*
X159525421Y-94714112D01*
X159777349Y-94664000D01*
X160162651Y-94664000D01*
X160414579Y-94714112D01*
X160414579Y-94714112D01*
G37*
G36*
X142634579Y-94714112D02*
G01*
X142760544Y-94739168D01*
X142907991Y-94800243D01*
X143116512Y-94886615D01*
X143116513Y-94886616D01*
X143436877Y-95100676D01*
X143709324Y-95373123D01*
X143766371Y-95458500D01*
X143923385Y-95693488D01*
X144070832Y-96049457D01*
X144145078Y-96422712D01*
X144146000Y-96427351D01*
X144146000Y-96812649D01*
X144070832Y-97190544D01*
X144013508Y-97328935D01*
X143923385Y-97546512D01*
X143923384Y-97546513D01*
X143709324Y-97866877D01*
X143436877Y-98139324D01*
X143222816Y-98282355D01*
X143116512Y-98353385D01*
X142907991Y-98439757D01*
X142760544Y-98500832D01*
X142634579Y-98525888D01*
X142382651Y-98576000D01*
X141997349Y-98576000D01*
X141745421Y-98525888D01*
X141619456Y-98500832D01*
X141472009Y-98439757D01*
X141263488Y-98353385D01*
X141157184Y-98282355D01*
X140943123Y-98139324D01*
X140670676Y-97866877D01*
X140456616Y-97546513D01*
X140456615Y-97546512D01*
X140366492Y-97328935D01*
X140309168Y-97190544D01*
X140234000Y-96812649D01*
X140234000Y-96427351D01*
X140234923Y-96422712D01*
X140309168Y-96049457D01*
X140456615Y-95693488D01*
X140613629Y-95458500D01*
X140670676Y-95373123D01*
X140943123Y-95100676D01*
X141263487Y-94886616D01*
X141263488Y-94886615D01*
X141472009Y-94800243D01*
X141619456Y-94739168D01*
X141745421Y-94714112D01*
X141997349Y-94664000D01*
X142382651Y-94664000D01*
X142634579Y-94714112D01*
X142634579Y-94714112D01*
G37*
G36*
X167064468Y-96261065D02*
G01*
X167103138Y-96272796D01*
X167138777Y-96291846D01*
X167170017Y-96317483D01*
X167195654Y-96348723D01*
X167214704Y-96384362D01*
X167226435Y-96423032D01*
X167231000Y-96469388D01*
X167231000Y-97120612D01*
X167226435Y-97166968D01*
X167214704Y-97205638D01*
X167195654Y-97241277D01*
X167170017Y-97272517D01*
X167138777Y-97298154D01*
X167103138Y-97317204D01*
X167064468Y-97328935D01*
X167018112Y-97333500D01*
X165941888Y-97333500D01*
X165895532Y-97328935D01*
X165856862Y-97317204D01*
X165821223Y-97298154D01*
X165789983Y-97272517D01*
X165764346Y-97241277D01*
X165745296Y-97205638D01*
X165733565Y-97166968D01*
X165729000Y-97120612D01*
X165729000Y-96469388D01*
X165733565Y-96423032D01*
X165745296Y-96384362D01*
X165764346Y-96348723D01*
X165789983Y-96317483D01*
X165821223Y-96291846D01*
X165856862Y-96272796D01*
X165895532Y-96261065D01*
X165941888Y-96256500D01*
X167018112Y-96256500D01*
X167064468Y-96261065D01*
X167064468Y-96261065D01*
G37*
G36*
X167064468Y-94386065D02*
G01*
X167103138Y-94397796D01*
X167138777Y-94416846D01*
X167170017Y-94442483D01*
X167195654Y-94473723D01*
X167214704Y-94509362D01*
X167226435Y-94548032D01*
X167231000Y-94594388D01*
X167231000Y-95245612D01*
X167226435Y-95291968D01*
X167214704Y-95330638D01*
X167195654Y-95366277D01*
X167170017Y-95397517D01*
X167138777Y-95423154D01*
X167103138Y-95442204D01*
X167064468Y-95453935D01*
X167018112Y-95458500D01*
X165941888Y-95458500D01*
X165895532Y-95453935D01*
X165856862Y-95442204D01*
X165821223Y-95423154D01*
X165789983Y-95397517D01*
X165764346Y-95366277D01*
X165745296Y-95330638D01*
X165733565Y-95291968D01*
X165729000Y-95245612D01*
X165729000Y-94594388D01*
X165733565Y-94548032D01*
X165745296Y-94509362D01*
X165764346Y-94473723D01*
X165789983Y-94442483D01*
X165821223Y-94416846D01*
X165856862Y-94397796D01*
X165895532Y-94386065D01*
X165941888Y-94381500D01*
X167018112Y-94381500D01*
X167064468Y-94386065D01*
X167064468Y-94386065D01*
G37*
G36*
X161514187Y-91906123D02*
G01*
X161685255Y-91976982D01*
X161685257Y-91976983D01*
X161762758Y-92028768D01*
X161839214Y-92079854D01*
X161970146Y-92210786D01*
X162073018Y-92364745D01*
X162143877Y-92535813D01*
X162180000Y-92717417D01*
X162180000Y-92902583D01*
X162143877Y-93084187D01*
X162073018Y-93255255D01*
X162073017Y-93255257D01*
X161970145Y-93409215D01*
X161839215Y-93540145D01*
X161685257Y-93643017D01*
X161685256Y-93643018D01*
X161685255Y-93643018D01*
X161514187Y-93713877D01*
X161332583Y-93750000D01*
X161147417Y-93750000D01*
X160965813Y-93713877D01*
X160794745Y-93643018D01*
X160794744Y-93643018D01*
X160794743Y-93643017D01*
X160640785Y-93540145D01*
X160509855Y-93409215D01*
X160406983Y-93255257D01*
X160406982Y-93255255D01*
X160336123Y-93084187D01*
X160300000Y-92902583D01*
X160300000Y-92717417D01*
X160336123Y-92535813D01*
X160406982Y-92364745D01*
X160509854Y-92210786D01*
X160640786Y-92079854D01*
X160717242Y-92028768D01*
X160794743Y-91976983D01*
X160794745Y-91976982D01*
X160965813Y-91906123D01*
X161147417Y-91870000D01*
X161332583Y-91870000D01*
X161514187Y-91906123D01*
X161514187Y-91906123D01*
G37*
G36*
X161514187Y-89366123D02*
G01*
X161685255Y-89436982D01*
X161685257Y-89436983D01*
X161762758Y-89488768D01*
X161839214Y-89539854D01*
X161970146Y-89670786D01*
X162073018Y-89824745D01*
X162143877Y-89995813D01*
X162180000Y-90177417D01*
X162180000Y-90362583D01*
X162143877Y-90544187D01*
X162073018Y-90715255D01*
X162073017Y-90715257D01*
X161970145Y-90869215D01*
X161839215Y-91000145D01*
X161685257Y-91103017D01*
X161685256Y-91103018D01*
X161685255Y-91103018D01*
X161514187Y-91173877D01*
X161332583Y-91210000D01*
X161147417Y-91210000D01*
X160965813Y-91173877D01*
X160794745Y-91103018D01*
X160794744Y-91103018D01*
X160794743Y-91103017D01*
X160640785Y-91000145D01*
X160509855Y-90869215D01*
X160406983Y-90715257D01*
X160406982Y-90715255D01*
X160336123Y-90544187D01*
X160300000Y-90362583D01*
X160300000Y-90177417D01*
X160336123Y-89995813D01*
X160406982Y-89824745D01*
X160509854Y-89670786D01*
X160640786Y-89539854D01*
X160717242Y-89488768D01*
X160794743Y-89436983D01*
X160794745Y-89436982D01*
X160965813Y-89366123D01*
X161147417Y-89330000D01*
X161332583Y-89330000D01*
X161514187Y-89366123D01*
X161514187Y-89366123D01*
G37*
G36*
X161514187Y-86826123D02*
G01*
X161685255Y-86896982D01*
X161685257Y-86896983D01*
X161762758Y-86948768D01*
X161839214Y-86999854D01*
X161970146Y-87130786D01*
X162073018Y-87284745D01*
X162143877Y-87455813D01*
X162180000Y-87637417D01*
X162180000Y-87822583D01*
X162143877Y-88004187D01*
X162073018Y-88175255D01*
X162073017Y-88175257D01*
X161970145Y-88329215D01*
X161839215Y-88460145D01*
X161685257Y-88563017D01*
X161685256Y-88563018D01*
X161685255Y-88563018D01*
X161514187Y-88633877D01*
X161332583Y-88670000D01*
X161147417Y-88670000D01*
X160965813Y-88633877D01*
X160794745Y-88563018D01*
X160794744Y-88563018D01*
X160794743Y-88563017D01*
X160640785Y-88460145D01*
X160509855Y-88329215D01*
X160406983Y-88175257D01*
X160406982Y-88175255D01*
X160336123Y-88004187D01*
X160300000Y-87822583D01*
X160300000Y-87637417D01*
X160336123Y-87455813D01*
X160406982Y-87284745D01*
X160509854Y-87130786D01*
X160640786Y-86999854D01*
X160717242Y-86948768D01*
X160794743Y-86896983D01*
X160794745Y-86896982D01*
X160965813Y-86826123D01*
X161147417Y-86790000D01*
X161332583Y-86790000D01*
X161514187Y-86826123D01*
X161514187Y-86826123D01*
G37*
G36*
X161514187Y-84286123D02*
G01*
X161685255Y-84356982D01*
X161685257Y-84356983D01*
X161762758Y-84408768D01*
X161839214Y-84459854D01*
X161970146Y-84590786D01*
X162073018Y-84744745D01*
X162143877Y-84915813D01*
X162180000Y-85097417D01*
X162180000Y-85282583D01*
X162143877Y-85464187D01*
X162073018Y-85635255D01*
X162073017Y-85635257D01*
X161970145Y-85789215D01*
X161839215Y-85920145D01*
X161685257Y-86023017D01*
X161685256Y-86023018D01*
X161685255Y-86023018D01*
X161514187Y-86093877D01*
X161332583Y-86130000D01*
X161147417Y-86130000D01*
X160965813Y-86093877D01*
X160794745Y-86023018D01*
X160794744Y-86023018D01*
X160794743Y-86023017D01*
X160640785Y-85920145D01*
X160509855Y-85789215D01*
X160406983Y-85635257D01*
X160406982Y-85635255D01*
X160336123Y-85464187D01*
X160300000Y-85282583D01*
X160300000Y-85097417D01*
X160336123Y-84915813D01*
X160406982Y-84744745D01*
X160509854Y-84590786D01*
X160640786Y-84459854D01*
X160717242Y-84408768D01*
X160794743Y-84356983D01*
X160794745Y-84356982D01*
X160965813Y-84286123D01*
X161147417Y-84250000D01*
X161332583Y-84250000D01*
X161514187Y-84286123D01*
X161514187Y-84286123D01*
G37*
G36*
X161514187Y-81746123D02*
G01*
X161685255Y-81816982D01*
X161685257Y-81816983D01*
X161762758Y-81868768D01*
X161839214Y-81919854D01*
X161970146Y-82050786D01*
X162073018Y-82204745D01*
X162143877Y-82375813D01*
X162180000Y-82557417D01*
X162180000Y-82742583D01*
X162143877Y-82924187D01*
X162073018Y-83095255D01*
X162073017Y-83095257D01*
X161970145Y-83249215D01*
X161839215Y-83380145D01*
X161685257Y-83483017D01*
X161685256Y-83483018D01*
X161685255Y-83483018D01*
X161514187Y-83553877D01*
X161332583Y-83590000D01*
X161147417Y-83590000D01*
X160965813Y-83553877D01*
X160794745Y-83483018D01*
X160794744Y-83483018D01*
X160794743Y-83483017D01*
X160640785Y-83380145D01*
X160509855Y-83249215D01*
X160406983Y-83095257D01*
X160406982Y-83095255D01*
X160336123Y-82924187D01*
X160300000Y-82742583D01*
X160300000Y-82557417D01*
X160336123Y-82375813D01*
X160406982Y-82204745D01*
X160509854Y-82050786D01*
X160640786Y-81919854D01*
X160717242Y-81868768D01*
X160794743Y-81816983D01*
X160794745Y-81816982D01*
X160965813Y-81746123D01*
X161147417Y-81710000D01*
X161332583Y-81710000D01*
X161514187Y-81746123D01*
X161514187Y-81746123D01*
G37*
G36*
X141194187Y-81746123D02*
G01*
X141365255Y-81816982D01*
X141365257Y-81816983D01*
X141442758Y-81868768D01*
X141519214Y-81919854D01*
X141650146Y-82050786D01*
X141753018Y-82204745D01*
X141823877Y-82375813D01*
X141860000Y-82557417D01*
X141860000Y-82742583D01*
X141823877Y-82924187D01*
X141753018Y-83095255D01*
X141753017Y-83095257D01*
X141650145Y-83249215D01*
X141519215Y-83380145D01*
X141365257Y-83483017D01*
X141365256Y-83483018D01*
X141365255Y-83483018D01*
X141194187Y-83553877D01*
X141012583Y-83590000D01*
X140827417Y-83590000D01*
X140645813Y-83553877D01*
X140474745Y-83483018D01*
X140474744Y-83483018D01*
X140474743Y-83483017D01*
X140320785Y-83380145D01*
X140189855Y-83249215D01*
X140086983Y-83095257D01*
X140086982Y-83095255D01*
X140016123Y-82924187D01*
X139980000Y-82742583D01*
X139980000Y-82557417D01*
X140016123Y-82375813D01*
X140086982Y-82204745D01*
X140189854Y-82050786D01*
X140320786Y-81919854D01*
X140397242Y-81868768D01*
X140474743Y-81816983D01*
X140474745Y-81816982D01*
X140645813Y-81746123D01*
X140827417Y-81710000D01*
X141012583Y-81710000D01*
X141194187Y-81746123D01*
X141194187Y-81746123D01*
G37*
G36*
X141194187Y-79206123D02*
G01*
X141365255Y-79276982D01*
X141365257Y-79276983D01*
X141442758Y-79328768D01*
X141519214Y-79379854D01*
X141650146Y-79510786D01*
X141753018Y-79664745D01*
X141823877Y-79835813D01*
X141860000Y-80017417D01*
X141860000Y-80202583D01*
X141823877Y-80384187D01*
X141753018Y-80555255D01*
X141753017Y-80555257D01*
X141650145Y-80709215D01*
X141519215Y-80840145D01*
X141365257Y-80943017D01*
X141365256Y-80943018D01*
X141365255Y-80943018D01*
X141194187Y-81013877D01*
X141012583Y-81050000D01*
X140827417Y-81050000D01*
X140645813Y-81013877D01*
X140474745Y-80943018D01*
X140474744Y-80943018D01*
X140474743Y-80943017D01*
X140320785Y-80840145D01*
X140189855Y-80709215D01*
X140086983Y-80555257D01*
X140086982Y-80555255D01*
X140016123Y-80384187D01*
X139980000Y-80202583D01*
X139980000Y-80017417D01*
X140016123Y-79835813D01*
X140086982Y-79664745D01*
X140189854Y-79510786D01*
X140320786Y-79379854D01*
X140397242Y-79328768D01*
X140474743Y-79276983D01*
X140474745Y-79276982D01*
X140645813Y-79206123D01*
X140827417Y-79170000D01*
X141012583Y-79170000D01*
X141194187Y-79206123D01*
X141194187Y-79206123D01*
G37*
G36*
X161514187Y-79206123D02*
G01*
X161685255Y-79276982D01*
X161685257Y-79276983D01*
X161762758Y-79328768D01*
X161839214Y-79379854D01*
X161970146Y-79510786D01*
X162073018Y-79664745D01*
X162143877Y-79835813D01*
X162180000Y-80017417D01*
X162180000Y-80202583D01*
X162143877Y-80384187D01*
X162073018Y-80555255D01*
X162073017Y-80555257D01*
X161970145Y-80709215D01*
X161839215Y-80840145D01*
X161685257Y-80943017D01*
X161685256Y-80943018D01*
X161685255Y-80943018D01*
X161514187Y-81013877D01*
X161332583Y-81050000D01*
X161147417Y-81050000D01*
X160965813Y-81013877D01*
X160794745Y-80943018D01*
X160794744Y-80943018D01*
X160794743Y-80943017D01*
X160640785Y-80840145D01*
X160509855Y-80709215D01*
X160406983Y-80555257D01*
X160406982Y-80555255D01*
X160336123Y-80384187D01*
X160300000Y-80202583D01*
X160300000Y-80017417D01*
X160336123Y-79835813D01*
X160406982Y-79664745D01*
X160509854Y-79510786D01*
X160640786Y-79379854D01*
X160717242Y-79328768D01*
X160794743Y-79276983D01*
X160794745Y-79276982D01*
X160965813Y-79206123D01*
X161147417Y-79170000D01*
X161332583Y-79170000D01*
X161514187Y-79206123D01*
X161514187Y-79206123D01*
G37*
G36*
X161514187Y-76666123D02*
G01*
X161685255Y-76736982D01*
X161685257Y-76736983D01*
X161762758Y-76788768D01*
X161839214Y-76839854D01*
X161970146Y-76970786D01*
X162073018Y-77124745D01*
X162143877Y-77295813D01*
X162180000Y-77477417D01*
X162180000Y-77662583D01*
X162143877Y-77844187D01*
X162073018Y-78015255D01*
X162073017Y-78015257D01*
X161970145Y-78169215D01*
X161839215Y-78300145D01*
X161685257Y-78403017D01*
X161685256Y-78403018D01*
X161685255Y-78403018D01*
X161514187Y-78473877D01*
X161332583Y-78510000D01*
X161147417Y-78510000D01*
X160965813Y-78473877D01*
X160794745Y-78403018D01*
X160794744Y-78403018D01*
X160794743Y-78403017D01*
X160640785Y-78300145D01*
X160509855Y-78169215D01*
X160406983Y-78015257D01*
X160406982Y-78015255D01*
X160336123Y-77844187D01*
X160300000Y-77662583D01*
X160300000Y-77477417D01*
X160336123Y-77295813D01*
X160406982Y-77124745D01*
X160509854Y-76970786D01*
X160640786Y-76839854D01*
X160717242Y-76788768D01*
X160794743Y-76736983D01*
X160794745Y-76736982D01*
X160965813Y-76666123D01*
X161147417Y-76630000D01*
X161332583Y-76630000D01*
X161514187Y-76666123D01*
X161514187Y-76666123D01*
G37*
G36*
X141194187Y-76666123D02*
G01*
X141365255Y-76736982D01*
X141365257Y-76736983D01*
X141442758Y-76788768D01*
X141519214Y-76839854D01*
X141650146Y-76970786D01*
X141753018Y-77124745D01*
X141823877Y-77295813D01*
X141860000Y-77477417D01*
X141860000Y-77662583D01*
X141823877Y-77844187D01*
X141753018Y-78015255D01*
X141753017Y-78015257D01*
X141650145Y-78169215D01*
X141519215Y-78300145D01*
X141365257Y-78403017D01*
X141365256Y-78403018D01*
X141365255Y-78403018D01*
X141194187Y-78473877D01*
X141012583Y-78510000D01*
X140827417Y-78510000D01*
X140645813Y-78473877D01*
X140474745Y-78403018D01*
X140474744Y-78403018D01*
X140474743Y-78403017D01*
X140320785Y-78300145D01*
X140189855Y-78169215D01*
X140086983Y-78015257D01*
X140086982Y-78015255D01*
X140016123Y-77844187D01*
X139980000Y-77662583D01*
X139980000Y-77477417D01*
X140016123Y-77295813D01*
X140086982Y-77124745D01*
X140189854Y-76970786D01*
X140320786Y-76839854D01*
X140397242Y-76788768D01*
X140474743Y-76736983D01*
X140474745Y-76736982D01*
X140645813Y-76666123D01*
X140827417Y-76630000D01*
X141012583Y-76630000D01*
X141194187Y-76666123D01*
X141194187Y-76666123D01*
G37*
G36*
X161514187Y-74126123D02*
G01*
X161685255Y-74196982D01*
X161685257Y-74196983D01*
X161762758Y-74248768D01*
X161839214Y-74299854D01*
X161970146Y-74430786D01*
X162073018Y-74584745D01*
X162143877Y-74755813D01*
X162180000Y-74937417D01*
X162180000Y-75122583D01*
X162143877Y-75304187D01*
X162073018Y-75475255D01*
X162073017Y-75475257D01*
X161970145Y-75629215D01*
X161839215Y-75760145D01*
X161685257Y-75863017D01*
X161685256Y-75863018D01*
X161685255Y-75863018D01*
X161514187Y-75933877D01*
X161332583Y-75970000D01*
X161147417Y-75970000D01*
X160965813Y-75933877D01*
X160794745Y-75863018D01*
X160794744Y-75863018D01*
X160794743Y-75863017D01*
X160640785Y-75760145D01*
X160509855Y-75629215D01*
X160406983Y-75475257D01*
X160406982Y-75475255D01*
X160336123Y-75304187D01*
X160300000Y-75122583D01*
X160300000Y-74937417D01*
X160336123Y-74755813D01*
X160406982Y-74584745D01*
X160509854Y-74430786D01*
X160640786Y-74299854D01*
X160717242Y-74248768D01*
X160794743Y-74196983D01*
X160794745Y-74196982D01*
X160965813Y-74126123D01*
X161147417Y-74090000D01*
X161332583Y-74090000D01*
X161514187Y-74126123D01*
X161514187Y-74126123D01*
G37*
G36*
X141194187Y-74126123D02*
G01*
X141365255Y-74196982D01*
X141365257Y-74196983D01*
X141442758Y-74248768D01*
X141519214Y-74299854D01*
X141650146Y-74430786D01*
X141753018Y-74584745D01*
X141823877Y-74755813D01*
X141860000Y-74937417D01*
X141860000Y-75122583D01*
X141823877Y-75304187D01*
X141753018Y-75475255D01*
X141753017Y-75475257D01*
X141650145Y-75629215D01*
X141519215Y-75760145D01*
X141365257Y-75863017D01*
X141365256Y-75863018D01*
X141365255Y-75863018D01*
X141194187Y-75933877D01*
X141012583Y-75970000D01*
X140827417Y-75970000D01*
X140645813Y-75933877D01*
X140474745Y-75863018D01*
X140474744Y-75863018D01*
X140474743Y-75863017D01*
X140320785Y-75760145D01*
X140189855Y-75629215D01*
X140086983Y-75475257D01*
X140086982Y-75475255D01*
X140016123Y-75304187D01*
X139980000Y-75122583D01*
X139980000Y-74937417D01*
X140016123Y-74755813D01*
X140086982Y-74584745D01*
X140189854Y-74430786D01*
X140320786Y-74299854D01*
X140397242Y-74248768D01*
X140474743Y-74196983D01*
X140474745Y-74196982D01*
X140645813Y-74126123D01*
X140827417Y-74090000D01*
X141012583Y-74090000D01*
X141194187Y-74126123D01*
X141194187Y-74126123D01*
G37*
G36*
X141194187Y-71586123D02*
G01*
X141365255Y-71656982D01*
X141365257Y-71656983D01*
X141442758Y-71708768D01*
X141519214Y-71759854D01*
X141650146Y-71890786D01*
X141753018Y-72044745D01*
X141823877Y-72215813D01*
X141860000Y-72397417D01*
X141860000Y-72582583D01*
X141823877Y-72764187D01*
X141753018Y-72935255D01*
X141753017Y-72935257D01*
X141650145Y-73089215D01*
X141519215Y-73220145D01*
X141365257Y-73323017D01*
X141365256Y-73323018D01*
X141365255Y-73323018D01*
X141194187Y-73393877D01*
X141012583Y-73430000D01*
X140827417Y-73430000D01*
X140645813Y-73393877D01*
X140474745Y-73323018D01*
X140474744Y-73323018D01*
X140474743Y-73323017D01*
X140320785Y-73220145D01*
X140189855Y-73089215D01*
X140086983Y-72935257D01*
X140086982Y-72935255D01*
X140016123Y-72764187D01*
X139980000Y-72582583D01*
X139980000Y-72397417D01*
X140016123Y-72215813D01*
X140086982Y-72044745D01*
X140189854Y-71890786D01*
X140320786Y-71759854D01*
X140397242Y-71708768D01*
X140474743Y-71656983D01*
X140474745Y-71656982D01*
X140645813Y-71586123D01*
X140827417Y-71550000D01*
X141012583Y-71550000D01*
X141194187Y-71586123D01*
X141194187Y-71586123D01*
G37*
G36*
X161514187Y-71586123D02*
G01*
X161685255Y-71656982D01*
X161685257Y-71656983D01*
X161762758Y-71708768D01*
X161839214Y-71759854D01*
X161970146Y-71890786D01*
X162073018Y-72044745D01*
X162143877Y-72215813D01*
X162180000Y-72397417D01*
X162180000Y-72582583D01*
X162143877Y-72764187D01*
X162073018Y-72935255D01*
X162073017Y-72935257D01*
X161970145Y-73089215D01*
X161839215Y-73220145D01*
X161685257Y-73323017D01*
X161685256Y-73323018D01*
X161685255Y-73323018D01*
X161514187Y-73393877D01*
X161332583Y-73430000D01*
X161147417Y-73430000D01*
X160965813Y-73393877D01*
X160794745Y-73323018D01*
X160794744Y-73323018D01*
X160794743Y-73323017D01*
X160640785Y-73220145D01*
X160509855Y-73089215D01*
X160406983Y-72935257D01*
X160406982Y-72935255D01*
X160336123Y-72764187D01*
X160300000Y-72582583D01*
X160300000Y-72397417D01*
X160336123Y-72215813D01*
X160406982Y-72044745D01*
X160509854Y-71890786D01*
X160640786Y-71759854D01*
X160717242Y-71708768D01*
X160794743Y-71656983D01*
X160794745Y-71656982D01*
X160965813Y-71586123D01*
X161147417Y-71550000D01*
X161332583Y-71550000D01*
X161514187Y-71586123D01*
X161514187Y-71586123D01*
G37*
G36*
X141194187Y-69046123D02*
G01*
X141365255Y-69116982D01*
X141365257Y-69116983D01*
X141442758Y-69168768D01*
X141519214Y-69219854D01*
X141650146Y-69350786D01*
X141753018Y-69504745D01*
X141823877Y-69675813D01*
X141860000Y-69857417D01*
X141860000Y-70042583D01*
X141823877Y-70224187D01*
X141753018Y-70395255D01*
X141753017Y-70395257D01*
X141650145Y-70549215D01*
X141519215Y-70680145D01*
X141365257Y-70783017D01*
X141365256Y-70783018D01*
X141365255Y-70783018D01*
X141194187Y-70853877D01*
X141012583Y-70890000D01*
X140827417Y-70890000D01*
X140645813Y-70853877D01*
X140474745Y-70783018D01*
X140474744Y-70783018D01*
X140474743Y-70783017D01*
X140320785Y-70680145D01*
X140189855Y-70549215D01*
X140086983Y-70395257D01*
X140086982Y-70395255D01*
X140016123Y-70224187D01*
X139980000Y-70042583D01*
X139980000Y-69857417D01*
X140016123Y-69675813D01*
X140086982Y-69504745D01*
X140189854Y-69350786D01*
X140320786Y-69219854D01*
X140397242Y-69168768D01*
X140474743Y-69116983D01*
X140474745Y-69116982D01*
X140645813Y-69046123D01*
X140827417Y-69010000D01*
X141012583Y-69010000D01*
X141194187Y-69046123D01*
X141194187Y-69046123D01*
G37*
G36*
X161514187Y-69046123D02*
G01*
X161685255Y-69116982D01*
X161685257Y-69116983D01*
X161762758Y-69168768D01*
X161839214Y-69219854D01*
X161970146Y-69350786D01*
X162073018Y-69504745D01*
X162143877Y-69675813D01*
X162180000Y-69857417D01*
X162180000Y-70042583D01*
X162143877Y-70224187D01*
X162073018Y-70395255D01*
X162073017Y-70395257D01*
X161970145Y-70549215D01*
X161839215Y-70680145D01*
X161685257Y-70783017D01*
X161685256Y-70783018D01*
X161685255Y-70783018D01*
X161514187Y-70853877D01*
X161332583Y-70890000D01*
X161147417Y-70890000D01*
X160965813Y-70853877D01*
X160794745Y-70783018D01*
X160794744Y-70783018D01*
X160794743Y-70783017D01*
X160640785Y-70680145D01*
X160509855Y-70549215D01*
X160406983Y-70395257D01*
X160406982Y-70395255D01*
X160336123Y-70224187D01*
X160300000Y-70042583D01*
X160300000Y-69857417D01*
X160336123Y-69675813D01*
X160406982Y-69504745D01*
X160509854Y-69350786D01*
X160640786Y-69219854D01*
X160717242Y-69168768D01*
X160794743Y-69116983D01*
X160794745Y-69116982D01*
X160965813Y-69046123D01*
X161147417Y-69010000D01*
X161332583Y-69010000D01*
X161514187Y-69046123D01*
X161514187Y-69046123D01*
G37*
G36*
X161514187Y-66506123D02*
G01*
X161685255Y-66576982D01*
X161685257Y-66576983D01*
X161762758Y-66628768D01*
X161839214Y-66679854D01*
X161970146Y-66810786D01*
X162073018Y-66964745D01*
X162143877Y-67135813D01*
X162180000Y-67317417D01*
X162180000Y-67502583D01*
X162143877Y-67684187D01*
X162073018Y-67855255D01*
X162073017Y-67855257D01*
X161970145Y-68009215D01*
X161839215Y-68140145D01*
X161685257Y-68243017D01*
X161685256Y-68243018D01*
X161685255Y-68243018D01*
X161514187Y-68313877D01*
X161332583Y-68350000D01*
X161147417Y-68350000D01*
X160965813Y-68313877D01*
X160794745Y-68243018D01*
X160794744Y-68243018D01*
X160794743Y-68243017D01*
X160640785Y-68140145D01*
X160509855Y-68009215D01*
X160406983Y-67855257D01*
X160406982Y-67855255D01*
X160336123Y-67684187D01*
X160300000Y-67502583D01*
X160300000Y-67317417D01*
X160336123Y-67135813D01*
X160406982Y-66964745D01*
X160509854Y-66810786D01*
X160640786Y-66679854D01*
X160717242Y-66628768D01*
X160794743Y-66576983D01*
X160794745Y-66576982D01*
X160965813Y-66506123D01*
X161147417Y-66470000D01*
X161332583Y-66470000D01*
X161514187Y-66506123D01*
X161514187Y-66506123D01*
G37*
G36*
X141194187Y-66506123D02*
G01*
X141365255Y-66576982D01*
X141365257Y-66576983D01*
X141442758Y-66628768D01*
X141519214Y-66679854D01*
X141650146Y-66810786D01*
X141753018Y-66964745D01*
X141823877Y-67135813D01*
X141860000Y-67317417D01*
X141860000Y-67502583D01*
X141823877Y-67684187D01*
X141753018Y-67855255D01*
X141753017Y-67855257D01*
X141650145Y-68009215D01*
X141519215Y-68140145D01*
X141365257Y-68243017D01*
X141365256Y-68243018D01*
X141365255Y-68243018D01*
X141194187Y-68313877D01*
X141012583Y-68350000D01*
X140827417Y-68350000D01*
X140645813Y-68313877D01*
X140474745Y-68243018D01*
X140474744Y-68243018D01*
X140474743Y-68243017D01*
X140320785Y-68140145D01*
X140189855Y-68009215D01*
X140086983Y-67855257D01*
X140086982Y-67855255D01*
X140016123Y-67684187D01*
X139980000Y-67502583D01*
X139980000Y-67317417D01*
X140016123Y-67135813D01*
X140086982Y-66964745D01*
X140189854Y-66810786D01*
X140320786Y-66679854D01*
X140397242Y-66628768D01*
X140474743Y-66576983D01*
X140474745Y-66576982D01*
X140645813Y-66506123D01*
X140827417Y-66470000D01*
X141012583Y-66470000D01*
X141194187Y-66506123D01*
X141194187Y-66506123D01*
G37*
G36*
X161514187Y-63966123D02*
G01*
X161685255Y-64036982D01*
X161685257Y-64036983D01*
X161762758Y-64088768D01*
X161839214Y-64139854D01*
X161970146Y-64270786D01*
X162073018Y-64424745D01*
X162143877Y-64595813D01*
X162180000Y-64777417D01*
X162180000Y-64962583D01*
X162143877Y-65144187D01*
X162073018Y-65315255D01*
X162073017Y-65315257D01*
X161970145Y-65469215D01*
X161839215Y-65600145D01*
X161685257Y-65703017D01*
X161685256Y-65703018D01*
X161685255Y-65703018D01*
X161514187Y-65773877D01*
X161332583Y-65810000D01*
X161147417Y-65810000D01*
X160965813Y-65773877D01*
X160794745Y-65703018D01*
X160794744Y-65703018D01*
X160794743Y-65703017D01*
X160640785Y-65600145D01*
X160509855Y-65469215D01*
X160406983Y-65315257D01*
X160406982Y-65315255D01*
X160336123Y-65144187D01*
X160300000Y-64962583D01*
X160300000Y-64777417D01*
X160336123Y-64595813D01*
X160406982Y-64424745D01*
X160509854Y-64270786D01*
X160640786Y-64139854D01*
X160717242Y-64088768D01*
X160794743Y-64036983D01*
X160794745Y-64036982D01*
X160965813Y-63966123D01*
X161147417Y-63930000D01*
X161332583Y-63930000D01*
X161514187Y-63966123D01*
X161514187Y-63966123D01*
G37*
G36*
X141194187Y-63966123D02*
G01*
X141365255Y-64036982D01*
X141365257Y-64036983D01*
X141442758Y-64088768D01*
X141519214Y-64139854D01*
X141650146Y-64270786D01*
X141753018Y-64424745D01*
X141823877Y-64595813D01*
X141860000Y-64777417D01*
X141860000Y-64962583D01*
X141823877Y-65144187D01*
X141753018Y-65315255D01*
X141753017Y-65315257D01*
X141650145Y-65469215D01*
X141519215Y-65600145D01*
X141365257Y-65703017D01*
X141365256Y-65703018D01*
X141365255Y-65703018D01*
X141194187Y-65773877D01*
X141012583Y-65810000D01*
X140827417Y-65810000D01*
X140645813Y-65773877D01*
X140474745Y-65703018D01*
X140474744Y-65703018D01*
X140474743Y-65703017D01*
X140320785Y-65600145D01*
X140189855Y-65469215D01*
X140086983Y-65315257D01*
X140086982Y-65315255D01*
X140016123Y-65144187D01*
X139980000Y-64962583D01*
X139980000Y-64777417D01*
X140016123Y-64595813D01*
X140086982Y-64424745D01*
X140189854Y-64270786D01*
X140320786Y-64139854D01*
X140397242Y-64088768D01*
X140474743Y-64036983D01*
X140474745Y-64036982D01*
X140645813Y-63966123D01*
X140827417Y-63930000D01*
X141012583Y-63930000D01*
X141194187Y-63966123D01*
X141194187Y-63966123D01*
G37*
G36*
X141194187Y-61426123D02*
G01*
X141365255Y-61496982D01*
X141365257Y-61496983D01*
X141442758Y-61548768D01*
X141519214Y-61599854D01*
X141650146Y-61730786D01*
X141753018Y-61884745D01*
X141823877Y-62055813D01*
X141860000Y-62237417D01*
X141860000Y-62422583D01*
X141823877Y-62604187D01*
X141753018Y-62775255D01*
X141753017Y-62775257D01*
X141650145Y-62929215D01*
X141519215Y-63060145D01*
X141365257Y-63163017D01*
X141365256Y-63163018D01*
X141365255Y-63163018D01*
X141194187Y-63233877D01*
X141012583Y-63270000D01*
X140827417Y-63270000D01*
X140645813Y-63233877D01*
X140474745Y-63163018D01*
X140474744Y-63163018D01*
X140474743Y-63163017D01*
X140320785Y-63060145D01*
X140189855Y-62929215D01*
X140086983Y-62775257D01*
X140086982Y-62775255D01*
X140016123Y-62604187D01*
X139980000Y-62422583D01*
X139980000Y-62237417D01*
X140016123Y-62055813D01*
X140086982Y-61884745D01*
X140189854Y-61730786D01*
X140320786Y-61599854D01*
X140397242Y-61548768D01*
X140474743Y-61496983D01*
X140474745Y-61496982D01*
X140645813Y-61426123D01*
X140827417Y-61390000D01*
X141012583Y-61390000D01*
X141194187Y-61426123D01*
X141194187Y-61426123D01*
G37*
G36*
X161514187Y-61426123D02*
G01*
X161685255Y-61496982D01*
X161685257Y-61496983D01*
X161762758Y-61548768D01*
X161839214Y-61599854D01*
X161970146Y-61730786D01*
X162073018Y-61884745D01*
X162143877Y-62055813D01*
X162180000Y-62237417D01*
X162180000Y-62422583D01*
X162143877Y-62604187D01*
X162073018Y-62775255D01*
X162073017Y-62775257D01*
X161970145Y-62929215D01*
X161839215Y-63060145D01*
X161685257Y-63163017D01*
X161685256Y-63163018D01*
X161685255Y-63163018D01*
X161514187Y-63233877D01*
X161332583Y-63270000D01*
X161147417Y-63270000D01*
X160965813Y-63233877D01*
X160794745Y-63163018D01*
X160794744Y-63163018D01*
X160794743Y-63163017D01*
X160640785Y-63060145D01*
X160509855Y-62929215D01*
X160406983Y-62775257D01*
X160406982Y-62775255D01*
X160336123Y-62604187D01*
X160300000Y-62422583D01*
X160300000Y-62237417D01*
X160336123Y-62055813D01*
X160406982Y-61884745D01*
X160509854Y-61730786D01*
X160640786Y-61599854D01*
X160717242Y-61548768D01*
X160794743Y-61496983D01*
X160794745Y-61496982D01*
X160965813Y-61426123D01*
X161147417Y-61390000D01*
X161332583Y-61390000D01*
X161514187Y-61426123D01*
X161514187Y-61426123D01*
G37*
G36*
X141194187Y-58886123D02*
G01*
X141365255Y-58956982D01*
X141365257Y-58956983D01*
X141442758Y-59008768D01*
X141519214Y-59059854D01*
X141650146Y-59190786D01*
X141753018Y-59344745D01*
X141823877Y-59515813D01*
X141860000Y-59697417D01*
X141860000Y-59882583D01*
X141823877Y-60064187D01*
X141753018Y-60235255D01*
X141753017Y-60235257D01*
X141650145Y-60389215D01*
X141519215Y-60520145D01*
X141365257Y-60623017D01*
X141365256Y-60623018D01*
X141365255Y-60623018D01*
X141194187Y-60693877D01*
X141012583Y-60730000D01*
X140827417Y-60730000D01*
X140645813Y-60693877D01*
X140474745Y-60623018D01*
X140474744Y-60623018D01*
X140474743Y-60623017D01*
X140320785Y-60520145D01*
X140189855Y-60389215D01*
X140086983Y-60235257D01*
X140086982Y-60235255D01*
X140016123Y-60064187D01*
X139980000Y-59882583D01*
X139980000Y-59697417D01*
X140016123Y-59515813D01*
X140086982Y-59344745D01*
X140189854Y-59190786D01*
X140320786Y-59059854D01*
X140397242Y-59008768D01*
X140474743Y-58956983D01*
X140474745Y-58956982D01*
X140645813Y-58886123D01*
X140827417Y-58850000D01*
X141012583Y-58850000D01*
X141194187Y-58886123D01*
X141194187Y-58886123D01*
G37*
G36*
X161514187Y-58886123D02*
G01*
X161685255Y-58956982D01*
X161685257Y-58956983D01*
X161762758Y-59008768D01*
X161839214Y-59059854D01*
X161970146Y-59190786D01*
X162073018Y-59344745D01*
X162143877Y-59515813D01*
X162180000Y-59697417D01*
X162180000Y-59882583D01*
X162143877Y-60064187D01*
X162073018Y-60235255D01*
X162073017Y-60235257D01*
X161970145Y-60389215D01*
X161839215Y-60520145D01*
X161685257Y-60623017D01*
X161685256Y-60623018D01*
X161685255Y-60623018D01*
X161514187Y-60693877D01*
X161332583Y-60730000D01*
X161147417Y-60730000D01*
X160965813Y-60693877D01*
X160794745Y-60623018D01*
X160794744Y-60623018D01*
X160794743Y-60623017D01*
X160640785Y-60520145D01*
X160509855Y-60389215D01*
X160406983Y-60235257D01*
X160406982Y-60235255D01*
X160336123Y-60064187D01*
X160300000Y-59882583D01*
X160300000Y-59697417D01*
X160336123Y-59515813D01*
X160406982Y-59344745D01*
X160509854Y-59190786D01*
X160640786Y-59059854D01*
X160717242Y-59008768D01*
X160794743Y-58956983D01*
X160794745Y-58956982D01*
X160965813Y-58886123D01*
X161147417Y-58850000D01*
X161332583Y-58850000D01*
X161514187Y-58886123D01*
X161514187Y-58886123D01*
G37*
G36*
X161514187Y-56346123D02*
G01*
X161685255Y-56416982D01*
X161685257Y-56416983D01*
X161762758Y-56468768D01*
X161839214Y-56519854D01*
X161970146Y-56650786D01*
X162073018Y-56804745D01*
X162143877Y-56975813D01*
X162180000Y-57157417D01*
X162180000Y-57342583D01*
X162143877Y-57524187D01*
X162073018Y-57695255D01*
X162073017Y-57695257D01*
X161970145Y-57849215D01*
X161839215Y-57980145D01*
X161685257Y-58083017D01*
X161685256Y-58083018D01*
X161685255Y-58083018D01*
X161514187Y-58153877D01*
X161332583Y-58190000D01*
X161147417Y-58190000D01*
X160965813Y-58153877D01*
X160794745Y-58083018D01*
X160794744Y-58083018D01*
X160794743Y-58083017D01*
X160640785Y-57980145D01*
X160509855Y-57849215D01*
X160406983Y-57695257D01*
X160406982Y-57695255D01*
X160336123Y-57524187D01*
X160300000Y-57342583D01*
X160300000Y-57157417D01*
X160336123Y-56975813D01*
X160406982Y-56804745D01*
X160509854Y-56650786D01*
X160640786Y-56519854D01*
X160717242Y-56468768D01*
X160794743Y-56416983D01*
X160794745Y-56416982D01*
X160965813Y-56346123D01*
X161147417Y-56310000D01*
X161332583Y-56310000D01*
X161514187Y-56346123D01*
X161514187Y-56346123D01*
G37*
G36*
X141194187Y-56346123D02*
G01*
X141365255Y-56416982D01*
X141365257Y-56416983D01*
X141442758Y-56468768D01*
X141519214Y-56519854D01*
X141650146Y-56650786D01*
X141753018Y-56804745D01*
X141823877Y-56975813D01*
X141860000Y-57157417D01*
X141860000Y-57342583D01*
X141823877Y-57524187D01*
X141753018Y-57695255D01*
X141753017Y-57695257D01*
X141650145Y-57849215D01*
X141519215Y-57980145D01*
X141365257Y-58083017D01*
X141365256Y-58083018D01*
X141365255Y-58083018D01*
X141194187Y-58153877D01*
X141012583Y-58190000D01*
X140827417Y-58190000D01*
X140645813Y-58153877D01*
X140474745Y-58083018D01*
X140474744Y-58083018D01*
X140474743Y-58083017D01*
X140320785Y-57980145D01*
X140189855Y-57849215D01*
X140086983Y-57695257D01*
X140086982Y-57695255D01*
X140016123Y-57524187D01*
X139980000Y-57342583D01*
X139980000Y-57157417D01*
X140016123Y-56975813D01*
X140086982Y-56804745D01*
X140189854Y-56650786D01*
X140320786Y-56519854D01*
X140397242Y-56468768D01*
X140474743Y-56416983D01*
X140474745Y-56416982D01*
X140645813Y-56346123D01*
X140827417Y-56310000D01*
X141012583Y-56310000D01*
X141194187Y-56346123D01*
X141194187Y-56346123D01*
G37*
G36*
X141194187Y-53806123D02*
G01*
X141365255Y-53876982D01*
X141365257Y-53876983D01*
X141442758Y-53928768D01*
X141519214Y-53979854D01*
X141650146Y-54110786D01*
X141753018Y-54264745D01*
X141823877Y-54435813D01*
X141860000Y-54617417D01*
X141860000Y-54802583D01*
X141823877Y-54984187D01*
X141753018Y-55155255D01*
X141753017Y-55155257D01*
X141650145Y-55309215D01*
X141519215Y-55440145D01*
X141365257Y-55543017D01*
X141365256Y-55543018D01*
X141365255Y-55543018D01*
X141194187Y-55613877D01*
X141012583Y-55650000D01*
X140827417Y-55650000D01*
X140645813Y-55613877D01*
X140474745Y-55543018D01*
X140474744Y-55543018D01*
X140474743Y-55543017D01*
X140320785Y-55440145D01*
X140189855Y-55309215D01*
X140086983Y-55155257D01*
X140086982Y-55155255D01*
X140016123Y-54984187D01*
X139980000Y-54802583D01*
X139980000Y-54617417D01*
X140016123Y-54435813D01*
X140086982Y-54264745D01*
X140189854Y-54110786D01*
X140320786Y-53979854D01*
X140397242Y-53928768D01*
X140474743Y-53876983D01*
X140474745Y-53876982D01*
X140645813Y-53806123D01*
X140827417Y-53770000D01*
X141012583Y-53770000D01*
X141194187Y-53806123D01*
X141194187Y-53806123D01*
G37*
G36*
X161514187Y-53806123D02*
G01*
X161685255Y-53876982D01*
X161685257Y-53876983D01*
X161762758Y-53928768D01*
X161839214Y-53979854D01*
X161970146Y-54110786D01*
X162073018Y-54264745D01*
X162143877Y-54435813D01*
X162180000Y-54617417D01*
X162180000Y-54802583D01*
X162143877Y-54984187D01*
X162073018Y-55155255D01*
X162073017Y-55155257D01*
X161970145Y-55309215D01*
X161839215Y-55440145D01*
X161685257Y-55543017D01*
X161685256Y-55543018D01*
X161685255Y-55543018D01*
X161514187Y-55613877D01*
X161332583Y-55650000D01*
X161147417Y-55650000D01*
X160965813Y-55613877D01*
X160794745Y-55543018D01*
X160794744Y-55543018D01*
X160794743Y-55543017D01*
X160640785Y-55440145D01*
X160509855Y-55309215D01*
X160406983Y-55155257D01*
X160406982Y-55155255D01*
X160336123Y-54984187D01*
X160300000Y-54802583D01*
X160300000Y-54617417D01*
X160336123Y-54435813D01*
X160406982Y-54264745D01*
X160509854Y-54110786D01*
X160640786Y-53979854D01*
X160717242Y-53928768D01*
X160794743Y-53876983D01*
X160794745Y-53876982D01*
X160965813Y-53806123D01*
X161147417Y-53770000D01*
X161332583Y-53770000D01*
X161514187Y-53806123D01*
X161514187Y-53806123D01*
G37*
G36*
X160227714Y-49604382D02*
G01*
X160355322Y-49629765D01*
X160496148Y-49688097D01*
X160595727Y-49729344D01*
X160595728Y-49729345D01*
X160812089Y-49873912D01*
X160996088Y-50057911D01*
X161092685Y-50202479D01*
X161140656Y-50274273D01*
X161181903Y-50373852D01*
X161240235Y-50514678D01*
X161291000Y-50769893D01*
X161291000Y-51030107D01*
X161240235Y-51285322D01*
X161181903Y-51426148D01*
X161140656Y-51525727D01*
X161140655Y-51525728D01*
X160996088Y-51742089D01*
X160812089Y-51926088D01*
X160667521Y-52022685D01*
X160595727Y-52070656D01*
X160496148Y-52111903D01*
X160355322Y-52170235D01*
X160227715Y-52195617D01*
X160100109Y-52221000D01*
X159839891Y-52221000D01*
X159712285Y-52195617D01*
X159584678Y-52170235D01*
X159443852Y-52111903D01*
X159344273Y-52070656D01*
X159272479Y-52022685D01*
X159127911Y-51926088D01*
X158943912Y-51742089D01*
X158799345Y-51525728D01*
X158799344Y-51525727D01*
X158758097Y-51426148D01*
X158699765Y-51285322D01*
X158649000Y-51030107D01*
X158649000Y-50769893D01*
X158699765Y-50514678D01*
X158758097Y-50373852D01*
X158799344Y-50274273D01*
X158847315Y-50202479D01*
X158943912Y-50057911D01*
X159127911Y-49873912D01*
X159344272Y-49729345D01*
X159344273Y-49729344D01*
X159443852Y-49688097D01*
X159584678Y-49629765D01*
X159712286Y-49604382D01*
X159839891Y-49579000D01*
X160100109Y-49579000D01*
X160227714Y-49604382D01*
X160227714Y-49604382D01*
G37*
G36*
X142447714Y-49604382D02*
G01*
X142575322Y-49629765D01*
X142716148Y-49688097D01*
X142815727Y-49729344D01*
X142815728Y-49729345D01*
X143032089Y-49873912D01*
X143216088Y-50057911D01*
X143312685Y-50202479D01*
X143360656Y-50274273D01*
X143401903Y-50373852D01*
X143460235Y-50514678D01*
X143511000Y-50769893D01*
X143511000Y-51030107D01*
X143460235Y-51285322D01*
X143401903Y-51426148D01*
X143360656Y-51525727D01*
X143360655Y-51525728D01*
X143216088Y-51742089D01*
X143032089Y-51926088D01*
X142887521Y-52022685D01*
X142815727Y-52070656D01*
X142716148Y-52111903D01*
X142575322Y-52170235D01*
X142447715Y-52195617D01*
X142320109Y-52221000D01*
X142059891Y-52221000D01*
X141932285Y-52195617D01*
X141804678Y-52170235D01*
X141663852Y-52111903D01*
X141564273Y-52070656D01*
X141492479Y-52022685D01*
X141347911Y-51926088D01*
X141163912Y-51742089D01*
X141019345Y-51525728D01*
X141019344Y-51525727D01*
X140978097Y-51426148D01*
X140919765Y-51285322D01*
X140869000Y-51030107D01*
X140869000Y-50769893D01*
X140919765Y-50514678D01*
X140978097Y-50373852D01*
X141019344Y-50274273D01*
X141067315Y-50202479D01*
X141163912Y-50057911D01*
X141347911Y-49873912D01*
X141564272Y-49729345D01*
X141564273Y-49729344D01*
X141663852Y-49688097D01*
X141804678Y-49629765D01*
X141932286Y-49604382D01*
X142059891Y-49579000D01*
X142320109Y-49579000D01*
X142447714Y-49604382D01*
X142447714Y-49604382D01*
G37*
M02*
