M48
; DRILL file {KiCad (5.1.0)-1} date 28.11.2019 11:04:30
; FORMAT={-:-/ absolute / metric / decimal}
; #@! TF.CreationDate,2019-11-28T11:04:30+01:00
; #@! TF.GenerationSoftware,Kicad,Pcbnew,(5.1.0)-1
; #@! TF.FileFunction,Plated,1,2,PTH
FMAT,2
METRIC
T1C0.400
T2C1.000
T3C2.000
T4C2.500
%
G90
G05
T1
X163.5Y-67.41
X166.43Y-93.15
T2
X166.0Y-50.0
X168.0Y-56.0
X168.0Y-58.54
X168.54Y-50.0
X169.13Y-68.1
X169.13Y-73.18
X169.13Y-75.72
X169.13Y-81.42
X169.13Y-86.5
X169.13Y-89.04
X171.67Y-70.64
X171.67Y-73.18
X171.67Y-83.96
X171.67Y-86.5
X174.21Y-70.64
X174.21Y-73.18
X174.21Y-83.96
X174.21Y-86.5
X176.75Y-68.1
X176.75Y-75.72
X176.75Y-81.42
X176.75Y-89.04
X140.92Y-54.71
X140.92Y-57.25
X140.92Y-59.79
X140.92Y-62.33
X140.92Y-64.87
X140.92Y-67.41
X140.92Y-69.95
X140.92Y-72.49
X140.92Y-75.03
X140.92Y-77.57
X140.92Y-80.11
X140.92Y-82.65
X161.24Y-54.71
X161.24Y-57.25
X161.24Y-59.79
X161.24Y-62.33
X161.24Y-64.87
X161.24Y-67.41
X161.24Y-69.95
X161.24Y-72.49
X161.24Y-75.03
X161.24Y-77.57
X161.24Y-80.11
X161.24Y-82.65
X161.24Y-85.19
X161.24Y-87.73
X161.24Y-90.27
X161.24Y-92.81
T3
X137.0Y-49.0
X137.0Y-98.0
X177.0Y-49.0
X177.0Y-98.0
T4
X142.19Y-96.62
X159.97Y-96.62
T0
M30
