G04 #@! TF.GenerationSoftware,KiCad,Pcbnew,(5.1.0)-1*
G04 #@! TF.CreationDate,2019-11-28T11:04:33+01:00*
G04 #@! TF.ProjectId,main_PCB_3,6d61696e-5f50-4434-925f-332e6b696361,rev?*
G04 #@! TF.SameCoordinates,Original*
G04 #@! TF.FileFunction,Legend,Bot*
G04 #@! TF.FilePolarity,Positive*
%FSLAX46Y46*%
G04 Gerber Fmt 4.6, Leading zero omitted, Abs format (unit mm)*
G04 Created by KiCad (PCBNEW (5.1.0)-1) date 2019-11-28 11:04:33*
%MOMM*%
%LPD*%
G04 APERTURE LIST*
%ADD10C,0.100000*%
%ADD11C,0.150000*%
%ADD12C,0.001000*%
%ADD13C,0.500000*%
%ADD14C,0.200000*%
%ADD15C,0.300000*%
G04 APERTURE END LIST*
D10*
X153346666Y-64244285D02*
X152880000Y-65239523D01*
X152880000Y-64244285D02*
X153346666Y-65239523D01*
X153346666Y-65963333D02*
X152646666Y-65963333D01*
X153146666Y-66596666D01*
X152646666Y-67230000D01*
X153346666Y-67230000D01*
X153346666Y-68406190D02*
X153313333Y-68225238D01*
X153280000Y-68134761D01*
X153213333Y-68044285D01*
X153013333Y-68044285D01*
X152946666Y-68134761D01*
X152913333Y-68225238D01*
X152880000Y-68406190D01*
X152880000Y-68677619D01*
X152913333Y-68858571D01*
X152946666Y-68949047D01*
X153013333Y-69039523D01*
X153213333Y-69039523D01*
X153280000Y-68949047D01*
X153313333Y-68858571D01*
X153346666Y-68677619D01*
X153346666Y-68406190D01*
X152880000Y-69582380D02*
X152880000Y-70306190D01*
X152646666Y-69853809D02*
X153246666Y-69853809D01*
X153313333Y-69944285D01*
X153346666Y-70125238D01*
X153346666Y-70306190D01*
X153346666Y-70939523D02*
X152880000Y-70939523D01*
X152646666Y-70939523D02*
X152680000Y-70849047D01*
X152713333Y-70939523D01*
X152680000Y-71030000D01*
X152646666Y-70939523D01*
X152713333Y-70939523D01*
X153346666Y-72115714D02*
X153313333Y-71934761D01*
X153280000Y-71844285D01*
X153213333Y-71753809D01*
X153013333Y-71753809D01*
X152946666Y-71844285D01*
X152913333Y-71934761D01*
X152880000Y-72115714D01*
X152880000Y-72387142D01*
X152913333Y-72568095D01*
X152946666Y-72658571D01*
X153013333Y-72749047D01*
X153213333Y-72749047D01*
X153280000Y-72658571D01*
X153313333Y-72568095D01*
X153346666Y-72387142D01*
X153346666Y-72115714D01*
X152880000Y-73563333D02*
X153346666Y-73563333D01*
X152946666Y-73563333D02*
X152913333Y-73653809D01*
X152880000Y-73834761D01*
X152880000Y-74106190D01*
X152913333Y-74287142D01*
X152980000Y-74377619D01*
X153346666Y-74377619D01*
X153413333Y-74830000D02*
X153413333Y-76277619D01*
X153346666Y-76730000D02*
X152646666Y-76730000D01*
X152646666Y-77453809D01*
X152680000Y-77634761D01*
X152713333Y-77725238D01*
X152780000Y-77815714D01*
X152880000Y-77815714D01*
X152946666Y-77725238D01*
X152980000Y-77634761D01*
X153013333Y-77453809D01*
X153013333Y-76730000D01*
X153346666Y-79625238D02*
X153346666Y-78539523D01*
X153346666Y-79082380D02*
X152646666Y-79082380D01*
X152746666Y-78901428D01*
X152813333Y-78720476D01*
X152846666Y-78539523D01*
D11*
X151894761Y-64163809D02*
X150561428Y-65211428D01*
X150561428Y-64163809D02*
X151894761Y-65211428D01*
X151894761Y-65973333D02*
X149894761Y-65973333D01*
X151323333Y-66640000D01*
X149894761Y-67306666D01*
X151894761Y-67306666D01*
X151894761Y-68544761D02*
X151799523Y-68354285D01*
X151704285Y-68259047D01*
X151513809Y-68163809D01*
X150942380Y-68163809D01*
X150751904Y-68259047D01*
X150656666Y-68354285D01*
X150561428Y-68544761D01*
X150561428Y-68830476D01*
X150656666Y-69020952D01*
X150751904Y-69116190D01*
X150942380Y-69211428D01*
X151513809Y-69211428D01*
X151704285Y-69116190D01*
X151799523Y-69020952D01*
X151894761Y-68830476D01*
X151894761Y-68544761D01*
X150561428Y-69782857D02*
X150561428Y-70544761D01*
X149894761Y-70068571D02*
X151609047Y-70068571D01*
X151799523Y-70163809D01*
X151894761Y-70354285D01*
X151894761Y-70544761D01*
X151894761Y-71211428D02*
X150561428Y-71211428D01*
X149894761Y-71211428D02*
X149990000Y-71116190D01*
X150085238Y-71211428D01*
X149990000Y-71306666D01*
X149894761Y-71211428D01*
X150085238Y-71211428D01*
X151894761Y-72449523D02*
X151799523Y-72259047D01*
X151704285Y-72163809D01*
X151513809Y-72068571D01*
X150942380Y-72068571D01*
X150751904Y-72163809D01*
X150656666Y-72259047D01*
X150561428Y-72449523D01*
X150561428Y-72735238D01*
X150656666Y-72925714D01*
X150751904Y-73020952D01*
X150942380Y-73116190D01*
X151513809Y-73116190D01*
X151704285Y-73020952D01*
X151799523Y-72925714D01*
X151894761Y-72735238D01*
X151894761Y-72449523D01*
X150561428Y-73973333D02*
X151894761Y-73973333D01*
X150751904Y-73973333D02*
X150656666Y-74068571D01*
X150561428Y-74259047D01*
X150561428Y-74544761D01*
X150656666Y-74735238D01*
X150847142Y-74830476D01*
X151894761Y-74830476D01*
X151894761Y-77306666D02*
X149894761Y-77306666D01*
X149894761Y-78068571D01*
X149990000Y-78259047D01*
X150085238Y-78354285D01*
X150275714Y-78449523D01*
X150561428Y-78449523D01*
X150751904Y-78354285D01*
X150847142Y-78259047D01*
X150942380Y-78068571D01*
X150942380Y-77306666D01*
X151894761Y-79306666D02*
X150561428Y-79306666D01*
X150942380Y-79306666D02*
X150751904Y-79401904D01*
X150656666Y-79497142D01*
X150561428Y-79687619D01*
X150561428Y-79878095D01*
X151894761Y-80830476D02*
X151799523Y-80640000D01*
X151704285Y-80544761D01*
X151513809Y-80449523D01*
X150942380Y-80449523D01*
X150751904Y-80544761D01*
X150656666Y-80640000D01*
X150561428Y-80830476D01*
X150561428Y-81116190D01*
X150656666Y-81306666D01*
X150751904Y-81401904D01*
X150942380Y-81497142D01*
X151513809Y-81497142D01*
X151704285Y-81401904D01*
X151799523Y-81306666D01*
X151894761Y-81116190D01*
X151894761Y-80830476D01*
X150561428Y-82354285D02*
X152275714Y-82354285D01*
X152466190Y-82259047D01*
X152561428Y-82068571D01*
X152561428Y-81973333D01*
X149894761Y-82354285D02*
X149990000Y-82259047D01*
X150085238Y-82354285D01*
X149990000Y-82449523D01*
X149894761Y-82354285D01*
X150085238Y-82354285D01*
X151799523Y-84068571D02*
X151894761Y-83878095D01*
X151894761Y-83497142D01*
X151799523Y-83306666D01*
X151609047Y-83211428D01*
X150847142Y-83211428D01*
X150656666Y-83306666D01*
X150561428Y-83497142D01*
X150561428Y-83878095D01*
X150656666Y-84068571D01*
X150847142Y-84163809D01*
X151037619Y-84163809D01*
X151228095Y-83211428D01*
X151799523Y-85878095D02*
X151894761Y-85687619D01*
X151894761Y-85306666D01*
X151799523Y-85116190D01*
X151704285Y-85020952D01*
X151513809Y-84925714D01*
X150942380Y-84925714D01*
X150751904Y-85020952D01*
X150656666Y-85116190D01*
X150561428Y-85306666D01*
X150561428Y-85687619D01*
X150656666Y-85878095D01*
X150561428Y-86449523D02*
X150561428Y-87211428D01*
X149894761Y-86735238D02*
X151609047Y-86735238D01*
X151799523Y-86830476D01*
X151894761Y-87020952D01*
X151894761Y-87211428D01*
D12*
G36*
X152080000Y-58960000D02*
G01*
X151700000Y-58960000D01*
X151700000Y-58570000D01*
X152080000Y-58570000D01*
X152080000Y-58960000D01*
G37*
X152080000Y-58960000D02*
X151700000Y-58960000D01*
X151700000Y-58570000D01*
X152080000Y-58570000D01*
X152080000Y-58960000D01*
D13*
X150620000Y-59490000D02*
G75*
G03X150620000Y-59490000I-250000J0D01*
G01*
D12*
G36*
X152080000Y-63220000D02*
G01*
X151700000Y-63220000D01*
X151700000Y-62830000D01*
X152080000Y-62830000D01*
X152080000Y-63220000D01*
G37*
X152080000Y-63220000D02*
X151700000Y-63220000D01*
X151700000Y-62830000D01*
X152080000Y-62830000D01*
X152080000Y-63220000D01*
G36*
X151660000Y-63220000D02*
G01*
X151280000Y-63220000D01*
X151280000Y-62830000D01*
X151660000Y-62830000D01*
X151660000Y-63220000D01*
G37*
X151660000Y-63220000D02*
X151280000Y-63220000D01*
X151280000Y-62830000D01*
X151660000Y-62830000D01*
X151660000Y-63220000D01*
D14*
X154370000Y-60690000D02*
G75*
G03X154370000Y-60690000I-3000000J0D01*
G01*
D12*
G36*
X151700000Y-58570000D02*
G01*
X151320000Y-58570000D01*
X151320000Y-58180000D01*
X151700000Y-58180000D01*
X151700000Y-58570000D01*
G37*
X151700000Y-58570000D02*
X151320000Y-58570000D01*
X151320000Y-58180000D01*
X151700000Y-58180000D01*
X151700000Y-58570000D01*
D13*
X150620000Y-61890000D02*
G75*
G03X150620000Y-61890000I-250000J0D01*
G01*
D12*
G36*
X149260000Y-62050000D02*
G01*
X148880000Y-62050000D01*
X148880000Y-61660000D01*
X149260000Y-61660000D01*
X149260000Y-62050000D01*
G37*
X149260000Y-62050000D02*
X148880000Y-62050000D01*
X148880000Y-61660000D01*
X149260000Y-61660000D01*
X149260000Y-62050000D01*
D15*
X152978121Y-61883186D02*
G75*
G03X152970000Y-59490000I-1008121J1193186D01*
G01*
D12*
G36*
X149640000Y-62440000D02*
G01*
X149260000Y-62440000D01*
X149260000Y-62050000D01*
X149640000Y-62050000D01*
X149640000Y-62440000D01*
G37*
X149640000Y-62440000D02*
X149260000Y-62440000D01*
X149260000Y-62050000D01*
X149640000Y-62050000D01*
X149640000Y-62440000D01*
M02*
