G04 #@! TF.GenerationSoftware,KiCad,Pcbnew,(5.1.0)-1*
G04 #@! TF.CreationDate,2019-11-28T11:04:33+01:00*
G04 #@! TF.ProjectId,main_PCB_3,6d61696e-5f50-4434-925f-332e6b696361,rev?*
G04 #@! TF.SameCoordinates,Original*
G04 #@! TF.FileFunction,Copper,L2,Bot*
G04 #@! TF.FilePolarity,Positive*
%FSLAX46Y46*%
G04 Gerber Fmt 4.6, Leading zero omitted, Abs format (unit mm)*
G04 Created by KiCad (PCBNEW (5.1.0)-1) date 2019-11-28 11:04:33*
%MOMM*%
%LPD*%
G04 APERTURE LIST*
%ADD10C,3.810000*%
%ADD11C,1.778000*%
%ADD12C,1.200000*%
%ADD13C,2.100000*%
%ADD14C,0.800000*%
%ADD15C,0.250000*%
%ADD16C,0.400000*%
G04 APERTURE END LIST*
D10*
X159970000Y-96620000D03*
X142190000Y-96620000D03*
D11*
X140920000Y-82650000D03*
X140920000Y-80110000D03*
X140920000Y-77570000D03*
X140920000Y-75030000D03*
X140920000Y-72490000D03*
X140920000Y-69950000D03*
X140920000Y-67410000D03*
X140920000Y-64870000D03*
X140920000Y-62330000D03*
X140920000Y-59790000D03*
X140920000Y-57250000D03*
X140920000Y-54710000D03*
X161240000Y-54710000D03*
X161240000Y-57250000D03*
X161240000Y-59790000D03*
X161240000Y-62330000D03*
X161240000Y-64870000D03*
X161240000Y-67410000D03*
X161240000Y-69950000D03*
X161240000Y-72490000D03*
X161240000Y-75030000D03*
X161240000Y-77570000D03*
X161240000Y-80110000D03*
X161240000Y-82650000D03*
X161240000Y-85190000D03*
X161240000Y-87730000D03*
X161240000Y-90270000D03*
X161240000Y-92810000D03*
D12*
X176750000Y-75720000D03*
X169130000Y-75720000D03*
X169130000Y-68100000D03*
X176750000Y-68100000D03*
X169130000Y-89040000D03*
X176750000Y-89040000D03*
X176750000Y-81420000D03*
X169130000Y-81420000D03*
D13*
X177000000Y-49000000D03*
X137000000Y-49000000D03*
X137000000Y-98000000D03*
X177000000Y-98000000D03*
D12*
X168540000Y-50000000D03*
X168000000Y-58540000D03*
X174210000Y-73180000D03*
X174210000Y-86500000D03*
X171670000Y-70640000D03*
X171670000Y-73180000D03*
X169130000Y-73180000D03*
X171670000Y-83960000D03*
X171670000Y-86500000D03*
X169130000Y-86500000D03*
D14*
X163500000Y-67410000D03*
X166430000Y-93150000D03*
D12*
X166000000Y-50000000D03*
X174210000Y-83960000D03*
X174210000Y-70640000D03*
X168000000Y-56000000D03*
D15*
X163500000Y-90220000D02*
X166430000Y-93150000D01*
X163500000Y-67410000D02*
X163500000Y-90220000D01*
D16*
X151740000Y-71830000D02*
X140920000Y-82650000D01*
X151740000Y-60490000D02*
X151740000Y-71830000D01*
X159190000Y-53040000D02*
X151740000Y-60490000D01*
X163560000Y-53040000D02*
X159190000Y-53040000D01*
X167810000Y-56000000D02*
X166520000Y-56000000D01*
X166520000Y-56000000D02*
X163560000Y-53040000D01*
M02*
