G04 #@! TF.GenerationSoftware,KiCad,Pcbnew,(5.1.0)-1*
G04 #@! TF.CreationDate,2020-11-19T10:17:46+01:00*
G04 #@! TF.ProjectId,PCB_optical_sensors_2_PMW,5043425f-6f70-4746-9963-616c5f73656e,rev?*
G04 #@! TF.SameCoordinates,Original*
G04 #@! TF.FileFunction,Paste,Top*
G04 #@! TF.FilePolarity,Positive*
%FSLAX46Y46*%
G04 Gerber Fmt 4.6, Leading zero omitted, Abs format (unit mm)*
G04 Created by KiCad (PCBNEW (5.1.0)-1) date 2020-11-19 10:17:46*
%MOMM*%
%LPD*%
G04 APERTURE LIST*
%ADD10R,0.200000X0.800000*%
%ADD11R,0.800000X0.200000*%
%ADD12R,0.600000X0.150000*%
%ADD13C,0.100000*%
%ADD14C,0.950000*%
%ADD15R,0.800000X0.900000*%
%ADD16C,0.875000*%
%ADD17C,2.000000*%
%ADD18C,0.400000*%
G04 APERTURE END LIST*
D10*
X163538000Y-74410000D03*
X163938000Y-74410000D03*
X164338000Y-74410000D03*
X164738000Y-74410000D03*
X165138000Y-74410000D03*
D11*
X165238000Y-73660000D03*
D10*
X165138000Y-72910000D03*
X164738000Y-72910000D03*
X164338000Y-72910000D03*
X163938000Y-72910000D03*
X163538000Y-72910000D03*
D11*
X163438000Y-73660000D03*
D12*
X163338000Y-74085000D03*
D13*
G36*
X161550779Y-74039144D02*
G01*
X161573834Y-74042563D01*
X161596443Y-74048227D01*
X161618387Y-74056079D01*
X161639457Y-74066044D01*
X161659448Y-74078026D01*
X161678168Y-74091910D01*
X161695438Y-74107562D01*
X161711090Y-74124832D01*
X161724974Y-74143552D01*
X161736956Y-74163543D01*
X161746921Y-74184613D01*
X161754773Y-74206557D01*
X161760437Y-74229166D01*
X161763856Y-74252221D01*
X161765000Y-74275500D01*
X161765000Y-74850500D01*
X161763856Y-74873779D01*
X161760437Y-74896834D01*
X161754773Y-74919443D01*
X161746921Y-74941387D01*
X161736956Y-74962457D01*
X161724974Y-74982448D01*
X161711090Y-75001168D01*
X161695438Y-75018438D01*
X161678168Y-75034090D01*
X161659448Y-75047974D01*
X161639457Y-75059956D01*
X161618387Y-75069921D01*
X161596443Y-75077773D01*
X161573834Y-75083437D01*
X161550779Y-75086856D01*
X161527500Y-75088000D01*
X161052500Y-75088000D01*
X161029221Y-75086856D01*
X161006166Y-75083437D01*
X160983557Y-75077773D01*
X160961613Y-75069921D01*
X160940543Y-75059956D01*
X160920552Y-75047974D01*
X160901832Y-75034090D01*
X160884562Y-75018438D01*
X160868910Y-75001168D01*
X160855026Y-74982448D01*
X160843044Y-74962457D01*
X160833079Y-74941387D01*
X160825227Y-74919443D01*
X160819563Y-74896834D01*
X160816144Y-74873779D01*
X160815000Y-74850500D01*
X160815000Y-74275500D01*
X160816144Y-74252221D01*
X160819563Y-74229166D01*
X160825227Y-74206557D01*
X160833079Y-74184613D01*
X160843044Y-74163543D01*
X160855026Y-74143552D01*
X160868910Y-74124832D01*
X160884562Y-74107562D01*
X160901832Y-74091910D01*
X160920552Y-74078026D01*
X160940543Y-74066044D01*
X160961613Y-74056079D01*
X160983557Y-74048227D01*
X161006166Y-74042563D01*
X161029221Y-74039144D01*
X161052500Y-74038000D01*
X161527500Y-74038000D01*
X161550779Y-74039144D01*
X161550779Y-74039144D01*
G37*
D14*
X161290000Y-74563000D03*
D13*
G36*
X161550779Y-75789144D02*
G01*
X161573834Y-75792563D01*
X161596443Y-75798227D01*
X161618387Y-75806079D01*
X161639457Y-75816044D01*
X161659448Y-75828026D01*
X161678168Y-75841910D01*
X161695438Y-75857562D01*
X161711090Y-75874832D01*
X161724974Y-75893552D01*
X161736956Y-75913543D01*
X161746921Y-75934613D01*
X161754773Y-75956557D01*
X161760437Y-75979166D01*
X161763856Y-76002221D01*
X161765000Y-76025500D01*
X161765000Y-76600500D01*
X161763856Y-76623779D01*
X161760437Y-76646834D01*
X161754773Y-76669443D01*
X161746921Y-76691387D01*
X161736956Y-76712457D01*
X161724974Y-76732448D01*
X161711090Y-76751168D01*
X161695438Y-76768438D01*
X161678168Y-76784090D01*
X161659448Y-76797974D01*
X161639457Y-76809956D01*
X161618387Y-76819921D01*
X161596443Y-76827773D01*
X161573834Y-76833437D01*
X161550779Y-76836856D01*
X161527500Y-76838000D01*
X161052500Y-76838000D01*
X161029221Y-76836856D01*
X161006166Y-76833437D01*
X160983557Y-76827773D01*
X160961613Y-76819921D01*
X160940543Y-76809956D01*
X160920552Y-76797974D01*
X160901832Y-76784090D01*
X160884562Y-76768438D01*
X160868910Y-76751168D01*
X160855026Y-76732448D01*
X160843044Y-76712457D01*
X160833079Y-76691387D01*
X160825227Y-76669443D01*
X160819563Y-76646834D01*
X160816144Y-76623779D01*
X160815000Y-76600500D01*
X160815000Y-76025500D01*
X160816144Y-76002221D01*
X160819563Y-75979166D01*
X160825227Y-75956557D01*
X160833079Y-75934613D01*
X160843044Y-75913543D01*
X160855026Y-75893552D01*
X160868910Y-75874832D01*
X160884562Y-75857562D01*
X160901832Y-75841910D01*
X160920552Y-75828026D01*
X160940543Y-75816044D01*
X160961613Y-75806079D01*
X160983557Y-75798227D01*
X161006166Y-75792563D01*
X161029221Y-75789144D01*
X161052500Y-75788000D01*
X161527500Y-75788000D01*
X161550779Y-75789144D01*
X161550779Y-75789144D01*
G37*
D14*
X161290000Y-76313000D03*
D15*
X167640000Y-74200000D03*
X168590000Y-76200000D03*
X166690000Y-76200000D03*
D13*
G36*
X168413691Y-72170053D02*
G01*
X168434926Y-72173203D01*
X168455750Y-72178419D01*
X168475962Y-72185651D01*
X168495368Y-72194830D01*
X168513781Y-72205866D01*
X168531024Y-72218654D01*
X168546930Y-72233070D01*
X168561346Y-72248976D01*
X168574134Y-72266219D01*
X168585170Y-72284632D01*
X168594349Y-72304038D01*
X168601581Y-72324250D01*
X168606797Y-72345074D01*
X168609947Y-72366309D01*
X168611000Y-72387750D01*
X168611000Y-72900250D01*
X168609947Y-72921691D01*
X168606797Y-72942926D01*
X168601581Y-72963750D01*
X168594349Y-72983962D01*
X168585170Y-73003368D01*
X168574134Y-73021781D01*
X168561346Y-73039024D01*
X168546930Y-73054930D01*
X168531024Y-73069346D01*
X168513781Y-73082134D01*
X168495368Y-73093170D01*
X168475962Y-73102349D01*
X168455750Y-73109581D01*
X168434926Y-73114797D01*
X168413691Y-73117947D01*
X168392250Y-73119000D01*
X167954750Y-73119000D01*
X167933309Y-73117947D01*
X167912074Y-73114797D01*
X167891250Y-73109581D01*
X167871038Y-73102349D01*
X167851632Y-73093170D01*
X167833219Y-73082134D01*
X167815976Y-73069346D01*
X167800070Y-73054930D01*
X167785654Y-73039024D01*
X167772866Y-73021781D01*
X167761830Y-73003368D01*
X167752651Y-72983962D01*
X167745419Y-72963750D01*
X167740203Y-72942926D01*
X167737053Y-72921691D01*
X167736000Y-72900250D01*
X167736000Y-72387750D01*
X167737053Y-72366309D01*
X167740203Y-72345074D01*
X167745419Y-72324250D01*
X167752651Y-72304038D01*
X167761830Y-72284632D01*
X167772866Y-72266219D01*
X167785654Y-72248976D01*
X167800070Y-72233070D01*
X167815976Y-72218654D01*
X167833219Y-72205866D01*
X167851632Y-72194830D01*
X167871038Y-72185651D01*
X167891250Y-72178419D01*
X167912074Y-72173203D01*
X167933309Y-72170053D01*
X167954750Y-72169000D01*
X168392250Y-72169000D01*
X168413691Y-72170053D01*
X168413691Y-72170053D01*
G37*
D16*
X168173500Y-72644000D03*
D13*
G36*
X166838691Y-72170053D02*
G01*
X166859926Y-72173203D01*
X166880750Y-72178419D01*
X166900962Y-72185651D01*
X166920368Y-72194830D01*
X166938781Y-72205866D01*
X166956024Y-72218654D01*
X166971930Y-72233070D01*
X166986346Y-72248976D01*
X166999134Y-72266219D01*
X167010170Y-72284632D01*
X167019349Y-72304038D01*
X167026581Y-72324250D01*
X167031797Y-72345074D01*
X167034947Y-72366309D01*
X167036000Y-72387750D01*
X167036000Y-72900250D01*
X167034947Y-72921691D01*
X167031797Y-72942926D01*
X167026581Y-72963750D01*
X167019349Y-72983962D01*
X167010170Y-73003368D01*
X166999134Y-73021781D01*
X166986346Y-73039024D01*
X166971930Y-73054930D01*
X166956024Y-73069346D01*
X166938781Y-73082134D01*
X166920368Y-73093170D01*
X166900962Y-73102349D01*
X166880750Y-73109581D01*
X166859926Y-73114797D01*
X166838691Y-73117947D01*
X166817250Y-73119000D01*
X166379750Y-73119000D01*
X166358309Y-73117947D01*
X166337074Y-73114797D01*
X166316250Y-73109581D01*
X166296038Y-73102349D01*
X166276632Y-73093170D01*
X166258219Y-73082134D01*
X166240976Y-73069346D01*
X166225070Y-73054930D01*
X166210654Y-73039024D01*
X166197866Y-73021781D01*
X166186830Y-73003368D01*
X166177651Y-72983962D01*
X166170419Y-72963750D01*
X166165203Y-72942926D01*
X166162053Y-72921691D01*
X166161000Y-72900250D01*
X166161000Y-72387750D01*
X166162053Y-72366309D01*
X166165203Y-72345074D01*
X166170419Y-72324250D01*
X166177651Y-72304038D01*
X166186830Y-72284632D01*
X166197866Y-72266219D01*
X166210654Y-72248976D01*
X166225070Y-72233070D01*
X166240976Y-72218654D01*
X166258219Y-72205866D01*
X166276632Y-72194830D01*
X166296038Y-72185651D01*
X166316250Y-72178419D01*
X166337074Y-72173203D01*
X166358309Y-72170053D01*
X166379750Y-72169000D01*
X166817250Y-72169000D01*
X166838691Y-72170053D01*
X166838691Y-72170053D01*
G37*
D16*
X166598500Y-72644000D03*
D13*
G36*
X164887009Y-79574408D02*
G01*
X164935545Y-79581607D01*
X164983142Y-79593530D01*
X165029342Y-79610060D01*
X165073698Y-79631039D01*
X165115785Y-79656265D01*
X165155197Y-79685495D01*
X165191553Y-79718447D01*
X165224505Y-79754803D01*
X165253735Y-79794215D01*
X165278961Y-79836302D01*
X165299940Y-79880658D01*
X165316470Y-79926858D01*
X165328393Y-79974455D01*
X165335592Y-80022991D01*
X165338000Y-80072000D01*
X165338000Y-81472000D01*
X165335592Y-81521009D01*
X165328393Y-81569545D01*
X165316470Y-81617142D01*
X165299940Y-81663342D01*
X165278961Y-81707698D01*
X165253735Y-81749785D01*
X165224505Y-81789197D01*
X165191553Y-81825553D01*
X165155197Y-81858505D01*
X165115785Y-81887735D01*
X165073698Y-81912961D01*
X165029342Y-81933940D01*
X164983142Y-81950470D01*
X164935545Y-81962393D01*
X164887009Y-81969592D01*
X164838000Y-81972000D01*
X163838000Y-81972000D01*
X163788991Y-81969592D01*
X163740455Y-81962393D01*
X163692858Y-81950470D01*
X163646658Y-81933940D01*
X163602302Y-81912961D01*
X163560215Y-81887735D01*
X163520803Y-81858505D01*
X163484447Y-81825553D01*
X163451495Y-81789197D01*
X163422265Y-81749785D01*
X163397039Y-81707698D01*
X163376060Y-81663342D01*
X163359530Y-81617142D01*
X163347607Y-81569545D01*
X163340408Y-81521009D01*
X163338000Y-81472000D01*
X163338000Y-80072000D01*
X163340408Y-80022991D01*
X163347607Y-79974455D01*
X163359530Y-79926858D01*
X163376060Y-79880658D01*
X163397039Y-79836302D01*
X163422265Y-79794215D01*
X163451495Y-79754803D01*
X163484447Y-79718447D01*
X163520803Y-79685495D01*
X163560215Y-79656265D01*
X163602302Y-79631039D01*
X163646658Y-79610060D01*
X163692858Y-79593530D01*
X163740455Y-79581607D01*
X163788991Y-79574408D01*
X163838000Y-79572000D01*
X164838000Y-79572000D01*
X164887009Y-79574408D01*
X164887009Y-79574408D01*
G37*
D17*
X164338000Y-80772000D03*
D13*
G36*
X166397802Y-77012482D02*
G01*
X166407509Y-77013921D01*
X166417028Y-77016306D01*
X166426268Y-77019612D01*
X166435140Y-77023808D01*
X166443557Y-77028853D01*
X166451439Y-77034699D01*
X166458711Y-77041289D01*
X166465301Y-77048561D01*
X166471147Y-77056443D01*
X166476192Y-77064860D01*
X166480388Y-77073732D01*
X166483694Y-77082972D01*
X166486079Y-77092491D01*
X166487518Y-77102198D01*
X166488000Y-77112000D01*
X166488000Y-78412000D01*
X166487518Y-78421802D01*
X166486079Y-78431509D01*
X166483694Y-78441028D01*
X166480388Y-78450268D01*
X166476192Y-78459140D01*
X166471147Y-78467557D01*
X166465301Y-78475439D01*
X166458711Y-78482711D01*
X166451439Y-78489301D01*
X166443557Y-78495147D01*
X166435140Y-78500192D01*
X166426268Y-78504388D01*
X166417028Y-78507694D01*
X166407509Y-78510079D01*
X166397802Y-78511518D01*
X166388000Y-78512000D01*
X166188000Y-78512000D01*
X166178198Y-78511518D01*
X166168491Y-78510079D01*
X166158972Y-78507694D01*
X166149732Y-78504388D01*
X166140860Y-78500192D01*
X166132443Y-78495147D01*
X166124561Y-78489301D01*
X166117289Y-78482711D01*
X166110699Y-78475439D01*
X166104853Y-78467557D01*
X166099808Y-78459140D01*
X166095612Y-78450268D01*
X166092306Y-78441028D01*
X166089921Y-78431509D01*
X166088482Y-78421802D01*
X166088000Y-78412000D01*
X166088000Y-77112000D01*
X166088482Y-77102198D01*
X166089921Y-77092491D01*
X166092306Y-77082972D01*
X166095612Y-77073732D01*
X166099808Y-77064860D01*
X166104853Y-77056443D01*
X166110699Y-77048561D01*
X166117289Y-77041289D01*
X166124561Y-77034699D01*
X166132443Y-77028853D01*
X166140860Y-77023808D01*
X166149732Y-77019612D01*
X166158972Y-77016306D01*
X166168491Y-77013921D01*
X166178198Y-77012482D01*
X166188000Y-77012000D01*
X166388000Y-77012000D01*
X166397802Y-77012482D01*
X166397802Y-77012482D01*
G37*
D18*
X166288000Y-77762000D03*
D13*
G36*
X165097802Y-77012482D02*
G01*
X165107509Y-77013921D01*
X165117028Y-77016306D01*
X165126268Y-77019612D01*
X165135140Y-77023808D01*
X165143557Y-77028853D01*
X165151439Y-77034699D01*
X165158711Y-77041289D01*
X165165301Y-77048561D01*
X165171147Y-77056443D01*
X165176192Y-77064860D01*
X165180388Y-77073732D01*
X165183694Y-77082972D01*
X165186079Y-77092491D01*
X165187518Y-77102198D01*
X165188000Y-77112000D01*
X165188000Y-78412000D01*
X165187518Y-78421802D01*
X165186079Y-78431509D01*
X165183694Y-78441028D01*
X165180388Y-78450268D01*
X165176192Y-78459140D01*
X165171147Y-78467557D01*
X165165301Y-78475439D01*
X165158711Y-78482711D01*
X165151439Y-78489301D01*
X165143557Y-78495147D01*
X165135140Y-78500192D01*
X165126268Y-78504388D01*
X165117028Y-78507694D01*
X165107509Y-78510079D01*
X165097802Y-78511518D01*
X165088000Y-78512000D01*
X164888000Y-78512000D01*
X164878198Y-78511518D01*
X164868491Y-78510079D01*
X164858972Y-78507694D01*
X164849732Y-78504388D01*
X164840860Y-78500192D01*
X164832443Y-78495147D01*
X164824561Y-78489301D01*
X164817289Y-78482711D01*
X164810699Y-78475439D01*
X164804853Y-78467557D01*
X164799808Y-78459140D01*
X164795612Y-78450268D01*
X164792306Y-78441028D01*
X164789921Y-78431509D01*
X164788482Y-78421802D01*
X164788000Y-78412000D01*
X164788000Y-77112000D01*
X164788482Y-77102198D01*
X164789921Y-77092491D01*
X164792306Y-77082972D01*
X164795612Y-77073732D01*
X164799808Y-77064860D01*
X164804853Y-77056443D01*
X164810699Y-77048561D01*
X164817289Y-77041289D01*
X164824561Y-77034699D01*
X164832443Y-77028853D01*
X164840860Y-77023808D01*
X164849732Y-77019612D01*
X164858972Y-77016306D01*
X164868491Y-77013921D01*
X164878198Y-77012482D01*
X164888000Y-77012000D01*
X165088000Y-77012000D01*
X165097802Y-77012482D01*
X165097802Y-77012482D01*
G37*
D18*
X164988000Y-77762000D03*
D13*
G36*
X165747802Y-77012482D02*
G01*
X165757509Y-77013921D01*
X165767028Y-77016306D01*
X165776268Y-77019612D01*
X165785140Y-77023808D01*
X165793557Y-77028853D01*
X165801439Y-77034699D01*
X165808711Y-77041289D01*
X165815301Y-77048561D01*
X165821147Y-77056443D01*
X165826192Y-77064860D01*
X165830388Y-77073732D01*
X165833694Y-77082972D01*
X165836079Y-77092491D01*
X165837518Y-77102198D01*
X165838000Y-77112000D01*
X165838000Y-78412000D01*
X165837518Y-78421802D01*
X165836079Y-78431509D01*
X165833694Y-78441028D01*
X165830388Y-78450268D01*
X165826192Y-78459140D01*
X165821147Y-78467557D01*
X165815301Y-78475439D01*
X165808711Y-78482711D01*
X165801439Y-78489301D01*
X165793557Y-78495147D01*
X165785140Y-78500192D01*
X165776268Y-78504388D01*
X165767028Y-78507694D01*
X165757509Y-78510079D01*
X165747802Y-78511518D01*
X165738000Y-78512000D01*
X165538000Y-78512000D01*
X165528198Y-78511518D01*
X165518491Y-78510079D01*
X165508972Y-78507694D01*
X165499732Y-78504388D01*
X165490860Y-78500192D01*
X165482443Y-78495147D01*
X165474561Y-78489301D01*
X165467289Y-78482711D01*
X165460699Y-78475439D01*
X165454853Y-78467557D01*
X165449808Y-78459140D01*
X165445612Y-78450268D01*
X165442306Y-78441028D01*
X165439921Y-78431509D01*
X165438482Y-78421802D01*
X165438000Y-78412000D01*
X165438000Y-77112000D01*
X165438482Y-77102198D01*
X165439921Y-77092491D01*
X165442306Y-77082972D01*
X165445612Y-77073732D01*
X165449808Y-77064860D01*
X165454853Y-77056443D01*
X165460699Y-77048561D01*
X165467289Y-77041289D01*
X165474561Y-77034699D01*
X165482443Y-77028853D01*
X165490860Y-77023808D01*
X165499732Y-77019612D01*
X165508972Y-77016306D01*
X165518491Y-77013921D01*
X165528198Y-77012482D01*
X165538000Y-77012000D01*
X165738000Y-77012000D01*
X165747802Y-77012482D01*
X165747802Y-77012482D01*
G37*
D18*
X165638000Y-77762000D03*
D13*
G36*
X162497802Y-77012482D02*
G01*
X162507509Y-77013921D01*
X162517028Y-77016306D01*
X162526268Y-77019612D01*
X162535140Y-77023808D01*
X162543557Y-77028853D01*
X162551439Y-77034699D01*
X162558711Y-77041289D01*
X162565301Y-77048561D01*
X162571147Y-77056443D01*
X162576192Y-77064860D01*
X162580388Y-77073732D01*
X162583694Y-77082972D01*
X162586079Y-77092491D01*
X162587518Y-77102198D01*
X162588000Y-77112000D01*
X162588000Y-78412000D01*
X162587518Y-78421802D01*
X162586079Y-78431509D01*
X162583694Y-78441028D01*
X162580388Y-78450268D01*
X162576192Y-78459140D01*
X162571147Y-78467557D01*
X162565301Y-78475439D01*
X162558711Y-78482711D01*
X162551439Y-78489301D01*
X162543557Y-78495147D01*
X162535140Y-78500192D01*
X162526268Y-78504388D01*
X162517028Y-78507694D01*
X162507509Y-78510079D01*
X162497802Y-78511518D01*
X162488000Y-78512000D01*
X162288000Y-78512000D01*
X162278198Y-78511518D01*
X162268491Y-78510079D01*
X162258972Y-78507694D01*
X162249732Y-78504388D01*
X162240860Y-78500192D01*
X162232443Y-78495147D01*
X162224561Y-78489301D01*
X162217289Y-78482711D01*
X162210699Y-78475439D01*
X162204853Y-78467557D01*
X162199808Y-78459140D01*
X162195612Y-78450268D01*
X162192306Y-78441028D01*
X162189921Y-78431509D01*
X162188482Y-78421802D01*
X162188000Y-78412000D01*
X162188000Y-77112000D01*
X162188482Y-77102198D01*
X162189921Y-77092491D01*
X162192306Y-77082972D01*
X162195612Y-77073732D01*
X162199808Y-77064860D01*
X162204853Y-77056443D01*
X162210699Y-77048561D01*
X162217289Y-77041289D01*
X162224561Y-77034699D01*
X162232443Y-77028853D01*
X162240860Y-77023808D01*
X162249732Y-77019612D01*
X162258972Y-77016306D01*
X162268491Y-77013921D01*
X162278198Y-77012482D01*
X162288000Y-77012000D01*
X162488000Y-77012000D01*
X162497802Y-77012482D01*
X162497802Y-77012482D01*
G37*
D18*
X162388000Y-77762000D03*
D13*
G36*
X164447802Y-77012482D02*
G01*
X164457509Y-77013921D01*
X164467028Y-77016306D01*
X164476268Y-77019612D01*
X164485140Y-77023808D01*
X164493557Y-77028853D01*
X164501439Y-77034699D01*
X164508711Y-77041289D01*
X164515301Y-77048561D01*
X164521147Y-77056443D01*
X164526192Y-77064860D01*
X164530388Y-77073732D01*
X164533694Y-77082972D01*
X164536079Y-77092491D01*
X164537518Y-77102198D01*
X164538000Y-77112000D01*
X164538000Y-78412000D01*
X164537518Y-78421802D01*
X164536079Y-78431509D01*
X164533694Y-78441028D01*
X164530388Y-78450268D01*
X164526192Y-78459140D01*
X164521147Y-78467557D01*
X164515301Y-78475439D01*
X164508711Y-78482711D01*
X164501439Y-78489301D01*
X164493557Y-78495147D01*
X164485140Y-78500192D01*
X164476268Y-78504388D01*
X164467028Y-78507694D01*
X164457509Y-78510079D01*
X164447802Y-78511518D01*
X164438000Y-78512000D01*
X164238000Y-78512000D01*
X164228198Y-78511518D01*
X164218491Y-78510079D01*
X164208972Y-78507694D01*
X164199732Y-78504388D01*
X164190860Y-78500192D01*
X164182443Y-78495147D01*
X164174561Y-78489301D01*
X164167289Y-78482711D01*
X164160699Y-78475439D01*
X164154853Y-78467557D01*
X164149808Y-78459140D01*
X164145612Y-78450268D01*
X164142306Y-78441028D01*
X164139921Y-78431509D01*
X164138482Y-78421802D01*
X164138000Y-78412000D01*
X164138000Y-77112000D01*
X164138482Y-77102198D01*
X164139921Y-77092491D01*
X164142306Y-77082972D01*
X164145612Y-77073732D01*
X164149808Y-77064860D01*
X164154853Y-77056443D01*
X164160699Y-77048561D01*
X164167289Y-77041289D01*
X164174561Y-77034699D01*
X164182443Y-77028853D01*
X164190860Y-77023808D01*
X164199732Y-77019612D01*
X164208972Y-77016306D01*
X164218491Y-77013921D01*
X164228198Y-77012482D01*
X164238000Y-77012000D01*
X164438000Y-77012000D01*
X164447802Y-77012482D01*
X164447802Y-77012482D01*
G37*
D18*
X164338000Y-77762000D03*
D13*
G36*
X163797802Y-77012482D02*
G01*
X163807509Y-77013921D01*
X163817028Y-77016306D01*
X163826268Y-77019612D01*
X163835140Y-77023808D01*
X163843557Y-77028853D01*
X163851439Y-77034699D01*
X163858711Y-77041289D01*
X163865301Y-77048561D01*
X163871147Y-77056443D01*
X163876192Y-77064860D01*
X163880388Y-77073732D01*
X163883694Y-77082972D01*
X163886079Y-77092491D01*
X163887518Y-77102198D01*
X163888000Y-77112000D01*
X163888000Y-78412000D01*
X163887518Y-78421802D01*
X163886079Y-78431509D01*
X163883694Y-78441028D01*
X163880388Y-78450268D01*
X163876192Y-78459140D01*
X163871147Y-78467557D01*
X163865301Y-78475439D01*
X163858711Y-78482711D01*
X163851439Y-78489301D01*
X163843557Y-78495147D01*
X163835140Y-78500192D01*
X163826268Y-78504388D01*
X163817028Y-78507694D01*
X163807509Y-78510079D01*
X163797802Y-78511518D01*
X163788000Y-78512000D01*
X163588000Y-78512000D01*
X163578198Y-78511518D01*
X163568491Y-78510079D01*
X163558972Y-78507694D01*
X163549732Y-78504388D01*
X163540860Y-78500192D01*
X163532443Y-78495147D01*
X163524561Y-78489301D01*
X163517289Y-78482711D01*
X163510699Y-78475439D01*
X163504853Y-78467557D01*
X163499808Y-78459140D01*
X163495612Y-78450268D01*
X163492306Y-78441028D01*
X163489921Y-78431509D01*
X163488482Y-78421802D01*
X163488000Y-78412000D01*
X163488000Y-77112000D01*
X163488482Y-77102198D01*
X163489921Y-77092491D01*
X163492306Y-77082972D01*
X163495612Y-77073732D01*
X163499808Y-77064860D01*
X163504853Y-77056443D01*
X163510699Y-77048561D01*
X163517289Y-77041289D01*
X163524561Y-77034699D01*
X163532443Y-77028853D01*
X163540860Y-77023808D01*
X163549732Y-77019612D01*
X163558972Y-77016306D01*
X163568491Y-77013921D01*
X163578198Y-77012482D01*
X163588000Y-77012000D01*
X163788000Y-77012000D01*
X163797802Y-77012482D01*
X163797802Y-77012482D01*
G37*
D18*
X163688000Y-77762000D03*
D13*
G36*
X163147802Y-77012482D02*
G01*
X163157509Y-77013921D01*
X163167028Y-77016306D01*
X163176268Y-77019612D01*
X163185140Y-77023808D01*
X163193557Y-77028853D01*
X163201439Y-77034699D01*
X163208711Y-77041289D01*
X163215301Y-77048561D01*
X163221147Y-77056443D01*
X163226192Y-77064860D01*
X163230388Y-77073732D01*
X163233694Y-77082972D01*
X163236079Y-77092491D01*
X163237518Y-77102198D01*
X163238000Y-77112000D01*
X163238000Y-78412000D01*
X163237518Y-78421802D01*
X163236079Y-78431509D01*
X163233694Y-78441028D01*
X163230388Y-78450268D01*
X163226192Y-78459140D01*
X163221147Y-78467557D01*
X163215301Y-78475439D01*
X163208711Y-78482711D01*
X163201439Y-78489301D01*
X163193557Y-78495147D01*
X163185140Y-78500192D01*
X163176268Y-78504388D01*
X163167028Y-78507694D01*
X163157509Y-78510079D01*
X163147802Y-78511518D01*
X163138000Y-78512000D01*
X162938000Y-78512000D01*
X162928198Y-78511518D01*
X162918491Y-78510079D01*
X162908972Y-78507694D01*
X162899732Y-78504388D01*
X162890860Y-78500192D01*
X162882443Y-78495147D01*
X162874561Y-78489301D01*
X162867289Y-78482711D01*
X162860699Y-78475439D01*
X162854853Y-78467557D01*
X162849808Y-78459140D01*
X162845612Y-78450268D01*
X162842306Y-78441028D01*
X162839921Y-78431509D01*
X162838482Y-78421802D01*
X162838000Y-78412000D01*
X162838000Y-77112000D01*
X162838482Y-77102198D01*
X162839921Y-77092491D01*
X162842306Y-77082972D01*
X162845612Y-77073732D01*
X162849808Y-77064860D01*
X162854853Y-77056443D01*
X162860699Y-77048561D01*
X162867289Y-77041289D01*
X162874561Y-77034699D01*
X162882443Y-77028853D01*
X162890860Y-77023808D01*
X162899732Y-77019612D01*
X162908972Y-77016306D01*
X162918491Y-77013921D01*
X162928198Y-77012482D01*
X162938000Y-77012000D01*
X163138000Y-77012000D01*
X163147802Y-77012482D01*
X163147802Y-77012482D01*
G37*
D18*
X163038000Y-77762000D03*
D13*
G36*
X166397802Y-83032482D02*
G01*
X166407509Y-83033921D01*
X166417028Y-83036306D01*
X166426268Y-83039612D01*
X166435140Y-83043808D01*
X166443557Y-83048853D01*
X166451439Y-83054699D01*
X166458711Y-83061289D01*
X166465301Y-83068561D01*
X166471147Y-83076443D01*
X166476192Y-83084860D01*
X166480388Y-83093732D01*
X166483694Y-83102972D01*
X166486079Y-83112491D01*
X166487518Y-83122198D01*
X166488000Y-83132000D01*
X166488000Y-84432000D01*
X166487518Y-84441802D01*
X166486079Y-84451509D01*
X166483694Y-84461028D01*
X166480388Y-84470268D01*
X166476192Y-84479140D01*
X166471147Y-84487557D01*
X166465301Y-84495439D01*
X166458711Y-84502711D01*
X166451439Y-84509301D01*
X166443557Y-84515147D01*
X166435140Y-84520192D01*
X166426268Y-84524388D01*
X166417028Y-84527694D01*
X166407509Y-84530079D01*
X166397802Y-84531518D01*
X166388000Y-84532000D01*
X166188000Y-84532000D01*
X166178198Y-84531518D01*
X166168491Y-84530079D01*
X166158972Y-84527694D01*
X166149732Y-84524388D01*
X166140860Y-84520192D01*
X166132443Y-84515147D01*
X166124561Y-84509301D01*
X166117289Y-84502711D01*
X166110699Y-84495439D01*
X166104853Y-84487557D01*
X166099808Y-84479140D01*
X166095612Y-84470268D01*
X166092306Y-84461028D01*
X166089921Y-84451509D01*
X166088482Y-84441802D01*
X166088000Y-84432000D01*
X166088000Y-83132000D01*
X166088482Y-83122198D01*
X166089921Y-83112491D01*
X166092306Y-83102972D01*
X166095612Y-83093732D01*
X166099808Y-83084860D01*
X166104853Y-83076443D01*
X166110699Y-83068561D01*
X166117289Y-83061289D01*
X166124561Y-83054699D01*
X166132443Y-83048853D01*
X166140860Y-83043808D01*
X166149732Y-83039612D01*
X166158972Y-83036306D01*
X166168491Y-83033921D01*
X166178198Y-83032482D01*
X166188000Y-83032000D01*
X166388000Y-83032000D01*
X166397802Y-83032482D01*
X166397802Y-83032482D01*
G37*
D18*
X166288000Y-83782000D03*
D13*
G36*
X165747802Y-83032482D02*
G01*
X165757509Y-83033921D01*
X165767028Y-83036306D01*
X165776268Y-83039612D01*
X165785140Y-83043808D01*
X165793557Y-83048853D01*
X165801439Y-83054699D01*
X165808711Y-83061289D01*
X165815301Y-83068561D01*
X165821147Y-83076443D01*
X165826192Y-83084860D01*
X165830388Y-83093732D01*
X165833694Y-83102972D01*
X165836079Y-83112491D01*
X165837518Y-83122198D01*
X165838000Y-83132000D01*
X165838000Y-84432000D01*
X165837518Y-84441802D01*
X165836079Y-84451509D01*
X165833694Y-84461028D01*
X165830388Y-84470268D01*
X165826192Y-84479140D01*
X165821147Y-84487557D01*
X165815301Y-84495439D01*
X165808711Y-84502711D01*
X165801439Y-84509301D01*
X165793557Y-84515147D01*
X165785140Y-84520192D01*
X165776268Y-84524388D01*
X165767028Y-84527694D01*
X165757509Y-84530079D01*
X165747802Y-84531518D01*
X165738000Y-84532000D01*
X165538000Y-84532000D01*
X165528198Y-84531518D01*
X165518491Y-84530079D01*
X165508972Y-84527694D01*
X165499732Y-84524388D01*
X165490860Y-84520192D01*
X165482443Y-84515147D01*
X165474561Y-84509301D01*
X165467289Y-84502711D01*
X165460699Y-84495439D01*
X165454853Y-84487557D01*
X165449808Y-84479140D01*
X165445612Y-84470268D01*
X165442306Y-84461028D01*
X165439921Y-84451509D01*
X165438482Y-84441802D01*
X165438000Y-84432000D01*
X165438000Y-83132000D01*
X165438482Y-83122198D01*
X165439921Y-83112491D01*
X165442306Y-83102972D01*
X165445612Y-83093732D01*
X165449808Y-83084860D01*
X165454853Y-83076443D01*
X165460699Y-83068561D01*
X165467289Y-83061289D01*
X165474561Y-83054699D01*
X165482443Y-83048853D01*
X165490860Y-83043808D01*
X165499732Y-83039612D01*
X165508972Y-83036306D01*
X165518491Y-83033921D01*
X165528198Y-83032482D01*
X165538000Y-83032000D01*
X165738000Y-83032000D01*
X165747802Y-83032482D01*
X165747802Y-83032482D01*
G37*
D18*
X165638000Y-83782000D03*
D13*
G36*
X165097802Y-83032482D02*
G01*
X165107509Y-83033921D01*
X165117028Y-83036306D01*
X165126268Y-83039612D01*
X165135140Y-83043808D01*
X165143557Y-83048853D01*
X165151439Y-83054699D01*
X165158711Y-83061289D01*
X165165301Y-83068561D01*
X165171147Y-83076443D01*
X165176192Y-83084860D01*
X165180388Y-83093732D01*
X165183694Y-83102972D01*
X165186079Y-83112491D01*
X165187518Y-83122198D01*
X165188000Y-83132000D01*
X165188000Y-84432000D01*
X165187518Y-84441802D01*
X165186079Y-84451509D01*
X165183694Y-84461028D01*
X165180388Y-84470268D01*
X165176192Y-84479140D01*
X165171147Y-84487557D01*
X165165301Y-84495439D01*
X165158711Y-84502711D01*
X165151439Y-84509301D01*
X165143557Y-84515147D01*
X165135140Y-84520192D01*
X165126268Y-84524388D01*
X165117028Y-84527694D01*
X165107509Y-84530079D01*
X165097802Y-84531518D01*
X165088000Y-84532000D01*
X164888000Y-84532000D01*
X164878198Y-84531518D01*
X164868491Y-84530079D01*
X164858972Y-84527694D01*
X164849732Y-84524388D01*
X164840860Y-84520192D01*
X164832443Y-84515147D01*
X164824561Y-84509301D01*
X164817289Y-84502711D01*
X164810699Y-84495439D01*
X164804853Y-84487557D01*
X164799808Y-84479140D01*
X164795612Y-84470268D01*
X164792306Y-84461028D01*
X164789921Y-84451509D01*
X164788482Y-84441802D01*
X164788000Y-84432000D01*
X164788000Y-83132000D01*
X164788482Y-83122198D01*
X164789921Y-83112491D01*
X164792306Y-83102972D01*
X164795612Y-83093732D01*
X164799808Y-83084860D01*
X164804853Y-83076443D01*
X164810699Y-83068561D01*
X164817289Y-83061289D01*
X164824561Y-83054699D01*
X164832443Y-83048853D01*
X164840860Y-83043808D01*
X164849732Y-83039612D01*
X164858972Y-83036306D01*
X164868491Y-83033921D01*
X164878198Y-83032482D01*
X164888000Y-83032000D01*
X165088000Y-83032000D01*
X165097802Y-83032482D01*
X165097802Y-83032482D01*
G37*
D18*
X164988000Y-83782000D03*
D13*
G36*
X162497802Y-83032482D02*
G01*
X162507509Y-83033921D01*
X162517028Y-83036306D01*
X162526268Y-83039612D01*
X162535140Y-83043808D01*
X162543557Y-83048853D01*
X162551439Y-83054699D01*
X162558711Y-83061289D01*
X162565301Y-83068561D01*
X162571147Y-83076443D01*
X162576192Y-83084860D01*
X162580388Y-83093732D01*
X162583694Y-83102972D01*
X162586079Y-83112491D01*
X162587518Y-83122198D01*
X162588000Y-83132000D01*
X162588000Y-84432000D01*
X162587518Y-84441802D01*
X162586079Y-84451509D01*
X162583694Y-84461028D01*
X162580388Y-84470268D01*
X162576192Y-84479140D01*
X162571147Y-84487557D01*
X162565301Y-84495439D01*
X162558711Y-84502711D01*
X162551439Y-84509301D01*
X162543557Y-84515147D01*
X162535140Y-84520192D01*
X162526268Y-84524388D01*
X162517028Y-84527694D01*
X162507509Y-84530079D01*
X162497802Y-84531518D01*
X162488000Y-84532000D01*
X162288000Y-84532000D01*
X162278198Y-84531518D01*
X162268491Y-84530079D01*
X162258972Y-84527694D01*
X162249732Y-84524388D01*
X162240860Y-84520192D01*
X162232443Y-84515147D01*
X162224561Y-84509301D01*
X162217289Y-84502711D01*
X162210699Y-84495439D01*
X162204853Y-84487557D01*
X162199808Y-84479140D01*
X162195612Y-84470268D01*
X162192306Y-84461028D01*
X162189921Y-84451509D01*
X162188482Y-84441802D01*
X162188000Y-84432000D01*
X162188000Y-83132000D01*
X162188482Y-83122198D01*
X162189921Y-83112491D01*
X162192306Y-83102972D01*
X162195612Y-83093732D01*
X162199808Y-83084860D01*
X162204853Y-83076443D01*
X162210699Y-83068561D01*
X162217289Y-83061289D01*
X162224561Y-83054699D01*
X162232443Y-83048853D01*
X162240860Y-83043808D01*
X162249732Y-83039612D01*
X162258972Y-83036306D01*
X162268491Y-83033921D01*
X162278198Y-83032482D01*
X162288000Y-83032000D01*
X162488000Y-83032000D01*
X162497802Y-83032482D01*
X162497802Y-83032482D01*
G37*
D18*
X162388000Y-83782000D03*
D13*
G36*
X164447802Y-83032482D02*
G01*
X164457509Y-83033921D01*
X164467028Y-83036306D01*
X164476268Y-83039612D01*
X164485140Y-83043808D01*
X164493557Y-83048853D01*
X164501439Y-83054699D01*
X164508711Y-83061289D01*
X164515301Y-83068561D01*
X164521147Y-83076443D01*
X164526192Y-83084860D01*
X164530388Y-83093732D01*
X164533694Y-83102972D01*
X164536079Y-83112491D01*
X164537518Y-83122198D01*
X164538000Y-83132000D01*
X164538000Y-84432000D01*
X164537518Y-84441802D01*
X164536079Y-84451509D01*
X164533694Y-84461028D01*
X164530388Y-84470268D01*
X164526192Y-84479140D01*
X164521147Y-84487557D01*
X164515301Y-84495439D01*
X164508711Y-84502711D01*
X164501439Y-84509301D01*
X164493557Y-84515147D01*
X164485140Y-84520192D01*
X164476268Y-84524388D01*
X164467028Y-84527694D01*
X164457509Y-84530079D01*
X164447802Y-84531518D01*
X164438000Y-84532000D01*
X164238000Y-84532000D01*
X164228198Y-84531518D01*
X164218491Y-84530079D01*
X164208972Y-84527694D01*
X164199732Y-84524388D01*
X164190860Y-84520192D01*
X164182443Y-84515147D01*
X164174561Y-84509301D01*
X164167289Y-84502711D01*
X164160699Y-84495439D01*
X164154853Y-84487557D01*
X164149808Y-84479140D01*
X164145612Y-84470268D01*
X164142306Y-84461028D01*
X164139921Y-84451509D01*
X164138482Y-84441802D01*
X164138000Y-84432000D01*
X164138000Y-83132000D01*
X164138482Y-83122198D01*
X164139921Y-83112491D01*
X164142306Y-83102972D01*
X164145612Y-83093732D01*
X164149808Y-83084860D01*
X164154853Y-83076443D01*
X164160699Y-83068561D01*
X164167289Y-83061289D01*
X164174561Y-83054699D01*
X164182443Y-83048853D01*
X164190860Y-83043808D01*
X164199732Y-83039612D01*
X164208972Y-83036306D01*
X164218491Y-83033921D01*
X164228198Y-83032482D01*
X164238000Y-83032000D01*
X164438000Y-83032000D01*
X164447802Y-83032482D01*
X164447802Y-83032482D01*
G37*
D18*
X164338000Y-83782000D03*
D13*
G36*
X163797802Y-83032482D02*
G01*
X163807509Y-83033921D01*
X163817028Y-83036306D01*
X163826268Y-83039612D01*
X163835140Y-83043808D01*
X163843557Y-83048853D01*
X163851439Y-83054699D01*
X163858711Y-83061289D01*
X163865301Y-83068561D01*
X163871147Y-83076443D01*
X163876192Y-83084860D01*
X163880388Y-83093732D01*
X163883694Y-83102972D01*
X163886079Y-83112491D01*
X163887518Y-83122198D01*
X163888000Y-83132000D01*
X163888000Y-84432000D01*
X163887518Y-84441802D01*
X163886079Y-84451509D01*
X163883694Y-84461028D01*
X163880388Y-84470268D01*
X163876192Y-84479140D01*
X163871147Y-84487557D01*
X163865301Y-84495439D01*
X163858711Y-84502711D01*
X163851439Y-84509301D01*
X163843557Y-84515147D01*
X163835140Y-84520192D01*
X163826268Y-84524388D01*
X163817028Y-84527694D01*
X163807509Y-84530079D01*
X163797802Y-84531518D01*
X163788000Y-84532000D01*
X163588000Y-84532000D01*
X163578198Y-84531518D01*
X163568491Y-84530079D01*
X163558972Y-84527694D01*
X163549732Y-84524388D01*
X163540860Y-84520192D01*
X163532443Y-84515147D01*
X163524561Y-84509301D01*
X163517289Y-84502711D01*
X163510699Y-84495439D01*
X163504853Y-84487557D01*
X163499808Y-84479140D01*
X163495612Y-84470268D01*
X163492306Y-84461028D01*
X163489921Y-84451509D01*
X163488482Y-84441802D01*
X163488000Y-84432000D01*
X163488000Y-83132000D01*
X163488482Y-83122198D01*
X163489921Y-83112491D01*
X163492306Y-83102972D01*
X163495612Y-83093732D01*
X163499808Y-83084860D01*
X163504853Y-83076443D01*
X163510699Y-83068561D01*
X163517289Y-83061289D01*
X163524561Y-83054699D01*
X163532443Y-83048853D01*
X163540860Y-83043808D01*
X163549732Y-83039612D01*
X163558972Y-83036306D01*
X163568491Y-83033921D01*
X163578198Y-83032482D01*
X163588000Y-83032000D01*
X163788000Y-83032000D01*
X163797802Y-83032482D01*
X163797802Y-83032482D01*
G37*
D18*
X163688000Y-83782000D03*
D13*
G36*
X163147802Y-83032482D02*
G01*
X163157509Y-83033921D01*
X163167028Y-83036306D01*
X163176268Y-83039612D01*
X163185140Y-83043808D01*
X163193557Y-83048853D01*
X163201439Y-83054699D01*
X163208711Y-83061289D01*
X163215301Y-83068561D01*
X163221147Y-83076443D01*
X163226192Y-83084860D01*
X163230388Y-83093732D01*
X163233694Y-83102972D01*
X163236079Y-83112491D01*
X163237518Y-83122198D01*
X163238000Y-83132000D01*
X163238000Y-84432000D01*
X163237518Y-84441802D01*
X163236079Y-84451509D01*
X163233694Y-84461028D01*
X163230388Y-84470268D01*
X163226192Y-84479140D01*
X163221147Y-84487557D01*
X163215301Y-84495439D01*
X163208711Y-84502711D01*
X163201439Y-84509301D01*
X163193557Y-84515147D01*
X163185140Y-84520192D01*
X163176268Y-84524388D01*
X163167028Y-84527694D01*
X163157509Y-84530079D01*
X163147802Y-84531518D01*
X163138000Y-84532000D01*
X162938000Y-84532000D01*
X162928198Y-84531518D01*
X162918491Y-84530079D01*
X162908972Y-84527694D01*
X162899732Y-84524388D01*
X162890860Y-84520192D01*
X162882443Y-84515147D01*
X162874561Y-84509301D01*
X162867289Y-84502711D01*
X162860699Y-84495439D01*
X162854853Y-84487557D01*
X162849808Y-84479140D01*
X162845612Y-84470268D01*
X162842306Y-84461028D01*
X162839921Y-84451509D01*
X162838482Y-84441802D01*
X162838000Y-84432000D01*
X162838000Y-83132000D01*
X162838482Y-83122198D01*
X162839921Y-83112491D01*
X162842306Y-83102972D01*
X162845612Y-83093732D01*
X162849808Y-83084860D01*
X162854853Y-83076443D01*
X162860699Y-83068561D01*
X162867289Y-83061289D01*
X162874561Y-83054699D01*
X162882443Y-83048853D01*
X162890860Y-83043808D01*
X162899732Y-83039612D01*
X162908972Y-83036306D01*
X162918491Y-83033921D01*
X162928198Y-83032482D01*
X162938000Y-83032000D01*
X163138000Y-83032000D01*
X163147802Y-83032482D01*
X163147802Y-83032482D01*
G37*
D18*
X163038000Y-83782000D03*
D13*
G36*
X168007802Y-79272482D02*
G01*
X168017509Y-79273921D01*
X168027028Y-79276306D01*
X168036268Y-79279612D01*
X168045140Y-79283808D01*
X168053557Y-79288853D01*
X168061439Y-79294699D01*
X168068711Y-79301289D01*
X168075301Y-79308561D01*
X168081147Y-79316443D01*
X168086192Y-79324860D01*
X168090388Y-79333732D01*
X168093694Y-79342972D01*
X168096079Y-79352491D01*
X168097518Y-79362198D01*
X168098000Y-79372000D01*
X168098000Y-79572000D01*
X168097518Y-79581802D01*
X168096079Y-79591509D01*
X168093694Y-79601028D01*
X168090388Y-79610268D01*
X168086192Y-79619140D01*
X168081147Y-79627557D01*
X168075301Y-79635439D01*
X168068711Y-79642711D01*
X168061439Y-79649301D01*
X168053557Y-79655147D01*
X168045140Y-79660192D01*
X168036268Y-79664388D01*
X168027028Y-79667694D01*
X168017509Y-79670079D01*
X168007802Y-79671518D01*
X167998000Y-79672000D01*
X166698000Y-79672000D01*
X166688198Y-79671518D01*
X166678491Y-79670079D01*
X166668972Y-79667694D01*
X166659732Y-79664388D01*
X166650860Y-79660192D01*
X166642443Y-79655147D01*
X166634561Y-79649301D01*
X166627289Y-79642711D01*
X166620699Y-79635439D01*
X166614853Y-79627557D01*
X166609808Y-79619140D01*
X166605612Y-79610268D01*
X166602306Y-79601028D01*
X166599921Y-79591509D01*
X166598482Y-79581802D01*
X166598000Y-79572000D01*
X166598000Y-79372000D01*
X166598482Y-79362198D01*
X166599921Y-79352491D01*
X166602306Y-79342972D01*
X166605612Y-79333732D01*
X166609808Y-79324860D01*
X166614853Y-79316443D01*
X166620699Y-79308561D01*
X166627289Y-79301289D01*
X166634561Y-79294699D01*
X166642443Y-79288853D01*
X166650860Y-79283808D01*
X166659732Y-79279612D01*
X166668972Y-79276306D01*
X166678491Y-79273921D01*
X166688198Y-79272482D01*
X166698000Y-79272000D01*
X167998000Y-79272000D01*
X168007802Y-79272482D01*
X168007802Y-79272482D01*
G37*
D18*
X167348000Y-79472000D03*
D13*
G36*
X168007802Y-81222482D02*
G01*
X168017509Y-81223921D01*
X168027028Y-81226306D01*
X168036268Y-81229612D01*
X168045140Y-81233808D01*
X168053557Y-81238853D01*
X168061439Y-81244699D01*
X168068711Y-81251289D01*
X168075301Y-81258561D01*
X168081147Y-81266443D01*
X168086192Y-81274860D01*
X168090388Y-81283732D01*
X168093694Y-81292972D01*
X168096079Y-81302491D01*
X168097518Y-81312198D01*
X168098000Y-81322000D01*
X168098000Y-81522000D01*
X168097518Y-81531802D01*
X168096079Y-81541509D01*
X168093694Y-81551028D01*
X168090388Y-81560268D01*
X168086192Y-81569140D01*
X168081147Y-81577557D01*
X168075301Y-81585439D01*
X168068711Y-81592711D01*
X168061439Y-81599301D01*
X168053557Y-81605147D01*
X168045140Y-81610192D01*
X168036268Y-81614388D01*
X168027028Y-81617694D01*
X168017509Y-81620079D01*
X168007802Y-81621518D01*
X167998000Y-81622000D01*
X166698000Y-81622000D01*
X166688198Y-81621518D01*
X166678491Y-81620079D01*
X166668972Y-81617694D01*
X166659732Y-81614388D01*
X166650860Y-81610192D01*
X166642443Y-81605147D01*
X166634561Y-81599301D01*
X166627289Y-81592711D01*
X166620699Y-81585439D01*
X166614853Y-81577557D01*
X166609808Y-81569140D01*
X166605612Y-81560268D01*
X166602306Y-81551028D01*
X166599921Y-81541509D01*
X166598482Y-81531802D01*
X166598000Y-81522000D01*
X166598000Y-81322000D01*
X166598482Y-81312198D01*
X166599921Y-81302491D01*
X166602306Y-81292972D01*
X166605612Y-81283732D01*
X166609808Y-81274860D01*
X166614853Y-81266443D01*
X166620699Y-81258561D01*
X166627289Y-81251289D01*
X166634561Y-81244699D01*
X166642443Y-81238853D01*
X166650860Y-81233808D01*
X166659732Y-81229612D01*
X166668972Y-81226306D01*
X166678491Y-81223921D01*
X166688198Y-81222482D01*
X166698000Y-81222000D01*
X167998000Y-81222000D01*
X168007802Y-81222482D01*
X168007802Y-81222482D01*
G37*
D18*
X167348000Y-81422000D03*
D13*
G36*
X168007802Y-82522482D02*
G01*
X168017509Y-82523921D01*
X168027028Y-82526306D01*
X168036268Y-82529612D01*
X168045140Y-82533808D01*
X168053557Y-82538853D01*
X168061439Y-82544699D01*
X168068711Y-82551289D01*
X168075301Y-82558561D01*
X168081147Y-82566443D01*
X168086192Y-82574860D01*
X168090388Y-82583732D01*
X168093694Y-82592972D01*
X168096079Y-82602491D01*
X168097518Y-82612198D01*
X168098000Y-82622000D01*
X168098000Y-82822000D01*
X168097518Y-82831802D01*
X168096079Y-82841509D01*
X168093694Y-82851028D01*
X168090388Y-82860268D01*
X168086192Y-82869140D01*
X168081147Y-82877557D01*
X168075301Y-82885439D01*
X168068711Y-82892711D01*
X168061439Y-82899301D01*
X168053557Y-82905147D01*
X168045140Y-82910192D01*
X168036268Y-82914388D01*
X168027028Y-82917694D01*
X168017509Y-82920079D01*
X168007802Y-82921518D01*
X167998000Y-82922000D01*
X166698000Y-82922000D01*
X166688198Y-82921518D01*
X166678491Y-82920079D01*
X166668972Y-82917694D01*
X166659732Y-82914388D01*
X166650860Y-82910192D01*
X166642443Y-82905147D01*
X166634561Y-82899301D01*
X166627289Y-82892711D01*
X166620699Y-82885439D01*
X166614853Y-82877557D01*
X166609808Y-82869140D01*
X166605612Y-82860268D01*
X166602306Y-82851028D01*
X166599921Y-82841509D01*
X166598482Y-82831802D01*
X166598000Y-82822000D01*
X166598000Y-82622000D01*
X166598482Y-82612198D01*
X166599921Y-82602491D01*
X166602306Y-82592972D01*
X166605612Y-82583732D01*
X166609808Y-82574860D01*
X166614853Y-82566443D01*
X166620699Y-82558561D01*
X166627289Y-82551289D01*
X166634561Y-82544699D01*
X166642443Y-82538853D01*
X166650860Y-82533808D01*
X166659732Y-82529612D01*
X166668972Y-82526306D01*
X166678491Y-82523921D01*
X166688198Y-82522482D01*
X166698000Y-82522000D01*
X167998000Y-82522000D01*
X168007802Y-82522482D01*
X168007802Y-82522482D01*
G37*
D18*
X167348000Y-82722000D03*
D13*
G36*
X168007802Y-80572482D02*
G01*
X168017509Y-80573921D01*
X168027028Y-80576306D01*
X168036268Y-80579612D01*
X168045140Y-80583808D01*
X168053557Y-80588853D01*
X168061439Y-80594699D01*
X168068711Y-80601289D01*
X168075301Y-80608561D01*
X168081147Y-80616443D01*
X168086192Y-80624860D01*
X168090388Y-80633732D01*
X168093694Y-80642972D01*
X168096079Y-80652491D01*
X168097518Y-80662198D01*
X168098000Y-80672000D01*
X168098000Y-80872000D01*
X168097518Y-80881802D01*
X168096079Y-80891509D01*
X168093694Y-80901028D01*
X168090388Y-80910268D01*
X168086192Y-80919140D01*
X168081147Y-80927557D01*
X168075301Y-80935439D01*
X168068711Y-80942711D01*
X168061439Y-80949301D01*
X168053557Y-80955147D01*
X168045140Y-80960192D01*
X168036268Y-80964388D01*
X168027028Y-80967694D01*
X168017509Y-80970079D01*
X168007802Y-80971518D01*
X167998000Y-80972000D01*
X166698000Y-80972000D01*
X166688198Y-80971518D01*
X166678491Y-80970079D01*
X166668972Y-80967694D01*
X166659732Y-80964388D01*
X166650860Y-80960192D01*
X166642443Y-80955147D01*
X166634561Y-80949301D01*
X166627289Y-80942711D01*
X166620699Y-80935439D01*
X166614853Y-80927557D01*
X166609808Y-80919140D01*
X166605612Y-80910268D01*
X166602306Y-80901028D01*
X166599921Y-80891509D01*
X166598482Y-80881802D01*
X166598000Y-80872000D01*
X166598000Y-80672000D01*
X166598482Y-80662198D01*
X166599921Y-80652491D01*
X166602306Y-80642972D01*
X166605612Y-80633732D01*
X166609808Y-80624860D01*
X166614853Y-80616443D01*
X166620699Y-80608561D01*
X166627289Y-80601289D01*
X166634561Y-80594699D01*
X166642443Y-80588853D01*
X166650860Y-80583808D01*
X166659732Y-80579612D01*
X166668972Y-80576306D01*
X166678491Y-80573921D01*
X166688198Y-80572482D01*
X166698000Y-80572000D01*
X167998000Y-80572000D01*
X168007802Y-80572482D01*
X168007802Y-80572482D01*
G37*
D18*
X167348000Y-80772000D03*
D13*
G36*
X168007802Y-81872482D02*
G01*
X168017509Y-81873921D01*
X168027028Y-81876306D01*
X168036268Y-81879612D01*
X168045140Y-81883808D01*
X168053557Y-81888853D01*
X168061439Y-81894699D01*
X168068711Y-81901289D01*
X168075301Y-81908561D01*
X168081147Y-81916443D01*
X168086192Y-81924860D01*
X168090388Y-81933732D01*
X168093694Y-81942972D01*
X168096079Y-81952491D01*
X168097518Y-81962198D01*
X168098000Y-81972000D01*
X168098000Y-82172000D01*
X168097518Y-82181802D01*
X168096079Y-82191509D01*
X168093694Y-82201028D01*
X168090388Y-82210268D01*
X168086192Y-82219140D01*
X168081147Y-82227557D01*
X168075301Y-82235439D01*
X168068711Y-82242711D01*
X168061439Y-82249301D01*
X168053557Y-82255147D01*
X168045140Y-82260192D01*
X168036268Y-82264388D01*
X168027028Y-82267694D01*
X168017509Y-82270079D01*
X168007802Y-82271518D01*
X167998000Y-82272000D01*
X166698000Y-82272000D01*
X166688198Y-82271518D01*
X166678491Y-82270079D01*
X166668972Y-82267694D01*
X166659732Y-82264388D01*
X166650860Y-82260192D01*
X166642443Y-82255147D01*
X166634561Y-82249301D01*
X166627289Y-82242711D01*
X166620699Y-82235439D01*
X166614853Y-82227557D01*
X166609808Y-82219140D01*
X166605612Y-82210268D01*
X166602306Y-82201028D01*
X166599921Y-82191509D01*
X166598482Y-82181802D01*
X166598000Y-82172000D01*
X166598000Y-81972000D01*
X166598482Y-81962198D01*
X166599921Y-81952491D01*
X166602306Y-81942972D01*
X166605612Y-81933732D01*
X166609808Y-81924860D01*
X166614853Y-81916443D01*
X166620699Y-81908561D01*
X166627289Y-81901289D01*
X166634561Y-81894699D01*
X166642443Y-81888853D01*
X166650860Y-81883808D01*
X166659732Y-81879612D01*
X166668972Y-81876306D01*
X166678491Y-81873921D01*
X166688198Y-81872482D01*
X166698000Y-81872000D01*
X167998000Y-81872000D01*
X168007802Y-81872482D01*
X168007802Y-81872482D01*
G37*
D18*
X167348000Y-82072000D03*
D13*
G36*
X168007802Y-79922482D02*
G01*
X168017509Y-79923921D01*
X168027028Y-79926306D01*
X168036268Y-79929612D01*
X168045140Y-79933808D01*
X168053557Y-79938853D01*
X168061439Y-79944699D01*
X168068711Y-79951289D01*
X168075301Y-79958561D01*
X168081147Y-79966443D01*
X168086192Y-79974860D01*
X168090388Y-79983732D01*
X168093694Y-79992972D01*
X168096079Y-80002491D01*
X168097518Y-80012198D01*
X168098000Y-80022000D01*
X168098000Y-80222000D01*
X168097518Y-80231802D01*
X168096079Y-80241509D01*
X168093694Y-80251028D01*
X168090388Y-80260268D01*
X168086192Y-80269140D01*
X168081147Y-80277557D01*
X168075301Y-80285439D01*
X168068711Y-80292711D01*
X168061439Y-80299301D01*
X168053557Y-80305147D01*
X168045140Y-80310192D01*
X168036268Y-80314388D01*
X168027028Y-80317694D01*
X168017509Y-80320079D01*
X168007802Y-80321518D01*
X167998000Y-80322000D01*
X166698000Y-80322000D01*
X166688198Y-80321518D01*
X166678491Y-80320079D01*
X166668972Y-80317694D01*
X166659732Y-80314388D01*
X166650860Y-80310192D01*
X166642443Y-80305147D01*
X166634561Y-80299301D01*
X166627289Y-80292711D01*
X166620699Y-80285439D01*
X166614853Y-80277557D01*
X166609808Y-80269140D01*
X166605612Y-80260268D01*
X166602306Y-80251028D01*
X166599921Y-80241509D01*
X166598482Y-80231802D01*
X166598000Y-80222000D01*
X166598000Y-80022000D01*
X166598482Y-80012198D01*
X166599921Y-80002491D01*
X166602306Y-79992972D01*
X166605612Y-79983732D01*
X166609808Y-79974860D01*
X166614853Y-79966443D01*
X166620699Y-79958561D01*
X166627289Y-79951289D01*
X166634561Y-79944699D01*
X166642443Y-79938853D01*
X166650860Y-79933808D01*
X166659732Y-79929612D01*
X166668972Y-79926306D01*
X166678491Y-79923921D01*
X166688198Y-79922482D01*
X166698000Y-79922000D01*
X167998000Y-79922000D01*
X168007802Y-79922482D01*
X168007802Y-79922482D01*
G37*
D18*
X167348000Y-80122000D03*
D13*
G36*
X168007802Y-78622482D02*
G01*
X168017509Y-78623921D01*
X168027028Y-78626306D01*
X168036268Y-78629612D01*
X168045140Y-78633808D01*
X168053557Y-78638853D01*
X168061439Y-78644699D01*
X168068711Y-78651289D01*
X168075301Y-78658561D01*
X168081147Y-78666443D01*
X168086192Y-78674860D01*
X168090388Y-78683732D01*
X168093694Y-78692972D01*
X168096079Y-78702491D01*
X168097518Y-78712198D01*
X168098000Y-78722000D01*
X168098000Y-78922000D01*
X168097518Y-78931802D01*
X168096079Y-78941509D01*
X168093694Y-78951028D01*
X168090388Y-78960268D01*
X168086192Y-78969140D01*
X168081147Y-78977557D01*
X168075301Y-78985439D01*
X168068711Y-78992711D01*
X168061439Y-78999301D01*
X168053557Y-79005147D01*
X168045140Y-79010192D01*
X168036268Y-79014388D01*
X168027028Y-79017694D01*
X168017509Y-79020079D01*
X168007802Y-79021518D01*
X167998000Y-79022000D01*
X166698000Y-79022000D01*
X166688198Y-79021518D01*
X166678491Y-79020079D01*
X166668972Y-79017694D01*
X166659732Y-79014388D01*
X166650860Y-79010192D01*
X166642443Y-79005147D01*
X166634561Y-78999301D01*
X166627289Y-78992711D01*
X166620699Y-78985439D01*
X166614853Y-78977557D01*
X166609808Y-78969140D01*
X166605612Y-78960268D01*
X166602306Y-78951028D01*
X166599921Y-78941509D01*
X166598482Y-78931802D01*
X166598000Y-78922000D01*
X166598000Y-78722000D01*
X166598482Y-78712198D01*
X166599921Y-78702491D01*
X166602306Y-78692972D01*
X166605612Y-78683732D01*
X166609808Y-78674860D01*
X166614853Y-78666443D01*
X166620699Y-78658561D01*
X166627289Y-78651289D01*
X166634561Y-78644699D01*
X166642443Y-78638853D01*
X166650860Y-78633808D01*
X166659732Y-78629612D01*
X166668972Y-78626306D01*
X166678491Y-78623921D01*
X166688198Y-78622482D01*
X166698000Y-78622000D01*
X167998000Y-78622000D01*
X168007802Y-78622482D01*
X168007802Y-78622482D01*
G37*
D18*
X167348000Y-78822000D03*
D13*
G36*
X161987802Y-80572482D02*
G01*
X161997509Y-80573921D01*
X162007028Y-80576306D01*
X162016268Y-80579612D01*
X162025140Y-80583808D01*
X162033557Y-80588853D01*
X162041439Y-80594699D01*
X162048711Y-80601289D01*
X162055301Y-80608561D01*
X162061147Y-80616443D01*
X162066192Y-80624860D01*
X162070388Y-80633732D01*
X162073694Y-80642972D01*
X162076079Y-80652491D01*
X162077518Y-80662198D01*
X162078000Y-80672000D01*
X162078000Y-80872000D01*
X162077518Y-80881802D01*
X162076079Y-80891509D01*
X162073694Y-80901028D01*
X162070388Y-80910268D01*
X162066192Y-80919140D01*
X162061147Y-80927557D01*
X162055301Y-80935439D01*
X162048711Y-80942711D01*
X162041439Y-80949301D01*
X162033557Y-80955147D01*
X162025140Y-80960192D01*
X162016268Y-80964388D01*
X162007028Y-80967694D01*
X161997509Y-80970079D01*
X161987802Y-80971518D01*
X161978000Y-80972000D01*
X160678000Y-80972000D01*
X160668198Y-80971518D01*
X160658491Y-80970079D01*
X160648972Y-80967694D01*
X160639732Y-80964388D01*
X160630860Y-80960192D01*
X160622443Y-80955147D01*
X160614561Y-80949301D01*
X160607289Y-80942711D01*
X160600699Y-80935439D01*
X160594853Y-80927557D01*
X160589808Y-80919140D01*
X160585612Y-80910268D01*
X160582306Y-80901028D01*
X160579921Y-80891509D01*
X160578482Y-80881802D01*
X160578000Y-80872000D01*
X160578000Y-80672000D01*
X160578482Y-80662198D01*
X160579921Y-80652491D01*
X160582306Y-80642972D01*
X160585612Y-80633732D01*
X160589808Y-80624860D01*
X160594853Y-80616443D01*
X160600699Y-80608561D01*
X160607289Y-80601289D01*
X160614561Y-80594699D01*
X160622443Y-80588853D01*
X160630860Y-80583808D01*
X160639732Y-80579612D01*
X160648972Y-80576306D01*
X160658491Y-80573921D01*
X160668198Y-80572482D01*
X160678000Y-80572000D01*
X161978000Y-80572000D01*
X161987802Y-80572482D01*
X161987802Y-80572482D01*
G37*
D18*
X161328000Y-80772000D03*
D13*
G36*
X161987802Y-81222482D02*
G01*
X161997509Y-81223921D01*
X162007028Y-81226306D01*
X162016268Y-81229612D01*
X162025140Y-81233808D01*
X162033557Y-81238853D01*
X162041439Y-81244699D01*
X162048711Y-81251289D01*
X162055301Y-81258561D01*
X162061147Y-81266443D01*
X162066192Y-81274860D01*
X162070388Y-81283732D01*
X162073694Y-81292972D01*
X162076079Y-81302491D01*
X162077518Y-81312198D01*
X162078000Y-81322000D01*
X162078000Y-81522000D01*
X162077518Y-81531802D01*
X162076079Y-81541509D01*
X162073694Y-81551028D01*
X162070388Y-81560268D01*
X162066192Y-81569140D01*
X162061147Y-81577557D01*
X162055301Y-81585439D01*
X162048711Y-81592711D01*
X162041439Y-81599301D01*
X162033557Y-81605147D01*
X162025140Y-81610192D01*
X162016268Y-81614388D01*
X162007028Y-81617694D01*
X161997509Y-81620079D01*
X161987802Y-81621518D01*
X161978000Y-81622000D01*
X160678000Y-81622000D01*
X160668198Y-81621518D01*
X160658491Y-81620079D01*
X160648972Y-81617694D01*
X160639732Y-81614388D01*
X160630860Y-81610192D01*
X160622443Y-81605147D01*
X160614561Y-81599301D01*
X160607289Y-81592711D01*
X160600699Y-81585439D01*
X160594853Y-81577557D01*
X160589808Y-81569140D01*
X160585612Y-81560268D01*
X160582306Y-81551028D01*
X160579921Y-81541509D01*
X160578482Y-81531802D01*
X160578000Y-81522000D01*
X160578000Y-81322000D01*
X160578482Y-81312198D01*
X160579921Y-81302491D01*
X160582306Y-81292972D01*
X160585612Y-81283732D01*
X160589808Y-81274860D01*
X160594853Y-81266443D01*
X160600699Y-81258561D01*
X160607289Y-81251289D01*
X160614561Y-81244699D01*
X160622443Y-81238853D01*
X160630860Y-81233808D01*
X160639732Y-81229612D01*
X160648972Y-81226306D01*
X160658491Y-81223921D01*
X160668198Y-81222482D01*
X160678000Y-81222000D01*
X161978000Y-81222000D01*
X161987802Y-81222482D01*
X161987802Y-81222482D01*
G37*
D18*
X161328000Y-81422000D03*
D13*
G36*
X161987802Y-81872482D02*
G01*
X161997509Y-81873921D01*
X162007028Y-81876306D01*
X162016268Y-81879612D01*
X162025140Y-81883808D01*
X162033557Y-81888853D01*
X162041439Y-81894699D01*
X162048711Y-81901289D01*
X162055301Y-81908561D01*
X162061147Y-81916443D01*
X162066192Y-81924860D01*
X162070388Y-81933732D01*
X162073694Y-81942972D01*
X162076079Y-81952491D01*
X162077518Y-81962198D01*
X162078000Y-81972000D01*
X162078000Y-82172000D01*
X162077518Y-82181802D01*
X162076079Y-82191509D01*
X162073694Y-82201028D01*
X162070388Y-82210268D01*
X162066192Y-82219140D01*
X162061147Y-82227557D01*
X162055301Y-82235439D01*
X162048711Y-82242711D01*
X162041439Y-82249301D01*
X162033557Y-82255147D01*
X162025140Y-82260192D01*
X162016268Y-82264388D01*
X162007028Y-82267694D01*
X161997509Y-82270079D01*
X161987802Y-82271518D01*
X161978000Y-82272000D01*
X160678000Y-82272000D01*
X160668198Y-82271518D01*
X160658491Y-82270079D01*
X160648972Y-82267694D01*
X160639732Y-82264388D01*
X160630860Y-82260192D01*
X160622443Y-82255147D01*
X160614561Y-82249301D01*
X160607289Y-82242711D01*
X160600699Y-82235439D01*
X160594853Y-82227557D01*
X160589808Y-82219140D01*
X160585612Y-82210268D01*
X160582306Y-82201028D01*
X160579921Y-82191509D01*
X160578482Y-82181802D01*
X160578000Y-82172000D01*
X160578000Y-81972000D01*
X160578482Y-81962198D01*
X160579921Y-81952491D01*
X160582306Y-81942972D01*
X160585612Y-81933732D01*
X160589808Y-81924860D01*
X160594853Y-81916443D01*
X160600699Y-81908561D01*
X160607289Y-81901289D01*
X160614561Y-81894699D01*
X160622443Y-81888853D01*
X160630860Y-81883808D01*
X160639732Y-81879612D01*
X160648972Y-81876306D01*
X160658491Y-81873921D01*
X160668198Y-81872482D01*
X160678000Y-81872000D01*
X161978000Y-81872000D01*
X161987802Y-81872482D01*
X161987802Y-81872482D01*
G37*
D18*
X161328000Y-82072000D03*
D13*
G36*
X161987802Y-82522482D02*
G01*
X161997509Y-82523921D01*
X162007028Y-82526306D01*
X162016268Y-82529612D01*
X162025140Y-82533808D01*
X162033557Y-82538853D01*
X162041439Y-82544699D01*
X162048711Y-82551289D01*
X162055301Y-82558561D01*
X162061147Y-82566443D01*
X162066192Y-82574860D01*
X162070388Y-82583732D01*
X162073694Y-82592972D01*
X162076079Y-82602491D01*
X162077518Y-82612198D01*
X162078000Y-82622000D01*
X162078000Y-82822000D01*
X162077518Y-82831802D01*
X162076079Y-82841509D01*
X162073694Y-82851028D01*
X162070388Y-82860268D01*
X162066192Y-82869140D01*
X162061147Y-82877557D01*
X162055301Y-82885439D01*
X162048711Y-82892711D01*
X162041439Y-82899301D01*
X162033557Y-82905147D01*
X162025140Y-82910192D01*
X162016268Y-82914388D01*
X162007028Y-82917694D01*
X161997509Y-82920079D01*
X161987802Y-82921518D01*
X161978000Y-82922000D01*
X160678000Y-82922000D01*
X160668198Y-82921518D01*
X160658491Y-82920079D01*
X160648972Y-82917694D01*
X160639732Y-82914388D01*
X160630860Y-82910192D01*
X160622443Y-82905147D01*
X160614561Y-82899301D01*
X160607289Y-82892711D01*
X160600699Y-82885439D01*
X160594853Y-82877557D01*
X160589808Y-82869140D01*
X160585612Y-82860268D01*
X160582306Y-82851028D01*
X160579921Y-82841509D01*
X160578482Y-82831802D01*
X160578000Y-82822000D01*
X160578000Y-82622000D01*
X160578482Y-82612198D01*
X160579921Y-82602491D01*
X160582306Y-82592972D01*
X160585612Y-82583732D01*
X160589808Y-82574860D01*
X160594853Y-82566443D01*
X160600699Y-82558561D01*
X160607289Y-82551289D01*
X160614561Y-82544699D01*
X160622443Y-82538853D01*
X160630860Y-82533808D01*
X160639732Y-82529612D01*
X160648972Y-82526306D01*
X160658491Y-82523921D01*
X160668198Y-82522482D01*
X160678000Y-82522000D01*
X161978000Y-82522000D01*
X161987802Y-82522482D01*
X161987802Y-82522482D01*
G37*
D18*
X161328000Y-82722000D03*
D13*
G36*
X161987802Y-79922482D02*
G01*
X161997509Y-79923921D01*
X162007028Y-79926306D01*
X162016268Y-79929612D01*
X162025140Y-79933808D01*
X162033557Y-79938853D01*
X162041439Y-79944699D01*
X162048711Y-79951289D01*
X162055301Y-79958561D01*
X162061147Y-79966443D01*
X162066192Y-79974860D01*
X162070388Y-79983732D01*
X162073694Y-79992972D01*
X162076079Y-80002491D01*
X162077518Y-80012198D01*
X162078000Y-80022000D01*
X162078000Y-80222000D01*
X162077518Y-80231802D01*
X162076079Y-80241509D01*
X162073694Y-80251028D01*
X162070388Y-80260268D01*
X162066192Y-80269140D01*
X162061147Y-80277557D01*
X162055301Y-80285439D01*
X162048711Y-80292711D01*
X162041439Y-80299301D01*
X162033557Y-80305147D01*
X162025140Y-80310192D01*
X162016268Y-80314388D01*
X162007028Y-80317694D01*
X161997509Y-80320079D01*
X161987802Y-80321518D01*
X161978000Y-80322000D01*
X160678000Y-80322000D01*
X160668198Y-80321518D01*
X160658491Y-80320079D01*
X160648972Y-80317694D01*
X160639732Y-80314388D01*
X160630860Y-80310192D01*
X160622443Y-80305147D01*
X160614561Y-80299301D01*
X160607289Y-80292711D01*
X160600699Y-80285439D01*
X160594853Y-80277557D01*
X160589808Y-80269140D01*
X160585612Y-80260268D01*
X160582306Y-80251028D01*
X160579921Y-80241509D01*
X160578482Y-80231802D01*
X160578000Y-80222000D01*
X160578000Y-80022000D01*
X160578482Y-80012198D01*
X160579921Y-80002491D01*
X160582306Y-79992972D01*
X160585612Y-79983732D01*
X160589808Y-79974860D01*
X160594853Y-79966443D01*
X160600699Y-79958561D01*
X160607289Y-79951289D01*
X160614561Y-79944699D01*
X160622443Y-79938853D01*
X160630860Y-79933808D01*
X160639732Y-79929612D01*
X160648972Y-79926306D01*
X160658491Y-79923921D01*
X160668198Y-79922482D01*
X160678000Y-79922000D01*
X161978000Y-79922000D01*
X161987802Y-79922482D01*
X161987802Y-79922482D01*
G37*
D18*
X161328000Y-80122000D03*
D13*
G36*
X161987802Y-79272482D02*
G01*
X161997509Y-79273921D01*
X162007028Y-79276306D01*
X162016268Y-79279612D01*
X162025140Y-79283808D01*
X162033557Y-79288853D01*
X162041439Y-79294699D01*
X162048711Y-79301289D01*
X162055301Y-79308561D01*
X162061147Y-79316443D01*
X162066192Y-79324860D01*
X162070388Y-79333732D01*
X162073694Y-79342972D01*
X162076079Y-79352491D01*
X162077518Y-79362198D01*
X162078000Y-79372000D01*
X162078000Y-79572000D01*
X162077518Y-79581802D01*
X162076079Y-79591509D01*
X162073694Y-79601028D01*
X162070388Y-79610268D01*
X162066192Y-79619140D01*
X162061147Y-79627557D01*
X162055301Y-79635439D01*
X162048711Y-79642711D01*
X162041439Y-79649301D01*
X162033557Y-79655147D01*
X162025140Y-79660192D01*
X162016268Y-79664388D01*
X162007028Y-79667694D01*
X161997509Y-79670079D01*
X161987802Y-79671518D01*
X161978000Y-79672000D01*
X160678000Y-79672000D01*
X160668198Y-79671518D01*
X160658491Y-79670079D01*
X160648972Y-79667694D01*
X160639732Y-79664388D01*
X160630860Y-79660192D01*
X160622443Y-79655147D01*
X160614561Y-79649301D01*
X160607289Y-79642711D01*
X160600699Y-79635439D01*
X160594853Y-79627557D01*
X160589808Y-79619140D01*
X160585612Y-79610268D01*
X160582306Y-79601028D01*
X160579921Y-79591509D01*
X160578482Y-79581802D01*
X160578000Y-79572000D01*
X160578000Y-79372000D01*
X160578482Y-79362198D01*
X160579921Y-79352491D01*
X160582306Y-79342972D01*
X160585612Y-79333732D01*
X160589808Y-79324860D01*
X160594853Y-79316443D01*
X160600699Y-79308561D01*
X160607289Y-79301289D01*
X160614561Y-79294699D01*
X160622443Y-79288853D01*
X160630860Y-79283808D01*
X160639732Y-79279612D01*
X160648972Y-79276306D01*
X160658491Y-79273921D01*
X160668198Y-79272482D01*
X160678000Y-79272000D01*
X161978000Y-79272000D01*
X161987802Y-79272482D01*
X161987802Y-79272482D01*
G37*
D18*
X161328000Y-79472000D03*
D13*
G36*
X161987802Y-78622482D02*
G01*
X161997509Y-78623921D01*
X162007028Y-78626306D01*
X162016268Y-78629612D01*
X162025140Y-78633808D01*
X162033557Y-78638853D01*
X162041439Y-78644699D01*
X162048711Y-78651289D01*
X162055301Y-78658561D01*
X162061147Y-78666443D01*
X162066192Y-78674860D01*
X162070388Y-78683732D01*
X162073694Y-78692972D01*
X162076079Y-78702491D01*
X162077518Y-78712198D01*
X162078000Y-78722000D01*
X162078000Y-78922000D01*
X162077518Y-78931802D01*
X162076079Y-78941509D01*
X162073694Y-78951028D01*
X162070388Y-78960268D01*
X162066192Y-78969140D01*
X162061147Y-78977557D01*
X162055301Y-78985439D01*
X162048711Y-78992711D01*
X162041439Y-78999301D01*
X162033557Y-79005147D01*
X162025140Y-79010192D01*
X162016268Y-79014388D01*
X162007028Y-79017694D01*
X161997509Y-79020079D01*
X161987802Y-79021518D01*
X161978000Y-79022000D01*
X160678000Y-79022000D01*
X160668198Y-79021518D01*
X160658491Y-79020079D01*
X160648972Y-79017694D01*
X160639732Y-79014388D01*
X160630860Y-79010192D01*
X160622443Y-79005147D01*
X160614561Y-78999301D01*
X160607289Y-78992711D01*
X160600699Y-78985439D01*
X160594853Y-78977557D01*
X160589808Y-78969140D01*
X160585612Y-78960268D01*
X160582306Y-78951028D01*
X160579921Y-78941509D01*
X160578482Y-78931802D01*
X160578000Y-78922000D01*
X160578000Y-78722000D01*
X160578482Y-78712198D01*
X160579921Y-78702491D01*
X160582306Y-78692972D01*
X160585612Y-78683732D01*
X160589808Y-78674860D01*
X160594853Y-78666443D01*
X160600699Y-78658561D01*
X160607289Y-78651289D01*
X160614561Y-78644699D01*
X160622443Y-78638853D01*
X160630860Y-78633808D01*
X160639732Y-78629612D01*
X160648972Y-78626306D01*
X160658491Y-78623921D01*
X160668198Y-78622482D01*
X160678000Y-78622000D01*
X161978000Y-78622000D01*
X161987802Y-78622482D01*
X161987802Y-78622482D01*
G37*
D18*
X161328000Y-78822000D03*
M02*
