G04 #@! TF.GenerationSoftware,KiCad,Pcbnew,(5.1.0)-1*
G04 #@! TF.CreationDate,2020-11-19T10:17:46+01:00*
G04 #@! TF.ProjectId,PCB_optical_sensors_2_PMW,5043425f-6f70-4746-9963-616c5f73656e,rev?*
G04 #@! TF.SameCoordinates,Original*
G04 #@! TF.FileFunction,Soldermask,Top*
G04 #@! TF.FilePolarity,Negative*
%FSLAX46Y46*%
G04 Gerber Fmt 4.6, Leading zero omitted, Abs format (unit mm)*
G04 Created by KiCad (PCBNEW (5.1.0)-1) date 2020-11-19 10:17:46*
%MOMM*%
%LPD*%
G04 APERTURE LIST*
%ADD10C,0.100000*%
G04 APERTURE END LIST*
D10*
G36*
X163102383Y-76162489D02*
G01*
X163102386Y-76162490D01*
X163102385Y-76162490D01*
X163166258Y-76188946D01*
X163223748Y-76227360D01*
X163272640Y-76276252D01*
X163311054Y-76333742D01*
X163327913Y-76374446D01*
X163337511Y-76397617D01*
X163351000Y-76465430D01*
X163351000Y-76534570D01*
X163337511Y-76602383D01*
X163337510Y-76602385D01*
X163311054Y-76666258D01*
X163272640Y-76723748D01*
X163225788Y-76770600D01*
X163210243Y-76789542D01*
X163198692Y-76811153D01*
X163191579Y-76834602D01*
X163189177Y-76858988D01*
X163191579Y-76883374D01*
X163198692Y-76906823D01*
X163210243Y-76928434D01*
X163225788Y-76947376D01*
X163244730Y-76962921D01*
X163255252Y-76969227D01*
X163260661Y-76972118D01*
X163274688Y-76983630D01*
X163283704Y-76992645D01*
X163304078Y-77006259D01*
X163326717Y-77015635D01*
X163350751Y-77020415D01*
X163375255Y-77020415D01*
X163399288Y-77015634D01*
X163421926Y-77006256D01*
X163442301Y-76992642D01*
X163451317Y-76983626D01*
X163465335Y-76972121D01*
X163476125Y-76966354D01*
X163487830Y-76962803D01*
X163506138Y-76961000D01*
X163869862Y-76961000D01*
X163888170Y-76962803D01*
X163899875Y-76966354D01*
X163910665Y-76972121D01*
X163924688Y-76983630D01*
X163933704Y-76992645D01*
X163954078Y-77006259D01*
X163976717Y-77015635D01*
X164000751Y-77020415D01*
X164025255Y-77020415D01*
X164049288Y-77015634D01*
X164071926Y-77006256D01*
X164092301Y-76992642D01*
X164101317Y-76983626D01*
X164115335Y-76972121D01*
X164126125Y-76966354D01*
X164137830Y-76962803D01*
X164156138Y-76961000D01*
X164519862Y-76961000D01*
X164538170Y-76962803D01*
X164549875Y-76966354D01*
X164560665Y-76972121D01*
X164574688Y-76983630D01*
X164583704Y-76992645D01*
X164604078Y-77006259D01*
X164626717Y-77015635D01*
X164650751Y-77020415D01*
X164675255Y-77020415D01*
X164699288Y-77015634D01*
X164721926Y-77006256D01*
X164742301Y-76992642D01*
X164751317Y-76983626D01*
X164765335Y-76972121D01*
X164776125Y-76966354D01*
X164787830Y-76962803D01*
X164806138Y-76961000D01*
X165169862Y-76961000D01*
X165188170Y-76962803D01*
X165199875Y-76966354D01*
X165210665Y-76972121D01*
X165224688Y-76983630D01*
X165233704Y-76992645D01*
X165254078Y-77006259D01*
X165276717Y-77015635D01*
X165300751Y-77020415D01*
X165325255Y-77020415D01*
X165349288Y-77015634D01*
X165371926Y-77006256D01*
X165392301Y-76992642D01*
X165401317Y-76983626D01*
X165415335Y-76972121D01*
X165426125Y-76966354D01*
X165437830Y-76962803D01*
X165456138Y-76961000D01*
X165819862Y-76961000D01*
X165838170Y-76962803D01*
X165849875Y-76966354D01*
X165860665Y-76972121D01*
X165874688Y-76983630D01*
X165883704Y-76992645D01*
X165904078Y-77006259D01*
X165926717Y-77015635D01*
X165950751Y-77020415D01*
X165975255Y-77020415D01*
X165999288Y-77015634D01*
X166021926Y-77006256D01*
X166042301Y-76992642D01*
X166051317Y-76983626D01*
X166065335Y-76972121D01*
X166076125Y-76966354D01*
X166087830Y-76962803D01*
X166106138Y-76961000D01*
X166469862Y-76961000D01*
X166488170Y-76962803D01*
X166499875Y-76966354D01*
X166510665Y-76972121D01*
X166520119Y-76979881D01*
X166527879Y-76989335D01*
X166533646Y-77000125D01*
X166537197Y-77011830D01*
X166539000Y-77030138D01*
X166539000Y-78446001D01*
X166541402Y-78470387D01*
X166548515Y-78493836D01*
X166560066Y-78515447D01*
X166575611Y-78534389D01*
X166594553Y-78549934D01*
X166616164Y-78561485D01*
X166639613Y-78568598D01*
X166663999Y-78571000D01*
X168079862Y-78571000D01*
X168098170Y-78572803D01*
X168109875Y-78576354D01*
X168120665Y-78582121D01*
X168130119Y-78589881D01*
X168137879Y-78599335D01*
X168143646Y-78610125D01*
X168147197Y-78621830D01*
X168149000Y-78640138D01*
X168149000Y-79003862D01*
X168147197Y-79022170D01*
X168143646Y-79033875D01*
X168137879Y-79044665D01*
X168126370Y-79058688D01*
X168117355Y-79067704D01*
X168103741Y-79088078D01*
X168094365Y-79110717D01*
X168089585Y-79134751D01*
X168089585Y-79159255D01*
X168094366Y-79183288D01*
X168103744Y-79205926D01*
X168117358Y-79226301D01*
X168126374Y-79235317D01*
X168137879Y-79249335D01*
X168143646Y-79260125D01*
X168147197Y-79271830D01*
X168149000Y-79290138D01*
X168149000Y-79653862D01*
X168147197Y-79672170D01*
X168143646Y-79683875D01*
X168137879Y-79694665D01*
X168126370Y-79708688D01*
X168117355Y-79717704D01*
X168103741Y-79738078D01*
X168094365Y-79760717D01*
X168089585Y-79784751D01*
X168089585Y-79809255D01*
X168094366Y-79833288D01*
X168103744Y-79855926D01*
X168117358Y-79876301D01*
X168126374Y-79885317D01*
X168137879Y-79899335D01*
X168143646Y-79910125D01*
X168147197Y-79921830D01*
X168149000Y-79940138D01*
X168149000Y-80303862D01*
X168147197Y-80322170D01*
X168143646Y-80333875D01*
X168137879Y-80344665D01*
X168126370Y-80358688D01*
X168117355Y-80367704D01*
X168103741Y-80388078D01*
X168094365Y-80410717D01*
X168089585Y-80434751D01*
X168089585Y-80459255D01*
X168094366Y-80483288D01*
X168103744Y-80505926D01*
X168117358Y-80526301D01*
X168126374Y-80535317D01*
X168137879Y-80549335D01*
X168143646Y-80560125D01*
X168147197Y-80571830D01*
X168149000Y-80590138D01*
X168149000Y-80953865D01*
X168146605Y-80978187D01*
X168146605Y-81002691D01*
X168151386Y-81026724D01*
X168160764Y-81049363D01*
X168174378Y-81069737D01*
X168191706Y-81087063D01*
X168212080Y-81100677D01*
X168234719Y-81110053D01*
X168258753Y-81114833D01*
X168283257Y-81114833D01*
X168307290Y-81110052D01*
X168329929Y-81100674D01*
X168350303Y-81087060D01*
X168374936Y-81059880D01*
X168377360Y-81056252D01*
X168426252Y-81007360D01*
X168483742Y-80968946D01*
X168547615Y-80942490D01*
X168547614Y-80942490D01*
X168547617Y-80942489D01*
X168615430Y-80929000D01*
X168684570Y-80929000D01*
X168752383Y-80942489D01*
X168752386Y-80942490D01*
X168752385Y-80942490D01*
X168816258Y-80968946D01*
X168873748Y-81007360D01*
X168922640Y-81056252D01*
X168961054Y-81113742D01*
X168978525Y-81155922D01*
X168987511Y-81177617D01*
X169001000Y-81245430D01*
X169001000Y-81314570D01*
X168987511Y-81382383D01*
X168987510Y-81382385D01*
X168961054Y-81446258D01*
X168922640Y-81503748D01*
X168873748Y-81552640D01*
X168816258Y-81591054D01*
X168764182Y-81612624D01*
X168752383Y-81617511D01*
X168684570Y-81631000D01*
X168615430Y-81631000D01*
X168547617Y-81617511D01*
X168535818Y-81612624D01*
X168483742Y-81591054D01*
X168426252Y-81552640D01*
X168376631Y-81503019D01*
X168362386Y-81485661D01*
X168343444Y-81470116D01*
X168321833Y-81458565D01*
X168298384Y-81451453D01*
X168273998Y-81449051D01*
X168249612Y-81451453D01*
X168226163Y-81458567D01*
X168204552Y-81470118D01*
X168185610Y-81485663D01*
X168170065Y-81504605D01*
X168158514Y-81526216D01*
X168151402Y-81549665D01*
X168149000Y-81574050D01*
X168149000Y-81603862D01*
X168147197Y-81622170D01*
X168143646Y-81633875D01*
X168137879Y-81644665D01*
X168126370Y-81658688D01*
X168117355Y-81667704D01*
X168103741Y-81688078D01*
X168094365Y-81710717D01*
X168089585Y-81734751D01*
X168089585Y-81759255D01*
X168094366Y-81783288D01*
X168103744Y-81805926D01*
X168117358Y-81826301D01*
X168126374Y-81835317D01*
X168137879Y-81849335D01*
X168143646Y-81860125D01*
X168147197Y-81871830D01*
X168149000Y-81890138D01*
X168149000Y-82253862D01*
X168147197Y-82272170D01*
X168143646Y-82283875D01*
X168137879Y-82294665D01*
X168126370Y-82308688D01*
X168117355Y-82317704D01*
X168103741Y-82338078D01*
X168094365Y-82360717D01*
X168089585Y-82384751D01*
X168089585Y-82409255D01*
X168094366Y-82433288D01*
X168103744Y-82455926D01*
X168117358Y-82476301D01*
X168126374Y-82485317D01*
X168137879Y-82499335D01*
X168143646Y-82510125D01*
X168147197Y-82521830D01*
X168149000Y-82540138D01*
X168149000Y-82903862D01*
X168147197Y-82922170D01*
X168143646Y-82933875D01*
X168137879Y-82944665D01*
X168130119Y-82954119D01*
X168120665Y-82961879D01*
X168109875Y-82967646D01*
X168098170Y-82971197D01*
X168079862Y-82973000D01*
X166663999Y-82973000D01*
X166639613Y-82975402D01*
X166616164Y-82982515D01*
X166594553Y-82994066D01*
X166575611Y-83009611D01*
X166560066Y-83028553D01*
X166548515Y-83050164D01*
X166541402Y-83073613D01*
X166539000Y-83097999D01*
X166539000Y-84513862D01*
X166537197Y-84532170D01*
X166533646Y-84543875D01*
X166527879Y-84554665D01*
X166520119Y-84564119D01*
X166510665Y-84571879D01*
X166499875Y-84577646D01*
X166488170Y-84581197D01*
X166469862Y-84583000D01*
X166106138Y-84583000D01*
X166087830Y-84581197D01*
X166076125Y-84577646D01*
X166065335Y-84571879D01*
X166051312Y-84560370D01*
X166042296Y-84551355D01*
X166021922Y-84537741D01*
X165999283Y-84528365D01*
X165975249Y-84523585D01*
X165950745Y-84523585D01*
X165926712Y-84528366D01*
X165904074Y-84537744D01*
X165883699Y-84551358D01*
X165874683Y-84560374D01*
X165860665Y-84571879D01*
X165849875Y-84577646D01*
X165838170Y-84581197D01*
X165819862Y-84583000D01*
X165456138Y-84583000D01*
X165437830Y-84581197D01*
X165426125Y-84577646D01*
X165415335Y-84571879D01*
X165401312Y-84560370D01*
X165392296Y-84551355D01*
X165371922Y-84537741D01*
X165349283Y-84528365D01*
X165325249Y-84523585D01*
X165300745Y-84523585D01*
X165276712Y-84528366D01*
X165254074Y-84537744D01*
X165233699Y-84551358D01*
X165224683Y-84560374D01*
X165210665Y-84571879D01*
X165199875Y-84577646D01*
X165188170Y-84581197D01*
X165169862Y-84583000D01*
X164806138Y-84583000D01*
X164787830Y-84581197D01*
X164776125Y-84577646D01*
X164765335Y-84571879D01*
X164751312Y-84560370D01*
X164742296Y-84551355D01*
X164721922Y-84537741D01*
X164699283Y-84528365D01*
X164675249Y-84523585D01*
X164650745Y-84523585D01*
X164626712Y-84528366D01*
X164604074Y-84537744D01*
X164583699Y-84551358D01*
X164574677Y-84560380D01*
X164554381Y-84577037D01*
X164537054Y-84594364D01*
X164523441Y-84614738D01*
X164514064Y-84637377D01*
X164509284Y-84661411D01*
X164509284Y-84685915D01*
X164514065Y-84709948D01*
X164523443Y-84732587D01*
X164537057Y-84752961D01*
X164564234Y-84777593D01*
X164623747Y-84817359D01*
X164672640Y-84866252D01*
X164711054Y-84923742D01*
X164723932Y-84954834D01*
X164737511Y-84987617D01*
X164751000Y-85055430D01*
X164751000Y-85124570D01*
X164737511Y-85192383D01*
X164737510Y-85192385D01*
X164711054Y-85256258D01*
X164672640Y-85313748D01*
X164623748Y-85362640D01*
X164566258Y-85401054D01*
X164514182Y-85422624D01*
X164502383Y-85427511D01*
X164434570Y-85441000D01*
X164365430Y-85441000D01*
X164297617Y-85427511D01*
X164285818Y-85422624D01*
X164233742Y-85401054D01*
X164176252Y-85362640D01*
X164127360Y-85313748D01*
X164098933Y-85271204D01*
X164083387Y-85252262D01*
X164064445Y-85236717D01*
X164042835Y-85225166D01*
X164019386Y-85218053D01*
X163995000Y-85215651D01*
X163970614Y-85218053D01*
X163947165Y-85225166D01*
X163925554Y-85236717D01*
X163906612Y-85252263D01*
X163891067Y-85271204D01*
X163862640Y-85313748D01*
X163813748Y-85362640D01*
X163756258Y-85401054D01*
X163704182Y-85422624D01*
X163692383Y-85427511D01*
X163624570Y-85441000D01*
X163555430Y-85441000D01*
X163487617Y-85427511D01*
X163475818Y-85422624D01*
X163423742Y-85401054D01*
X163366252Y-85362640D01*
X163317360Y-85313748D01*
X163278946Y-85256258D01*
X163252490Y-85192385D01*
X163252489Y-85192383D01*
X163239000Y-85124570D01*
X163239000Y-85055430D01*
X163252489Y-84987617D01*
X163266068Y-84954834D01*
X163278946Y-84923742D01*
X163317360Y-84866252D01*
X163366252Y-84817360D01*
X163423742Y-84778946D01*
X163426393Y-84777848D01*
X163448003Y-84766297D01*
X163466945Y-84750751D01*
X163482490Y-84731809D01*
X163494041Y-84710198D01*
X163494708Y-84707999D01*
X163750071Y-84707999D01*
X163752473Y-84732385D01*
X163759586Y-84755834D01*
X163771137Y-84777445D01*
X163786682Y-84796387D01*
X163805625Y-84811932D01*
X163813747Y-84817359D01*
X163862640Y-84866252D01*
X163891067Y-84908796D01*
X163906613Y-84927738D01*
X163925555Y-84943283D01*
X163947165Y-84954834D01*
X163970614Y-84961947D01*
X163995000Y-84964349D01*
X164019386Y-84961947D01*
X164042835Y-84954834D01*
X164064446Y-84943283D01*
X164083388Y-84927737D01*
X164098933Y-84908796D01*
X164127360Y-84866252D01*
X164176253Y-84817359D01*
X164188880Y-84808922D01*
X164207822Y-84793377D01*
X164223367Y-84774435D01*
X164234919Y-84752825D01*
X164242032Y-84729376D01*
X164244434Y-84704990D01*
X164242032Y-84680604D01*
X164234919Y-84657155D01*
X164223368Y-84635544D01*
X164207823Y-84616602D01*
X164188881Y-84601057D01*
X164167271Y-84589505D01*
X164143822Y-84582392D01*
X164139805Y-84581796D01*
X164126125Y-84577646D01*
X164115335Y-84571879D01*
X164101312Y-84560370D01*
X164092296Y-84551355D01*
X164071922Y-84537741D01*
X164049283Y-84528365D01*
X164025249Y-84523585D01*
X164000745Y-84523585D01*
X163976712Y-84528366D01*
X163954074Y-84537744D01*
X163933699Y-84551358D01*
X163924683Y-84560374D01*
X163910665Y-84571879D01*
X163899875Y-84577646D01*
X163888170Y-84581197D01*
X163863749Y-84583602D01*
X163863799Y-84584110D01*
X163850684Y-84585402D01*
X163827235Y-84592515D01*
X163805624Y-84604066D01*
X163786682Y-84619611D01*
X163771137Y-84638553D01*
X163759586Y-84660164D01*
X163752473Y-84683613D01*
X163750071Y-84707999D01*
X163494708Y-84707999D01*
X163501154Y-84686749D01*
X163503555Y-84662363D01*
X163501153Y-84637977D01*
X163494039Y-84614528D01*
X163482488Y-84592918D01*
X163466942Y-84573976D01*
X163457852Y-84565738D01*
X163451318Y-84560376D01*
X163442296Y-84551355D01*
X163421922Y-84537741D01*
X163399283Y-84528365D01*
X163375249Y-84523585D01*
X163350745Y-84523585D01*
X163326712Y-84528366D01*
X163304074Y-84537744D01*
X163283699Y-84551358D01*
X163274683Y-84560374D01*
X163260665Y-84571879D01*
X163249875Y-84577646D01*
X163238170Y-84581197D01*
X163219862Y-84583000D01*
X162856138Y-84583000D01*
X162837830Y-84581197D01*
X162826125Y-84577646D01*
X162815335Y-84571879D01*
X162801312Y-84560370D01*
X162792296Y-84551355D01*
X162771922Y-84537741D01*
X162749283Y-84528365D01*
X162725249Y-84523585D01*
X162700745Y-84523585D01*
X162676712Y-84528366D01*
X162654074Y-84537744D01*
X162633699Y-84551358D01*
X162624683Y-84560374D01*
X162610665Y-84571879D01*
X162599875Y-84577646D01*
X162588170Y-84581197D01*
X162576881Y-84582309D01*
X162552848Y-84587090D01*
X162530209Y-84596467D01*
X162509835Y-84610081D01*
X162492508Y-84627408D01*
X162478894Y-84647783D01*
X162469517Y-84670422D01*
X162464737Y-84694455D01*
X162464737Y-84718959D01*
X162469518Y-84742992D01*
X162478895Y-84765631D01*
X162492509Y-84786005D01*
X162509836Y-84803332D01*
X162519682Y-84810634D01*
X162529749Y-84817361D01*
X162578640Y-84866252D01*
X162617054Y-84923742D01*
X162629932Y-84954834D01*
X162643511Y-84987617D01*
X162657000Y-85055430D01*
X162657000Y-85124570D01*
X162643511Y-85192383D01*
X162643510Y-85192385D01*
X162617054Y-85256258D01*
X162578640Y-85313748D01*
X162529748Y-85362640D01*
X162472258Y-85401054D01*
X162420182Y-85422624D01*
X162408383Y-85427511D01*
X162340570Y-85441000D01*
X162271430Y-85441000D01*
X162203617Y-85427511D01*
X162191818Y-85422624D01*
X162139742Y-85401054D01*
X162082252Y-85362640D01*
X162033360Y-85313748D01*
X161994946Y-85256258D01*
X161968490Y-85192385D01*
X161968489Y-85192383D01*
X161955000Y-85124570D01*
X161955000Y-85055430D01*
X161968489Y-84987617D01*
X161982068Y-84954834D01*
X161994946Y-84923742D01*
X162033360Y-84866252D01*
X162082252Y-84817360D01*
X162146927Y-84774145D01*
X162153367Y-84770703D01*
X162172309Y-84755158D01*
X162187855Y-84736216D01*
X162199406Y-84714605D01*
X162206519Y-84691156D01*
X162208921Y-84666770D01*
X162206519Y-84642384D01*
X162199406Y-84618935D01*
X162187855Y-84597325D01*
X162163223Y-84570147D01*
X162155884Y-84564124D01*
X162148121Y-84554665D01*
X162142354Y-84543875D01*
X162138803Y-84532170D01*
X162137000Y-84513862D01*
X162137000Y-83097999D01*
X162134598Y-83073613D01*
X162127485Y-83050164D01*
X162115934Y-83028553D01*
X162100389Y-83009611D01*
X162081447Y-82994066D01*
X162059836Y-82982515D01*
X162036387Y-82975402D01*
X162012001Y-82973000D01*
X160596138Y-82973000D01*
X160577830Y-82971197D01*
X160566125Y-82967646D01*
X160555335Y-82961879D01*
X160545881Y-82954119D01*
X160538121Y-82944665D01*
X160532354Y-82933875D01*
X160528803Y-82922170D01*
X160527000Y-82903862D01*
X160527000Y-82540138D01*
X160528803Y-82521830D01*
X160532354Y-82510125D01*
X160538121Y-82499335D01*
X160549630Y-82485312D01*
X160558645Y-82476296D01*
X160572259Y-82455922D01*
X160581635Y-82433283D01*
X160586415Y-82409249D01*
X160586415Y-82384745D01*
X160581634Y-82360712D01*
X160572256Y-82338074D01*
X160558642Y-82317699D01*
X160549626Y-82308683D01*
X160538121Y-82294665D01*
X160532354Y-82283875D01*
X160528803Y-82272170D01*
X160527000Y-82253862D01*
X160527000Y-81890138D01*
X160528803Y-81871830D01*
X160532354Y-81860125D01*
X160538121Y-81849335D01*
X160549630Y-81835312D01*
X160558645Y-81826296D01*
X160572259Y-81805922D01*
X160581635Y-81783283D01*
X160586415Y-81759249D01*
X160586415Y-81734745D01*
X160581634Y-81710712D01*
X160572256Y-81688074D01*
X160558642Y-81667699D01*
X160549626Y-81658683D01*
X160538121Y-81644665D01*
X160532354Y-81633875D01*
X160528803Y-81622170D01*
X160527000Y-81603862D01*
X160527000Y-81240138D01*
X160528803Y-81221830D01*
X160532354Y-81210125D01*
X160538121Y-81199335D01*
X160549630Y-81185312D01*
X160558645Y-81176296D01*
X160572259Y-81155922D01*
X160581635Y-81133283D01*
X160586415Y-81109249D01*
X160586415Y-81084745D01*
X160581634Y-81060712D01*
X160572256Y-81038074D01*
X160558642Y-81017699D01*
X160549626Y-81008683D01*
X160538121Y-80994665D01*
X160532354Y-80983875D01*
X160528803Y-80972170D01*
X160527000Y-80953862D01*
X160527000Y-80590138D01*
X160528803Y-80571830D01*
X160532354Y-80560125D01*
X160538121Y-80549335D01*
X160549630Y-80535312D01*
X160558645Y-80526296D01*
X160572259Y-80505922D01*
X160581635Y-80483283D01*
X160586415Y-80459249D01*
X160586415Y-80434745D01*
X160581634Y-80410712D01*
X160572256Y-80388074D01*
X160558642Y-80367699D01*
X160549626Y-80358683D01*
X160538121Y-80344665D01*
X160532354Y-80333875D01*
X160528803Y-80322170D01*
X160527000Y-80303862D01*
X160527000Y-79940138D01*
X160528803Y-79921830D01*
X160532354Y-79910125D01*
X160538121Y-79899335D01*
X160549630Y-79885312D01*
X160558645Y-79876296D01*
X160572259Y-79855922D01*
X160581635Y-79833283D01*
X160586415Y-79809249D01*
X160586415Y-79784745D01*
X160581634Y-79760712D01*
X160572256Y-79738074D01*
X160558642Y-79717699D01*
X160549626Y-79708683D01*
X160538121Y-79694665D01*
X160532354Y-79683875D01*
X160528803Y-79672170D01*
X160527000Y-79653862D01*
X160527000Y-79290138D01*
X160528803Y-79271830D01*
X160532354Y-79260125D01*
X160538121Y-79249335D01*
X160549630Y-79235312D01*
X160558645Y-79226296D01*
X160572259Y-79205922D01*
X160581635Y-79183283D01*
X160586415Y-79159249D01*
X160586415Y-79134751D01*
X162069585Y-79134751D01*
X162069585Y-79159255D01*
X162074366Y-79183288D01*
X162083744Y-79205926D01*
X162097358Y-79226301D01*
X162106374Y-79235317D01*
X162117879Y-79249335D01*
X162123646Y-79260125D01*
X162127197Y-79271830D01*
X162129000Y-79290138D01*
X162129000Y-79653862D01*
X162127197Y-79672170D01*
X162123646Y-79683875D01*
X162117879Y-79694665D01*
X162106370Y-79708688D01*
X162097355Y-79717704D01*
X162083741Y-79738078D01*
X162074365Y-79760717D01*
X162069585Y-79784751D01*
X162069585Y-79809255D01*
X162074366Y-79833288D01*
X162083744Y-79855926D01*
X162097358Y-79876301D01*
X162106374Y-79885317D01*
X162117879Y-79899335D01*
X162123646Y-79910125D01*
X162127197Y-79921830D01*
X162129000Y-79940138D01*
X162129000Y-80303862D01*
X162127197Y-80322170D01*
X162123646Y-80333875D01*
X162117879Y-80344665D01*
X162106370Y-80358688D01*
X162097355Y-80367704D01*
X162083741Y-80388078D01*
X162074365Y-80410717D01*
X162069585Y-80434751D01*
X162069585Y-80459255D01*
X162074366Y-80483288D01*
X162083744Y-80505926D01*
X162097358Y-80526301D01*
X162106374Y-80535317D01*
X162117879Y-80549335D01*
X162123646Y-80560125D01*
X162127197Y-80571830D01*
X162129000Y-80590138D01*
X162129000Y-80953862D01*
X162127197Y-80972170D01*
X162123646Y-80983875D01*
X162117879Y-80994665D01*
X162106370Y-81008688D01*
X162097355Y-81017704D01*
X162083741Y-81038078D01*
X162074365Y-81060717D01*
X162069585Y-81084751D01*
X162069585Y-81109255D01*
X162074366Y-81133288D01*
X162083744Y-81155926D01*
X162097358Y-81176301D01*
X162106374Y-81185317D01*
X162117879Y-81199335D01*
X162123646Y-81210125D01*
X162127197Y-81221830D01*
X162129000Y-81240138D01*
X162129000Y-81603862D01*
X162127197Y-81622170D01*
X162123646Y-81633875D01*
X162117879Y-81644665D01*
X162106370Y-81658688D01*
X162097355Y-81667704D01*
X162083741Y-81688078D01*
X162074365Y-81710717D01*
X162069585Y-81734751D01*
X162069585Y-81759255D01*
X162074366Y-81783288D01*
X162083744Y-81805926D01*
X162097358Y-81826301D01*
X162106374Y-81835317D01*
X162117879Y-81849335D01*
X162123646Y-81860125D01*
X162127197Y-81871830D01*
X162129000Y-81890138D01*
X162129000Y-82253862D01*
X162127197Y-82272170D01*
X162123646Y-82283875D01*
X162117879Y-82294665D01*
X162106370Y-82308688D01*
X162097355Y-82317704D01*
X162083741Y-82338078D01*
X162074365Y-82360717D01*
X162069585Y-82384751D01*
X162069585Y-82409255D01*
X162074366Y-82433288D01*
X162083744Y-82455926D01*
X162097358Y-82476301D01*
X162106374Y-82485317D01*
X162117879Y-82499335D01*
X162123646Y-82510125D01*
X162127197Y-82521830D01*
X162129000Y-82540138D01*
X162129000Y-82856001D01*
X162131402Y-82880387D01*
X162138515Y-82903836D01*
X162150066Y-82925447D01*
X162165611Y-82944389D01*
X162184553Y-82959934D01*
X162206164Y-82971485D01*
X162229613Y-82978598D01*
X162253999Y-82981000D01*
X162569862Y-82981000D01*
X162588170Y-82982803D01*
X162599875Y-82986354D01*
X162610665Y-82992121D01*
X162624688Y-83003630D01*
X162633704Y-83012645D01*
X162654078Y-83026259D01*
X162676717Y-83035635D01*
X162700751Y-83040415D01*
X162725255Y-83040415D01*
X162749288Y-83035634D01*
X162771926Y-83026256D01*
X162792301Y-83012642D01*
X162801317Y-83003626D01*
X162815335Y-82992121D01*
X162826125Y-82986354D01*
X162837830Y-82982803D01*
X162856138Y-82981000D01*
X163219862Y-82981000D01*
X163238170Y-82982803D01*
X163249875Y-82986354D01*
X163260665Y-82992121D01*
X163274688Y-83003630D01*
X163283704Y-83012645D01*
X163304078Y-83026259D01*
X163326717Y-83035635D01*
X163350751Y-83040415D01*
X163375255Y-83040415D01*
X163399288Y-83035634D01*
X163421926Y-83026256D01*
X163442301Y-83012642D01*
X163451317Y-83003626D01*
X163465335Y-82992121D01*
X163476125Y-82986354D01*
X163487830Y-82982803D01*
X163506138Y-82981000D01*
X163869862Y-82981000D01*
X163888170Y-82982803D01*
X163899875Y-82986354D01*
X163910665Y-82992121D01*
X163924688Y-83003630D01*
X163933704Y-83012645D01*
X163954078Y-83026259D01*
X163976717Y-83035635D01*
X164000751Y-83040415D01*
X164025255Y-83040415D01*
X164049288Y-83035634D01*
X164071926Y-83026256D01*
X164092301Y-83012642D01*
X164101317Y-83003626D01*
X164115335Y-82992121D01*
X164126125Y-82986354D01*
X164137830Y-82982803D01*
X164156138Y-82981000D01*
X164519862Y-82981000D01*
X164538170Y-82982803D01*
X164549875Y-82986354D01*
X164560665Y-82992121D01*
X164574688Y-83003630D01*
X164583704Y-83012645D01*
X164604078Y-83026259D01*
X164626717Y-83035635D01*
X164650751Y-83040415D01*
X164675255Y-83040415D01*
X164699288Y-83035634D01*
X164721926Y-83026256D01*
X164742301Y-83012642D01*
X164751317Y-83003626D01*
X164765335Y-82992121D01*
X164776125Y-82986354D01*
X164787830Y-82982803D01*
X164806138Y-82981000D01*
X165169862Y-82981000D01*
X165188170Y-82982803D01*
X165199875Y-82986354D01*
X165210665Y-82992121D01*
X165224688Y-83003630D01*
X165233704Y-83012645D01*
X165254078Y-83026259D01*
X165276717Y-83035635D01*
X165300751Y-83040415D01*
X165325255Y-83040415D01*
X165349288Y-83035634D01*
X165371926Y-83026256D01*
X165392301Y-83012642D01*
X165401317Y-83003626D01*
X165415335Y-82992121D01*
X165426125Y-82986354D01*
X165437830Y-82982803D01*
X165456138Y-82981000D01*
X165819862Y-82981000D01*
X165838170Y-82982803D01*
X165849875Y-82986354D01*
X165860665Y-82992121D01*
X165874688Y-83003630D01*
X165883704Y-83012645D01*
X165904078Y-83026259D01*
X165926717Y-83035635D01*
X165950751Y-83040415D01*
X165975255Y-83040415D01*
X165999288Y-83035634D01*
X166021926Y-83026256D01*
X166042301Y-83012642D01*
X166051317Y-83003626D01*
X166065335Y-82992121D01*
X166076125Y-82986354D01*
X166087830Y-82982803D01*
X166106138Y-82981000D01*
X166422001Y-82981000D01*
X166446387Y-82978598D01*
X166469836Y-82971485D01*
X166491447Y-82959934D01*
X166510389Y-82944389D01*
X166525934Y-82925447D01*
X166537485Y-82903836D01*
X166544598Y-82880387D01*
X166547000Y-82856001D01*
X166547000Y-82540138D01*
X166548803Y-82521830D01*
X166552354Y-82510125D01*
X166558121Y-82499335D01*
X166569630Y-82485312D01*
X166578645Y-82476296D01*
X166592259Y-82455922D01*
X166601635Y-82433283D01*
X166606415Y-82409249D01*
X166606415Y-82384745D01*
X166601634Y-82360712D01*
X166592256Y-82338074D01*
X166578642Y-82317699D01*
X166569626Y-82308683D01*
X166558121Y-82294665D01*
X166552354Y-82283875D01*
X166548803Y-82272170D01*
X166547000Y-82253862D01*
X166547000Y-81890138D01*
X166548803Y-81871830D01*
X166552354Y-81860125D01*
X166558121Y-81849335D01*
X166569630Y-81835312D01*
X166578645Y-81826296D01*
X166592259Y-81805922D01*
X166601635Y-81783283D01*
X166606415Y-81759249D01*
X166606415Y-81734745D01*
X166601634Y-81710712D01*
X166592256Y-81688074D01*
X166578642Y-81667699D01*
X166569626Y-81658683D01*
X166558121Y-81644665D01*
X166552354Y-81633875D01*
X166548803Y-81622170D01*
X166547000Y-81603862D01*
X166547000Y-81240138D01*
X166548803Y-81221830D01*
X166552354Y-81210125D01*
X166558121Y-81199335D01*
X166569630Y-81185312D01*
X166578645Y-81176296D01*
X166592259Y-81155922D01*
X166601635Y-81133283D01*
X166606415Y-81109249D01*
X166606415Y-81084745D01*
X166601634Y-81060712D01*
X166592256Y-81038074D01*
X166578642Y-81017699D01*
X166569626Y-81008683D01*
X166558121Y-80994665D01*
X166552354Y-80983875D01*
X166548803Y-80972170D01*
X166547000Y-80953862D01*
X166547000Y-80590138D01*
X166548803Y-80571830D01*
X166552354Y-80560125D01*
X166558121Y-80549335D01*
X166569630Y-80535312D01*
X166578645Y-80526296D01*
X166592259Y-80505922D01*
X166601635Y-80483283D01*
X166606415Y-80459249D01*
X166606415Y-80434745D01*
X166601634Y-80410712D01*
X166592256Y-80388074D01*
X166578642Y-80367699D01*
X166569626Y-80358683D01*
X166558121Y-80344665D01*
X166552354Y-80333875D01*
X166548803Y-80322170D01*
X166547000Y-80303862D01*
X166547000Y-79940138D01*
X166548803Y-79921830D01*
X166552354Y-79910125D01*
X166558121Y-79899335D01*
X166569630Y-79885312D01*
X166578645Y-79876296D01*
X166592259Y-79855922D01*
X166601635Y-79833283D01*
X166606415Y-79809249D01*
X166606415Y-79784745D01*
X166601634Y-79760712D01*
X166592256Y-79738074D01*
X166578642Y-79717699D01*
X166569626Y-79708683D01*
X166558121Y-79694665D01*
X166552354Y-79683875D01*
X166548803Y-79672170D01*
X166547000Y-79653862D01*
X166547000Y-79290138D01*
X166548803Y-79271830D01*
X166552354Y-79260125D01*
X166558121Y-79249335D01*
X166569630Y-79235312D01*
X166578645Y-79226296D01*
X166592259Y-79205922D01*
X166601635Y-79183283D01*
X166606415Y-79159249D01*
X166606415Y-79134745D01*
X166601634Y-79110712D01*
X166592256Y-79088074D01*
X166578642Y-79067699D01*
X166569626Y-79058683D01*
X166558121Y-79044665D01*
X166552354Y-79033875D01*
X166548803Y-79022170D01*
X166547000Y-79003862D01*
X166547000Y-78687999D01*
X166544598Y-78663613D01*
X166537485Y-78640164D01*
X166525934Y-78618553D01*
X166510389Y-78599611D01*
X166491447Y-78584066D01*
X166469836Y-78572515D01*
X166446387Y-78565402D01*
X166422001Y-78563000D01*
X166106138Y-78563000D01*
X166087830Y-78561197D01*
X166076125Y-78557646D01*
X166065335Y-78551879D01*
X166051312Y-78540370D01*
X166042296Y-78531355D01*
X166021922Y-78517741D01*
X165999283Y-78508365D01*
X165975249Y-78503585D01*
X165950745Y-78503585D01*
X165926712Y-78508366D01*
X165904074Y-78517744D01*
X165883699Y-78531358D01*
X165874683Y-78540374D01*
X165860665Y-78551879D01*
X165849875Y-78557646D01*
X165838170Y-78561197D01*
X165819862Y-78563000D01*
X165456138Y-78563000D01*
X165437830Y-78561197D01*
X165426125Y-78557646D01*
X165415335Y-78551879D01*
X165401312Y-78540370D01*
X165392296Y-78531355D01*
X165371922Y-78517741D01*
X165349283Y-78508365D01*
X165325249Y-78503585D01*
X165300745Y-78503585D01*
X165276712Y-78508366D01*
X165254074Y-78517744D01*
X165233699Y-78531358D01*
X165224683Y-78540374D01*
X165210665Y-78551879D01*
X165199875Y-78557646D01*
X165188170Y-78561197D01*
X165169862Y-78563000D01*
X164806138Y-78563000D01*
X164787830Y-78561197D01*
X164776125Y-78557646D01*
X164765335Y-78551879D01*
X164751312Y-78540370D01*
X164742296Y-78531355D01*
X164721922Y-78517741D01*
X164699283Y-78508365D01*
X164675249Y-78503585D01*
X164650745Y-78503585D01*
X164626712Y-78508366D01*
X164604074Y-78517744D01*
X164583699Y-78531358D01*
X164574683Y-78540374D01*
X164560665Y-78551879D01*
X164549875Y-78557646D01*
X164538170Y-78561197D01*
X164519862Y-78563000D01*
X164156138Y-78563000D01*
X164137830Y-78561197D01*
X164126125Y-78557646D01*
X164115335Y-78551879D01*
X164101312Y-78540370D01*
X164092296Y-78531355D01*
X164071922Y-78517741D01*
X164049283Y-78508365D01*
X164025249Y-78503585D01*
X164000745Y-78503585D01*
X163976712Y-78508366D01*
X163954074Y-78517744D01*
X163933699Y-78531358D01*
X163924683Y-78540374D01*
X163910665Y-78551879D01*
X163899875Y-78557646D01*
X163888170Y-78561197D01*
X163869862Y-78563000D01*
X163506138Y-78563000D01*
X163487830Y-78561197D01*
X163476125Y-78557646D01*
X163465335Y-78551879D01*
X163451312Y-78540370D01*
X163442296Y-78531355D01*
X163421922Y-78517741D01*
X163399283Y-78508365D01*
X163375249Y-78503585D01*
X163350745Y-78503585D01*
X163326712Y-78508366D01*
X163304074Y-78517744D01*
X163283699Y-78531358D01*
X163274683Y-78540374D01*
X163260665Y-78551879D01*
X163249875Y-78557646D01*
X163238170Y-78561197D01*
X163219862Y-78563000D01*
X162856138Y-78563000D01*
X162837830Y-78561197D01*
X162826125Y-78557646D01*
X162815335Y-78551879D01*
X162801312Y-78540370D01*
X162792296Y-78531355D01*
X162771922Y-78517741D01*
X162749283Y-78508365D01*
X162725249Y-78503585D01*
X162700745Y-78503585D01*
X162676712Y-78508366D01*
X162654074Y-78517744D01*
X162633699Y-78531358D01*
X162624683Y-78540374D01*
X162610665Y-78551879D01*
X162599875Y-78557646D01*
X162588170Y-78561197D01*
X162569862Y-78563000D01*
X162253999Y-78563000D01*
X162229613Y-78565402D01*
X162206164Y-78572515D01*
X162184553Y-78584066D01*
X162165611Y-78599611D01*
X162150066Y-78618553D01*
X162138515Y-78640164D01*
X162131402Y-78663613D01*
X162129000Y-78687999D01*
X162129000Y-79003862D01*
X162127197Y-79022170D01*
X162123646Y-79033875D01*
X162117879Y-79044665D01*
X162106370Y-79058688D01*
X162097355Y-79067704D01*
X162083741Y-79088078D01*
X162074365Y-79110717D01*
X162069585Y-79134751D01*
X160586415Y-79134751D01*
X160586415Y-79134745D01*
X160581634Y-79110712D01*
X160572256Y-79088074D01*
X160558642Y-79067699D01*
X160549626Y-79058683D01*
X160538121Y-79044665D01*
X160532354Y-79033875D01*
X160528803Y-79022170D01*
X160527000Y-79003862D01*
X160527000Y-78640138D01*
X160528803Y-78621830D01*
X160532354Y-78610125D01*
X160538121Y-78599335D01*
X160545881Y-78589881D01*
X160555335Y-78582121D01*
X160566125Y-78576354D01*
X160577830Y-78572803D01*
X160596138Y-78571000D01*
X162012001Y-78571000D01*
X162036387Y-78568598D01*
X162059836Y-78561485D01*
X162081447Y-78549934D01*
X162100389Y-78534389D01*
X162115934Y-78515447D01*
X162127485Y-78493836D01*
X162134598Y-78470387D01*
X162137000Y-78446001D01*
X162137000Y-77030138D01*
X162138803Y-77011830D01*
X162142354Y-77000125D01*
X162148121Y-76989335D01*
X162155881Y-76979881D01*
X162165335Y-76972121D01*
X162176125Y-76966354D01*
X162187830Y-76962803D01*
X162206138Y-76961000D01*
X162569862Y-76961000D01*
X162588170Y-76962803D01*
X162599875Y-76966354D01*
X162610665Y-76972121D01*
X162624688Y-76983630D01*
X162633704Y-76992645D01*
X162654078Y-77006259D01*
X162676717Y-77015635D01*
X162700751Y-77020415D01*
X162725255Y-77020415D01*
X162749288Y-77015634D01*
X162771926Y-77006256D01*
X162792301Y-76992642D01*
X162801320Y-76983623D01*
X162801493Y-76983481D01*
X162818820Y-76966154D01*
X162832434Y-76945780D01*
X162841811Y-76923141D01*
X162846592Y-76899108D01*
X162846592Y-76874604D01*
X162841812Y-76850571D01*
X162832435Y-76827932D01*
X162818821Y-76807557D01*
X162801494Y-76790230D01*
X162791651Y-76782929D01*
X162776251Y-76772639D01*
X162727361Y-76723749D01*
X162699707Y-76682362D01*
X162688946Y-76666258D01*
X162662490Y-76602385D01*
X162662489Y-76602383D01*
X162649000Y-76534570D01*
X162649000Y-76465430D01*
X162662489Y-76397617D01*
X162672087Y-76374446D01*
X162688946Y-76333742D01*
X162727360Y-76276252D01*
X162776252Y-76227360D01*
X162833742Y-76188946D01*
X162897615Y-76162490D01*
X162897614Y-76162490D01*
X162897617Y-76162489D01*
X162965430Y-76149000D01*
X163034570Y-76149000D01*
X163102383Y-76162489D01*
X163102383Y-76162489D01*
G37*
G36*
X165016210Y-79530489D02*
G01*
X165102950Y-79556802D01*
X165182889Y-79599530D01*
X165252962Y-79657038D01*
X165310470Y-79727111D01*
X165353198Y-79807050D01*
X165379511Y-79893790D01*
X165389000Y-79990140D01*
X165389000Y-81553860D01*
X165379511Y-81650210D01*
X165353198Y-81736950D01*
X165310470Y-81816889D01*
X165252962Y-81886962D01*
X165182889Y-81944470D01*
X165102950Y-81987198D01*
X165016210Y-82013511D01*
X164919860Y-82023000D01*
X163756140Y-82023000D01*
X163659790Y-82013511D01*
X163573050Y-81987198D01*
X163493111Y-81944470D01*
X163423038Y-81886962D01*
X163365530Y-81816889D01*
X163322802Y-81736950D01*
X163296489Y-81650210D01*
X163287000Y-81553860D01*
X163287000Y-79990140D01*
X163296489Y-79893790D01*
X163322802Y-79807050D01*
X163365530Y-79727111D01*
X163423038Y-79657038D01*
X163493111Y-79599530D01*
X163573050Y-79556802D01*
X163659790Y-79530489D01*
X163756140Y-79521000D01*
X164919860Y-79521000D01*
X165016210Y-79530489D01*
X165016210Y-79530489D01*
G37*
G36*
X170748228Y-83681703D02*
G01*
X170903100Y-83745853D01*
X171042481Y-83838985D01*
X171161015Y-83957519D01*
X171254147Y-84096900D01*
X171318297Y-84251772D01*
X171351000Y-84416184D01*
X171351000Y-84583816D01*
X171318297Y-84748228D01*
X171254147Y-84903100D01*
X171161015Y-85042481D01*
X171042481Y-85161015D01*
X170903100Y-85254147D01*
X170748228Y-85318297D01*
X170583816Y-85351000D01*
X170416184Y-85351000D01*
X170251772Y-85318297D01*
X170096900Y-85254147D01*
X169957519Y-85161015D01*
X169838985Y-85042481D01*
X169745853Y-84903100D01*
X169681703Y-84748228D01*
X169649000Y-84583816D01*
X169649000Y-84416184D01*
X169681703Y-84251772D01*
X169745853Y-84096900D01*
X169838985Y-83957519D01*
X169957519Y-83838985D01*
X170096900Y-83745853D01*
X170251772Y-83681703D01*
X170416184Y-83649000D01*
X170583816Y-83649000D01*
X170748228Y-83681703D01*
X170748228Y-83681703D01*
G37*
G36*
X168758383Y-83228489D02*
G01*
X168758386Y-83228490D01*
X168758385Y-83228490D01*
X168822258Y-83254946D01*
X168879748Y-83293360D01*
X168928640Y-83342252D01*
X168967054Y-83399742D01*
X168988624Y-83451818D01*
X168993511Y-83463617D01*
X169007000Y-83531430D01*
X169007000Y-83600570D01*
X168993511Y-83668383D01*
X168993510Y-83668385D01*
X168967054Y-83732258D01*
X168928640Y-83789748D01*
X168879748Y-83838640D01*
X168822258Y-83877054D01*
X168770182Y-83898624D01*
X168758383Y-83903511D01*
X168690570Y-83917000D01*
X168621430Y-83917000D01*
X168553617Y-83903511D01*
X168541818Y-83898624D01*
X168489742Y-83877054D01*
X168432252Y-83838640D01*
X168383360Y-83789748D01*
X168344946Y-83732258D01*
X168318490Y-83668385D01*
X168318489Y-83668383D01*
X168305000Y-83600570D01*
X168305000Y-83531430D01*
X168318489Y-83463617D01*
X168323376Y-83451818D01*
X168344946Y-83399742D01*
X168383360Y-83342252D01*
X168432252Y-83293360D01*
X168489742Y-83254946D01*
X168553615Y-83228490D01*
X168553614Y-83228490D01*
X168553617Y-83228489D01*
X168621430Y-83215000D01*
X168690570Y-83215000D01*
X168758383Y-83228489D01*
X168758383Y-83228489D01*
G37*
G36*
X169402383Y-77894489D02*
G01*
X169402386Y-77894490D01*
X169402385Y-77894490D01*
X169466258Y-77920946D01*
X169523748Y-77959360D01*
X169572640Y-78008252D01*
X169611054Y-78065742D01*
X169632624Y-78117818D01*
X169637511Y-78129617D01*
X169651000Y-78197430D01*
X169651000Y-78266570D01*
X169637511Y-78334383D01*
X169637510Y-78334385D01*
X169611054Y-78398258D01*
X169572640Y-78455748D01*
X169523748Y-78504640D01*
X169466258Y-78543054D01*
X169431028Y-78557646D01*
X169402383Y-78569511D01*
X169334570Y-78583000D01*
X169265430Y-78583000D01*
X169197617Y-78569511D01*
X169168972Y-78557646D01*
X169133742Y-78543054D01*
X169076252Y-78504640D01*
X169027360Y-78455748D01*
X168988946Y-78398258D01*
X168962490Y-78334385D01*
X168962489Y-78334383D01*
X168949000Y-78266570D01*
X168949000Y-78197430D01*
X168962489Y-78129617D01*
X168967376Y-78117818D01*
X168988946Y-78065742D01*
X169027360Y-78008252D01*
X169076252Y-77959360D01*
X169133742Y-77920946D01*
X169197615Y-77894490D01*
X169197614Y-77894490D01*
X169197617Y-77894489D01*
X169265430Y-77881000D01*
X169334570Y-77881000D01*
X169402383Y-77894489D01*
X169402383Y-77894489D01*
G37*
G36*
X167742383Y-76878489D02*
G01*
X167742386Y-76878490D01*
X167742385Y-76878490D01*
X167806258Y-76904946D01*
X167863748Y-76943360D01*
X167912640Y-76992252D01*
X167951054Y-77049742D01*
X167966279Y-77086500D01*
X167977511Y-77113617D01*
X167991000Y-77181430D01*
X167991000Y-77250570D01*
X167977511Y-77318383D01*
X167977510Y-77318385D01*
X167951054Y-77382258D01*
X167912640Y-77439748D01*
X167863748Y-77488640D01*
X167806258Y-77527054D01*
X167754182Y-77548624D01*
X167742383Y-77553511D01*
X167674570Y-77567000D01*
X167605430Y-77567000D01*
X167537617Y-77553511D01*
X167525818Y-77548624D01*
X167473742Y-77527054D01*
X167416252Y-77488640D01*
X167367360Y-77439748D01*
X167328946Y-77382258D01*
X167302490Y-77318385D01*
X167302489Y-77318383D01*
X167289000Y-77250570D01*
X167289000Y-77181430D01*
X167302489Y-77113617D01*
X167313721Y-77086500D01*
X167328946Y-77049742D01*
X167367360Y-76992252D01*
X167416252Y-76943360D01*
X167473742Y-76904946D01*
X167537615Y-76878490D01*
X167537614Y-76878490D01*
X167537617Y-76878489D01*
X167605430Y-76865000D01*
X167674570Y-76865000D01*
X167742383Y-76878489D01*
X167742383Y-76878489D01*
G37*
G36*
X161392383Y-73262489D02*
G01*
X161392386Y-73262490D01*
X161392385Y-73262490D01*
X161456258Y-73288946D01*
X161513748Y-73327360D01*
X161562640Y-73376252D01*
X161601054Y-73433742D01*
X161612598Y-73461613D01*
X161627511Y-73497617D01*
X161641000Y-73565430D01*
X161641000Y-73634570D01*
X161627511Y-73702383D01*
X161627510Y-73702385D01*
X161601052Y-73766262D01*
X161578591Y-73799877D01*
X161567039Y-73821487D01*
X161559926Y-73844936D01*
X161557524Y-73869322D01*
X161559926Y-73893708D01*
X161567039Y-73917157D01*
X161578590Y-73938768D01*
X161594135Y-73957710D01*
X161613077Y-73973255D01*
X161646237Y-73988939D01*
X161691994Y-74002820D01*
X161726554Y-74021292D01*
X161756847Y-74046153D01*
X161781708Y-74076446D01*
X161800180Y-74111005D01*
X161811555Y-74148501D01*
X161816000Y-74193638D01*
X161816000Y-74932360D01*
X161813999Y-74952677D01*
X161813999Y-74977181D01*
X161818779Y-75001214D01*
X161828157Y-75023853D01*
X161841771Y-75044228D01*
X161859098Y-75061555D01*
X161879472Y-75075168D01*
X161902111Y-75084546D01*
X161926144Y-75089326D01*
X161962779Y-75087527D01*
X161965429Y-75087000D01*
X162034570Y-75087000D01*
X162102383Y-75100489D01*
X162102386Y-75100490D01*
X162102385Y-75100490D01*
X162166258Y-75126946D01*
X162223748Y-75165360D01*
X162272640Y-75214252D01*
X162311054Y-75271742D01*
X162332624Y-75323818D01*
X162337511Y-75335617D01*
X162351000Y-75403430D01*
X162351000Y-75472570D01*
X162337511Y-75540383D01*
X162337510Y-75540385D01*
X162311054Y-75604258D01*
X162272640Y-75661748D01*
X162223748Y-75710640D01*
X162166258Y-75749054D01*
X162114182Y-75770624D01*
X162102383Y-75775511D01*
X162034570Y-75789000D01*
X161965429Y-75789000D01*
X161962779Y-75788473D01*
X161938393Y-75786072D01*
X161914007Y-75788474D01*
X161890558Y-75795588D01*
X161868948Y-75807140D01*
X161850006Y-75822686D01*
X161834461Y-75841628D01*
X161822911Y-75863239D01*
X161815798Y-75886688D01*
X161813999Y-75923323D01*
X161816000Y-75943640D01*
X161816000Y-76682362D01*
X161811555Y-76727499D01*
X161800180Y-76764995D01*
X161781708Y-76799554D01*
X161756847Y-76829847D01*
X161726554Y-76854708D01*
X161691995Y-76873180D01*
X161654499Y-76884555D01*
X161609362Y-76889000D01*
X160970638Y-76889000D01*
X160925501Y-76884555D01*
X160888005Y-76873180D01*
X160853446Y-76854708D01*
X160823153Y-76829847D01*
X160798292Y-76799554D01*
X160779820Y-76764995D01*
X160768445Y-76727499D01*
X160764000Y-76682362D01*
X160764000Y-75943638D01*
X160768445Y-75898501D01*
X160779820Y-75861005D01*
X160798292Y-75826446D01*
X160823153Y-75796153D01*
X160853446Y-75771292D01*
X160888005Y-75752820D01*
X160925501Y-75741445D01*
X160970638Y-75737000D01*
X161556856Y-75737000D01*
X161581242Y-75734598D01*
X161604691Y-75727485D01*
X161626302Y-75715934D01*
X161645244Y-75700389D01*
X161660789Y-75681447D01*
X161672340Y-75659836D01*
X161679453Y-75636387D01*
X161681855Y-75612001D01*
X161679453Y-75587615D01*
X161672341Y-75564167D01*
X161662489Y-75540383D01*
X161649000Y-75472570D01*
X161649000Y-75403430D01*
X161662489Y-75335617D01*
X161672342Y-75311829D01*
X161679453Y-75288384D01*
X161681855Y-75263997D01*
X161679453Y-75239611D01*
X161672339Y-75216163D01*
X161660788Y-75194552D01*
X161645243Y-75175610D01*
X161626300Y-75160065D01*
X161604690Y-75148514D01*
X161581241Y-75141402D01*
X161556856Y-75139000D01*
X160970638Y-75139000D01*
X160925501Y-75134555D01*
X160888005Y-75123180D01*
X160853446Y-75104708D01*
X160823153Y-75079847D01*
X160798292Y-75049554D01*
X160779820Y-75014995D01*
X160768445Y-74977499D01*
X160764000Y-74932362D01*
X160764000Y-74193638D01*
X160768445Y-74148501D01*
X160779820Y-74111005D01*
X160798292Y-74076446D01*
X160823153Y-74046153D01*
X160853446Y-74021292D01*
X160888006Y-74002820D01*
X160933763Y-73988939D01*
X160956402Y-73979562D01*
X160976776Y-73965948D01*
X160994103Y-73948621D01*
X161007717Y-73928246D01*
X161017094Y-73905607D01*
X161021874Y-73881574D01*
X161021874Y-73857070D01*
X161017093Y-73833037D01*
X161001409Y-73799877D01*
X160978948Y-73766262D01*
X160952490Y-73702385D01*
X160952489Y-73702383D01*
X160939000Y-73634570D01*
X160939000Y-73565430D01*
X160952489Y-73497617D01*
X160967402Y-73461613D01*
X160978946Y-73433742D01*
X161017360Y-73376252D01*
X161066252Y-73327360D01*
X161123742Y-73288946D01*
X161187615Y-73262490D01*
X161187614Y-73262490D01*
X161187617Y-73262489D01*
X161255430Y-73249000D01*
X161324570Y-73249000D01*
X161392383Y-73262489D01*
X161392383Y-73262489D01*
G37*
G36*
X169520383Y-75100489D02*
G01*
X169520386Y-75100490D01*
X169520385Y-75100490D01*
X169584258Y-75126946D01*
X169641748Y-75165360D01*
X169690640Y-75214252D01*
X169729054Y-75271742D01*
X169750624Y-75323818D01*
X169755511Y-75335617D01*
X169769000Y-75403430D01*
X169769000Y-75472570D01*
X169755511Y-75540383D01*
X169755510Y-75540385D01*
X169729054Y-75604258D01*
X169690640Y-75661748D01*
X169641748Y-75710640D01*
X169584258Y-75749054D01*
X169532182Y-75770624D01*
X169520383Y-75775511D01*
X169452570Y-75789000D01*
X169383430Y-75789000D01*
X169315617Y-75775511D01*
X169305431Y-75771292D01*
X169251741Y-75749054D01*
X169235446Y-75738165D01*
X169213836Y-75726614D01*
X169190387Y-75719500D01*
X169166001Y-75717098D01*
X169141615Y-75719499D01*
X169118166Y-75726612D01*
X169096555Y-75738163D01*
X169077613Y-75753708D01*
X169062067Y-75772650D01*
X169050516Y-75794260D01*
X169043402Y-75817709D01*
X169041000Y-75842097D01*
X169041000Y-76701000D01*
X168139000Y-76701000D01*
X168139000Y-76497043D01*
X168136598Y-76472657D01*
X168129485Y-76449208D01*
X168117934Y-76427597D01*
X168102389Y-76408655D01*
X168083447Y-76393110D01*
X168061836Y-76381559D01*
X168038387Y-76374446D01*
X168014001Y-76372044D01*
X167989615Y-76374446D01*
X167966166Y-76381559D01*
X167944555Y-76393110D01*
X167925613Y-76408655D01*
X167915912Y-76420476D01*
X167863748Y-76472640D01*
X167806258Y-76511054D01*
X167754182Y-76532624D01*
X167742383Y-76537511D01*
X167674570Y-76551000D01*
X167605430Y-76551000D01*
X167537617Y-76537511D01*
X167525818Y-76532624D01*
X167473742Y-76511054D01*
X167416252Y-76472640D01*
X167364088Y-76420476D01*
X167354387Y-76408655D01*
X167335445Y-76393110D01*
X167313834Y-76381559D01*
X167290385Y-76374446D01*
X167265999Y-76372044D01*
X167241613Y-76374446D01*
X167218164Y-76381559D01*
X167196553Y-76393110D01*
X167177611Y-76408655D01*
X167162066Y-76427597D01*
X167150515Y-76449208D01*
X167143402Y-76472657D01*
X167141000Y-76497043D01*
X167141000Y-76701000D01*
X166239000Y-76701000D01*
X166239000Y-75699000D01*
X167141000Y-75699000D01*
X167141000Y-75902957D01*
X167143402Y-75927343D01*
X167150515Y-75950792D01*
X167162066Y-75972403D01*
X167177611Y-75991345D01*
X167196553Y-76006890D01*
X167218164Y-76018441D01*
X167241613Y-76025554D01*
X167265999Y-76027956D01*
X167290385Y-76025554D01*
X167313834Y-76018441D01*
X167335445Y-76006890D01*
X167354387Y-75991345D01*
X167364088Y-75979524D01*
X167416252Y-75927360D01*
X167473742Y-75888946D01*
X167525818Y-75867376D01*
X167537617Y-75862489D01*
X167605430Y-75849000D01*
X167674570Y-75849000D01*
X167742383Y-75862489D01*
X167754182Y-75867376D01*
X167806258Y-75888946D01*
X167863748Y-75927360D01*
X167915912Y-75979524D01*
X167925613Y-75991345D01*
X167944555Y-76006890D01*
X167966166Y-76018441D01*
X167989615Y-76025554D01*
X168014001Y-76027956D01*
X168038387Y-76025554D01*
X168061836Y-76018441D01*
X168083447Y-76006890D01*
X168102389Y-75991345D01*
X168117934Y-75972403D01*
X168129485Y-75950792D01*
X168136598Y-75927343D01*
X168139000Y-75902957D01*
X168139000Y-75699000D01*
X168959728Y-75699000D01*
X168984114Y-75696598D01*
X169007563Y-75689485D01*
X169029174Y-75677934D01*
X169048116Y-75662389D01*
X169063661Y-75643447D01*
X169075212Y-75621836D01*
X169082325Y-75598387D01*
X169084727Y-75574001D01*
X169082325Y-75549615D01*
X169067000Y-75472572D01*
X169067000Y-75403430D01*
X169080489Y-75335619D01*
X169080489Y-75335617D01*
X169085376Y-75323818D01*
X169106946Y-75271742D01*
X169145360Y-75214252D01*
X169194252Y-75165360D01*
X169251742Y-75126946D01*
X169315615Y-75100490D01*
X169315614Y-75100490D01*
X169315617Y-75100489D01*
X169383430Y-75087000D01*
X169452570Y-75087000D01*
X169520383Y-75100489D01*
X169520383Y-75100489D01*
G37*
G36*
X165289000Y-73384001D02*
G01*
X165291402Y-73408387D01*
X165298515Y-73431836D01*
X165310066Y-73453447D01*
X165325611Y-73472389D01*
X165344553Y-73487934D01*
X165366164Y-73499485D01*
X165389613Y-73506598D01*
X165413999Y-73509000D01*
X165689000Y-73509000D01*
X165689000Y-73811000D01*
X165413999Y-73811000D01*
X165389613Y-73813402D01*
X165366164Y-73820515D01*
X165344553Y-73832066D01*
X165325611Y-73847611D01*
X165310066Y-73866553D01*
X165298515Y-73888164D01*
X165291402Y-73911613D01*
X165289000Y-73935999D01*
X165289000Y-74861000D01*
X163387000Y-74861000D01*
X163387000Y-74335999D01*
X163384598Y-74311613D01*
X163377485Y-74288164D01*
X163365934Y-74266553D01*
X163350389Y-74247611D01*
X163331447Y-74232066D01*
X163309836Y-74220515D01*
X163286387Y-74213402D01*
X163262001Y-74211000D01*
X162987000Y-74211000D01*
X162987000Y-73509000D01*
X163262001Y-73509000D01*
X163286387Y-73506598D01*
X163309836Y-73499485D01*
X163331447Y-73487934D01*
X163333804Y-73485999D01*
X163889000Y-73485999D01*
X163889000Y-73834001D01*
X163891402Y-73858387D01*
X163898515Y-73881836D01*
X163910066Y-73903447D01*
X163925611Y-73922389D01*
X163944553Y-73937934D01*
X163966164Y-73949485D01*
X163989613Y-73956598D01*
X164013999Y-73959000D01*
X164662001Y-73959000D01*
X164686387Y-73956598D01*
X164709836Y-73949485D01*
X164731447Y-73937934D01*
X164750389Y-73922389D01*
X164765934Y-73903447D01*
X164777485Y-73881836D01*
X164784598Y-73858387D01*
X164787000Y-73834001D01*
X164787000Y-73485999D01*
X164784598Y-73461613D01*
X164777485Y-73438164D01*
X164765934Y-73416553D01*
X164750389Y-73397611D01*
X164731447Y-73382066D01*
X164709836Y-73370515D01*
X164686387Y-73363402D01*
X164662001Y-73361000D01*
X164013999Y-73361000D01*
X163989613Y-73363402D01*
X163966164Y-73370515D01*
X163944553Y-73382066D01*
X163925611Y-73397611D01*
X163910066Y-73416553D01*
X163898515Y-73438164D01*
X163891402Y-73461613D01*
X163889000Y-73485999D01*
X163333804Y-73485999D01*
X163350389Y-73472389D01*
X163365934Y-73453447D01*
X163377485Y-73431836D01*
X163384598Y-73408387D01*
X163387000Y-73384001D01*
X163387000Y-72459000D01*
X165289000Y-72459000D01*
X165289000Y-73384001D01*
X165289000Y-73384001D01*
G37*
G36*
X166402383Y-74084489D02*
G01*
X166402386Y-74084490D01*
X166402385Y-74084490D01*
X166466258Y-74110946D01*
X166523748Y-74149360D01*
X166572640Y-74198252D01*
X166611054Y-74255742D01*
X166624483Y-74288164D01*
X166637511Y-74319617D01*
X166651000Y-74387430D01*
X166651000Y-74456570D01*
X166637511Y-74524383D01*
X166637510Y-74524385D01*
X166611054Y-74588258D01*
X166572640Y-74645748D01*
X166523748Y-74694640D01*
X166466258Y-74733054D01*
X166414182Y-74754624D01*
X166402383Y-74759511D01*
X166334570Y-74773000D01*
X166265430Y-74773000D01*
X166197617Y-74759511D01*
X166185818Y-74754624D01*
X166133742Y-74733054D01*
X166076252Y-74694640D01*
X166027360Y-74645748D01*
X165988946Y-74588258D01*
X165962490Y-74524385D01*
X165962489Y-74524383D01*
X165949000Y-74456570D01*
X165949000Y-74387430D01*
X165962489Y-74319617D01*
X165975517Y-74288164D01*
X165988946Y-74255742D01*
X166027360Y-74198252D01*
X166076252Y-74149360D01*
X166133742Y-74110946D01*
X166197615Y-74084490D01*
X166197614Y-74084490D01*
X166197617Y-74084489D01*
X166265430Y-74071000D01*
X166334570Y-74071000D01*
X166402383Y-74084489D01*
X166402383Y-74084489D01*
G37*
G36*
X168091000Y-74701000D02*
G01*
X167189000Y-74701000D01*
X167189000Y-73699000D01*
X168091000Y-73699000D01*
X168091000Y-74701000D01*
X168091000Y-74701000D01*
G37*
G36*
X166940591Y-72122085D02*
G01*
X166974569Y-72132393D01*
X167005890Y-72149134D01*
X167033339Y-72171661D01*
X167055866Y-72199110D01*
X167072607Y-72230431D01*
X167082915Y-72264409D01*
X167087000Y-72305890D01*
X167087000Y-72982110D01*
X167082915Y-73023591D01*
X167072607Y-73057569D01*
X167055866Y-73088890D01*
X167033339Y-73116339D01*
X167005890Y-73138866D01*
X166974569Y-73155607D01*
X166940591Y-73165915D01*
X166899110Y-73170000D01*
X166297890Y-73170000D01*
X166256409Y-73165915D01*
X166222431Y-73155607D01*
X166191110Y-73138866D01*
X166163661Y-73116339D01*
X166141134Y-73088890D01*
X166124393Y-73057569D01*
X166114085Y-73023591D01*
X166110000Y-72982110D01*
X166110000Y-72305890D01*
X166114085Y-72264409D01*
X166124393Y-72230431D01*
X166141134Y-72199110D01*
X166163661Y-72171661D01*
X166191110Y-72149134D01*
X166222431Y-72132393D01*
X166256409Y-72122085D01*
X166297890Y-72118000D01*
X166899110Y-72118000D01*
X166940591Y-72122085D01*
X166940591Y-72122085D01*
G37*
G36*
X168515591Y-72122085D02*
G01*
X168549569Y-72132393D01*
X168580890Y-72149134D01*
X168608339Y-72171661D01*
X168630866Y-72199110D01*
X168647607Y-72230431D01*
X168657915Y-72264409D01*
X168662000Y-72305890D01*
X168662000Y-72982110D01*
X168657915Y-73023591D01*
X168647607Y-73057569D01*
X168630866Y-73088890D01*
X168608339Y-73116339D01*
X168580890Y-73138866D01*
X168549569Y-73155607D01*
X168515591Y-73165915D01*
X168474110Y-73170000D01*
X167872890Y-73170000D01*
X167831409Y-73165915D01*
X167797431Y-73155607D01*
X167766110Y-73138866D01*
X167738661Y-73116339D01*
X167716134Y-73088890D01*
X167699393Y-73057569D01*
X167689085Y-73023591D01*
X167685000Y-72982110D01*
X167685000Y-72305890D01*
X167689085Y-72264409D01*
X167699393Y-72230431D01*
X167716134Y-72199110D01*
X167738661Y-72171661D01*
X167766110Y-72149134D01*
X167797431Y-72132393D01*
X167831409Y-72122085D01*
X167872890Y-72118000D01*
X168474110Y-72118000D01*
X168515591Y-72122085D01*
X168515591Y-72122085D01*
G37*
G36*
X162102383Y-71362489D02*
G01*
X162102386Y-71362490D01*
X162102385Y-71362490D01*
X162166258Y-71388946D01*
X162223748Y-71427360D01*
X162272640Y-71476252D01*
X162311054Y-71533742D01*
X162332624Y-71585818D01*
X162337511Y-71597617D01*
X162351000Y-71665430D01*
X162351000Y-71734570D01*
X162337511Y-71802383D01*
X162337510Y-71802385D01*
X162311054Y-71866258D01*
X162272640Y-71923748D01*
X162223748Y-71972640D01*
X162166258Y-72011054D01*
X162114182Y-72032624D01*
X162102383Y-72037511D01*
X162034570Y-72051000D01*
X161965430Y-72051000D01*
X161897617Y-72037511D01*
X161885818Y-72032624D01*
X161833742Y-72011054D01*
X161776252Y-71972640D01*
X161727360Y-71923748D01*
X161688946Y-71866258D01*
X161662490Y-71802385D01*
X161662489Y-71802383D01*
X161649000Y-71734570D01*
X161649000Y-71665430D01*
X161662489Y-71597617D01*
X161667376Y-71585818D01*
X161688946Y-71533742D01*
X161727360Y-71476252D01*
X161776252Y-71427360D01*
X161833742Y-71388946D01*
X161897615Y-71362490D01*
X161897614Y-71362490D01*
X161897617Y-71362489D01*
X161965430Y-71349000D01*
X162034570Y-71349000D01*
X162102383Y-71362489D01*
X162102383Y-71362489D01*
G37*
G36*
X163302383Y-71290489D02*
G01*
X163302386Y-71290490D01*
X163302385Y-71290490D01*
X163366258Y-71316946D01*
X163423748Y-71355360D01*
X163472640Y-71404252D01*
X163511054Y-71461742D01*
X163532624Y-71513818D01*
X163537511Y-71525617D01*
X163551000Y-71593430D01*
X163551000Y-71662570D01*
X163537511Y-71730383D01*
X163537510Y-71730385D01*
X163511054Y-71794258D01*
X163472640Y-71851748D01*
X163423748Y-71900640D01*
X163366258Y-71939054D01*
X163314182Y-71960624D01*
X163302383Y-71965511D01*
X163234570Y-71979000D01*
X163165430Y-71979000D01*
X163097617Y-71965511D01*
X163085818Y-71960624D01*
X163033742Y-71939054D01*
X162976252Y-71900640D01*
X162927360Y-71851748D01*
X162888946Y-71794258D01*
X162862490Y-71730385D01*
X162862489Y-71730383D01*
X162849000Y-71662570D01*
X162849000Y-71593430D01*
X162862489Y-71525617D01*
X162867376Y-71513818D01*
X162888946Y-71461742D01*
X162927360Y-71404252D01*
X162976252Y-71355360D01*
X163033742Y-71316946D01*
X163097615Y-71290490D01*
X163097614Y-71290490D01*
X163097617Y-71290489D01*
X163165430Y-71277000D01*
X163234570Y-71277000D01*
X163302383Y-71290489D01*
X163302383Y-71290489D01*
G37*
G36*
X163170383Y-68496489D02*
G01*
X163170386Y-68496490D01*
X163170385Y-68496490D01*
X163234258Y-68522946D01*
X163291748Y-68561360D01*
X163340640Y-68610252D01*
X163379054Y-68667742D01*
X163400624Y-68719818D01*
X163405511Y-68731617D01*
X163419000Y-68799430D01*
X163419000Y-68868570D01*
X163405511Y-68936383D01*
X163405510Y-68936385D01*
X163379054Y-69000258D01*
X163340640Y-69057748D01*
X163291748Y-69106640D01*
X163234258Y-69145054D01*
X163182182Y-69166624D01*
X163170383Y-69171511D01*
X163102570Y-69185000D01*
X163033430Y-69185000D01*
X162965617Y-69171511D01*
X162953818Y-69166624D01*
X162901742Y-69145054D01*
X162844252Y-69106640D01*
X162795360Y-69057748D01*
X162756946Y-69000258D01*
X162730490Y-68936385D01*
X162730489Y-68936383D01*
X162717000Y-68868570D01*
X162717000Y-68799430D01*
X162730489Y-68731617D01*
X162735376Y-68719818D01*
X162756946Y-68667742D01*
X162795360Y-68610252D01*
X162844252Y-68561360D01*
X162901742Y-68522946D01*
X162965615Y-68496490D01*
X162965614Y-68496490D01*
X162965617Y-68496489D01*
X163033430Y-68483000D01*
X163102570Y-68483000D01*
X163170383Y-68496489D01*
X163170383Y-68496489D01*
G37*
G36*
X161646383Y-68496489D02*
G01*
X161646386Y-68496490D01*
X161646385Y-68496490D01*
X161710258Y-68522946D01*
X161767748Y-68561360D01*
X161816640Y-68610252D01*
X161855054Y-68667742D01*
X161876624Y-68719818D01*
X161881511Y-68731617D01*
X161895000Y-68799430D01*
X161895000Y-68868570D01*
X161881511Y-68936383D01*
X161881510Y-68936385D01*
X161855054Y-69000258D01*
X161816640Y-69057748D01*
X161767748Y-69106640D01*
X161710258Y-69145054D01*
X161658182Y-69166624D01*
X161646383Y-69171511D01*
X161578570Y-69185000D01*
X161509430Y-69185000D01*
X161441617Y-69171511D01*
X161429818Y-69166624D01*
X161377742Y-69145054D01*
X161320252Y-69106640D01*
X161271360Y-69057748D01*
X161232946Y-69000258D01*
X161206490Y-68936385D01*
X161206489Y-68936383D01*
X161193000Y-68868570D01*
X161193000Y-68799430D01*
X161206489Y-68731617D01*
X161211376Y-68719818D01*
X161232946Y-68667742D01*
X161271360Y-68610252D01*
X161320252Y-68561360D01*
X161377742Y-68522946D01*
X161441615Y-68496490D01*
X161441614Y-68496490D01*
X161441617Y-68496489D01*
X161509430Y-68483000D01*
X161578570Y-68483000D01*
X161646383Y-68496489D01*
X161646383Y-68496489D01*
G37*
G36*
X167242442Y-66161518D02*
G01*
X167308627Y-66168037D01*
X167478466Y-66219557D01*
X167634991Y-66303222D01*
X167670729Y-66332552D01*
X167772186Y-66415814D01*
X167855448Y-66517271D01*
X167884778Y-66553009D01*
X167968443Y-66709534D01*
X168019963Y-66879373D01*
X168037359Y-67056000D01*
X168019963Y-67232627D01*
X167968443Y-67402466D01*
X167884778Y-67558991D01*
X167855448Y-67594729D01*
X167772186Y-67696186D01*
X167670729Y-67779448D01*
X167634991Y-67808778D01*
X167478466Y-67892443D01*
X167308627Y-67943963D01*
X167242442Y-67950482D01*
X167176260Y-67957000D01*
X167087740Y-67957000D01*
X167021558Y-67950482D01*
X166955373Y-67943963D01*
X166785534Y-67892443D01*
X166629009Y-67808778D01*
X166593271Y-67779448D01*
X166491814Y-67696186D01*
X166408552Y-67594729D01*
X166379222Y-67558991D01*
X166295557Y-67402466D01*
X166244037Y-67232627D01*
X166226641Y-67056000D01*
X166244037Y-66879373D01*
X166295557Y-66709534D01*
X166379222Y-66553009D01*
X166408552Y-66517271D01*
X166491814Y-66415814D01*
X166593271Y-66332552D01*
X166629009Y-66303222D01*
X166785534Y-66219557D01*
X166955373Y-66168037D01*
X167021558Y-66161518D01*
X167087740Y-66155000D01*
X167176260Y-66155000D01*
X167242442Y-66161518D01*
X167242442Y-66161518D01*
G37*
G36*
X164702442Y-66161518D02*
G01*
X164768627Y-66168037D01*
X164938466Y-66219557D01*
X165094991Y-66303222D01*
X165130729Y-66332552D01*
X165232186Y-66415814D01*
X165315448Y-66517271D01*
X165344778Y-66553009D01*
X165428443Y-66709534D01*
X165479963Y-66879373D01*
X165497359Y-67056000D01*
X165479963Y-67232627D01*
X165428443Y-67402466D01*
X165344778Y-67558991D01*
X165315448Y-67594729D01*
X165232186Y-67696186D01*
X165130729Y-67779448D01*
X165094991Y-67808778D01*
X164938466Y-67892443D01*
X164768627Y-67943963D01*
X164702442Y-67950482D01*
X164636260Y-67957000D01*
X164547740Y-67957000D01*
X164481558Y-67950482D01*
X164415373Y-67943963D01*
X164245534Y-67892443D01*
X164089009Y-67808778D01*
X164053271Y-67779448D01*
X163951814Y-67696186D01*
X163868552Y-67594729D01*
X163839222Y-67558991D01*
X163755557Y-67402466D01*
X163704037Y-67232627D01*
X163686641Y-67056000D01*
X163704037Y-66879373D01*
X163755557Y-66709534D01*
X163839222Y-66553009D01*
X163868552Y-66517271D01*
X163951814Y-66415814D01*
X164053271Y-66332552D01*
X164089009Y-66303222D01*
X164245534Y-66219557D01*
X164415373Y-66168037D01*
X164481558Y-66161518D01*
X164547740Y-66155000D01*
X164636260Y-66155000D01*
X164702442Y-66161518D01*
X164702442Y-66161518D01*
G37*
G36*
X162162442Y-66161518D02*
G01*
X162228627Y-66168037D01*
X162398466Y-66219557D01*
X162554991Y-66303222D01*
X162590729Y-66332552D01*
X162692186Y-66415814D01*
X162775448Y-66517271D01*
X162804778Y-66553009D01*
X162888443Y-66709534D01*
X162939963Y-66879373D01*
X162957359Y-67056000D01*
X162939963Y-67232627D01*
X162888443Y-67402466D01*
X162804778Y-67558991D01*
X162775448Y-67594729D01*
X162692186Y-67696186D01*
X162590729Y-67779448D01*
X162554991Y-67808778D01*
X162398466Y-67892443D01*
X162228627Y-67943963D01*
X162162442Y-67950482D01*
X162096260Y-67957000D01*
X162007740Y-67957000D01*
X161941558Y-67950482D01*
X161875373Y-67943963D01*
X161705534Y-67892443D01*
X161549009Y-67808778D01*
X161513271Y-67779448D01*
X161411814Y-67696186D01*
X161328552Y-67594729D01*
X161299222Y-67558991D01*
X161215557Y-67402466D01*
X161164037Y-67232627D01*
X161146641Y-67056000D01*
X161164037Y-66879373D01*
X161215557Y-66709534D01*
X161299222Y-66553009D01*
X161328552Y-66517271D01*
X161411814Y-66415814D01*
X161513271Y-66332552D01*
X161549009Y-66303222D01*
X161705534Y-66219557D01*
X161875373Y-66168037D01*
X161941558Y-66161518D01*
X162007740Y-66155000D01*
X162096260Y-66155000D01*
X162162442Y-66161518D01*
X162162442Y-66161518D01*
G37*
G36*
X168033000Y-65417000D02*
G01*
X166231000Y-65417000D01*
X166231000Y-63615000D01*
X168033000Y-63615000D01*
X168033000Y-65417000D01*
X168033000Y-65417000D01*
G37*
G36*
X164702443Y-63621519D02*
G01*
X164768627Y-63628037D01*
X164938466Y-63679557D01*
X165094991Y-63763222D01*
X165130729Y-63792552D01*
X165232186Y-63875814D01*
X165315448Y-63977271D01*
X165344778Y-64013009D01*
X165428443Y-64169534D01*
X165479963Y-64339373D01*
X165497359Y-64516000D01*
X165479963Y-64692627D01*
X165428443Y-64862466D01*
X165344778Y-65018991D01*
X165315448Y-65054729D01*
X165232186Y-65156186D01*
X165130729Y-65239448D01*
X165094991Y-65268778D01*
X164938466Y-65352443D01*
X164768627Y-65403963D01*
X164702443Y-65410481D01*
X164636260Y-65417000D01*
X164547740Y-65417000D01*
X164481557Y-65410481D01*
X164415373Y-65403963D01*
X164245534Y-65352443D01*
X164089009Y-65268778D01*
X164053271Y-65239448D01*
X163951814Y-65156186D01*
X163868552Y-65054729D01*
X163839222Y-65018991D01*
X163755557Y-64862466D01*
X163704037Y-64692627D01*
X163686641Y-64516000D01*
X163704037Y-64339373D01*
X163755557Y-64169534D01*
X163839222Y-64013009D01*
X163868552Y-63977271D01*
X163951814Y-63875814D01*
X164053271Y-63792552D01*
X164089009Y-63763222D01*
X164245534Y-63679557D01*
X164415373Y-63628037D01*
X164481557Y-63621519D01*
X164547740Y-63615000D01*
X164636260Y-63615000D01*
X164702443Y-63621519D01*
X164702443Y-63621519D01*
G37*
G36*
X162162443Y-63621519D02*
G01*
X162228627Y-63628037D01*
X162398466Y-63679557D01*
X162554991Y-63763222D01*
X162590729Y-63792552D01*
X162692186Y-63875814D01*
X162775448Y-63977271D01*
X162804778Y-64013009D01*
X162888443Y-64169534D01*
X162939963Y-64339373D01*
X162957359Y-64516000D01*
X162939963Y-64692627D01*
X162888443Y-64862466D01*
X162804778Y-65018991D01*
X162775448Y-65054729D01*
X162692186Y-65156186D01*
X162590729Y-65239448D01*
X162554991Y-65268778D01*
X162398466Y-65352443D01*
X162228627Y-65403963D01*
X162162443Y-65410481D01*
X162096260Y-65417000D01*
X162007740Y-65417000D01*
X161941557Y-65410481D01*
X161875373Y-65403963D01*
X161705534Y-65352443D01*
X161549009Y-65268778D01*
X161513271Y-65239448D01*
X161411814Y-65156186D01*
X161328552Y-65054729D01*
X161299222Y-65018991D01*
X161215557Y-64862466D01*
X161164037Y-64692627D01*
X161146641Y-64516000D01*
X161164037Y-64339373D01*
X161215557Y-64169534D01*
X161299222Y-64013009D01*
X161328552Y-63977271D01*
X161411814Y-63875814D01*
X161513271Y-63792552D01*
X161549009Y-63763222D01*
X161705534Y-63679557D01*
X161875373Y-63628037D01*
X161941557Y-63621519D01*
X162007740Y-63615000D01*
X162096260Y-63615000D01*
X162162443Y-63621519D01*
X162162443Y-63621519D01*
G37*
G36*
X170748228Y-63181703D02*
G01*
X170903100Y-63245853D01*
X171042481Y-63338985D01*
X171161015Y-63457519D01*
X171254147Y-63596900D01*
X171318297Y-63751772D01*
X171351000Y-63916184D01*
X171351000Y-64083816D01*
X171318297Y-64248228D01*
X171254147Y-64403100D01*
X171161015Y-64542481D01*
X171042481Y-64661015D01*
X170903100Y-64754147D01*
X170748228Y-64818297D01*
X170583816Y-64851000D01*
X170416184Y-64851000D01*
X170251772Y-64818297D01*
X170096900Y-64754147D01*
X169957519Y-64661015D01*
X169838985Y-64542481D01*
X169745853Y-64403100D01*
X169681703Y-64248228D01*
X169649000Y-64083816D01*
X169649000Y-63916184D01*
X169681703Y-63751772D01*
X169745853Y-63596900D01*
X169838985Y-63457519D01*
X169957519Y-63338985D01*
X170096900Y-63245853D01*
X170251772Y-63181703D01*
X170416184Y-63149000D01*
X170583816Y-63149000D01*
X170748228Y-63181703D01*
X170748228Y-63181703D01*
G37*
M02*
