G04 #@! TF.GenerationSoftware,KiCad,Pcbnew,(5.1.0)-1*
G04 #@! TF.CreationDate,2019-11-12T11:38:22+01:00*
G04 #@! TF.ProjectId,third_channel_half_bridge,74686972-645f-4636-9861-6e6e656c5f68,rev?*
G04 #@! TF.SameCoordinates,Original*
G04 #@! TF.FileFunction,Legend,Top*
G04 #@! TF.FilePolarity,Positive*
%FSLAX46Y46*%
G04 Gerber Fmt 4.6, Leading zero omitted, Abs format (unit mm)*
G04 Created by KiCad (PCBNEW (5.1.0)-1) date 2019-11-12 11:38:22*
%MOMM*%
%LPD*%
G04 APERTURE LIST*
%ADD10C,0.100000*%
%ADD11C,0.152400*%
%ADD12C,0.120000*%
%ADD13C,0.050000*%
%ADD14C,0.150000*%
G04 APERTURE END LIST*
D10*
X149664761Y-112228571D02*
X149640952Y-112252380D01*
X149569523Y-112276190D01*
X149521904Y-112276190D01*
X149450476Y-112252380D01*
X149402857Y-112204761D01*
X149379047Y-112157142D01*
X149355238Y-112061904D01*
X149355238Y-111990476D01*
X149379047Y-111895238D01*
X149402857Y-111847619D01*
X149450476Y-111800000D01*
X149521904Y-111776190D01*
X149569523Y-111776190D01*
X149640952Y-111800000D01*
X149664761Y-111823809D01*
X149879047Y-112276190D02*
X149879047Y-111776190D01*
X149879047Y-112014285D02*
X150164761Y-112014285D01*
X150164761Y-112276190D02*
X150164761Y-111776190D01*
X150355238Y-111776190D02*
X150664761Y-111776190D01*
X150498095Y-111966666D01*
X150569523Y-111966666D01*
X150617142Y-111990476D01*
X150640952Y-112014285D01*
X150664761Y-112061904D01*
X150664761Y-112180952D01*
X150640952Y-112228571D01*
X150617142Y-112252380D01*
X150569523Y-112276190D01*
X150426666Y-112276190D01*
X150379047Y-112252380D01*
X150355238Y-112228571D01*
D11*
X136392600Y-112576600D02*
X140659800Y-112576600D01*
X140659800Y-107293400D02*
X136392600Y-107293400D01*
D12*
X133320000Y-107791078D02*
X133320000Y-107273922D01*
X131900000Y-107791078D02*
X131900000Y-107273922D01*
X133320000Y-111366078D02*
X133320000Y-110848922D01*
X131900000Y-111366078D02*
X131900000Y-110848922D01*
D13*
X143210029Y-112517521D02*
X143210029Y-112772489D01*
X143225027Y-112802486D01*
X143240026Y-112817484D01*
X143270022Y-112832482D01*
X143330014Y-112832482D01*
X143360011Y-112817484D01*
X143375009Y-112802486D01*
X143390007Y-112772489D01*
X143390007Y-112517521D01*
X143524990Y-112547517D02*
X143539988Y-112532519D01*
X143569985Y-112517521D01*
X143644975Y-112517521D01*
X143674972Y-112532519D01*
X143689970Y-112547517D01*
X143704968Y-112577513D01*
X143704968Y-112607510D01*
X143689970Y-112652504D01*
X143509992Y-112832482D01*
X143704968Y-112832482D01*
D14*
X134842380Y-106571666D02*
X134366190Y-106905000D01*
X134842380Y-107143095D02*
X133842380Y-107143095D01*
X133842380Y-106762142D01*
X133890000Y-106666904D01*
X133937619Y-106619285D01*
X134032857Y-106571666D01*
X134175714Y-106571666D01*
X134270952Y-106619285D01*
X134318571Y-106666904D01*
X134366190Y-106762142D01*
X134366190Y-107143095D01*
X133842380Y-105714523D02*
X133842380Y-105905000D01*
X133890000Y-106000238D01*
X133937619Y-106047857D01*
X134080476Y-106143095D01*
X134270952Y-106190714D01*
X134651904Y-106190714D01*
X134747142Y-106143095D01*
X134794761Y-106095476D01*
X134842380Y-106000238D01*
X134842380Y-105809761D01*
X134794761Y-105714523D01*
X134747142Y-105666904D01*
X134651904Y-105619285D01*
X134413809Y-105619285D01*
X134318571Y-105666904D01*
X134270952Y-105714523D01*
X134223333Y-105809761D01*
X134223333Y-106000238D01*
X134270952Y-106095476D01*
X134318571Y-106143095D01*
X134413809Y-106190714D01*
X134922380Y-108701666D02*
X134446190Y-109035000D01*
X134922380Y-109273095D02*
X133922380Y-109273095D01*
X133922380Y-108892142D01*
X133970000Y-108796904D01*
X134017619Y-108749285D01*
X134112857Y-108701666D01*
X134255714Y-108701666D01*
X134350952Y-108749285D01*
X134398571Y-108796904D01*
X134446190Y-108892142D01*
X134446190Y-109273095D01*
X133922380Y-107796904D02*
X133922380Y-108273095D01*
X134398571Y-108320714D01*
X134350952Y-108273095D01*
X134303333Y-108177857D01*
X134303333Y-107939761D01*
X134350952Y-107844523D01*
X134398571Y-107796904D01*
X134493809Y-107749285D01*
X134731904Y-107749285D01*
X134827142Y-107796904D01*
X134874761Y-107844523D01*
X134922380Y-107939761D01*
X134922380Y-108177857D01*
X134874761Y-108273095D01*
X134827142Y-108320714D01*
M02*
