G04 #@! TF.GenerationSoftware,KiCad,Pcbnew,(5.1.0)-1*
G04 #@! TF.CreationDate,2019-10-08T15:24:56+02:00*
G04 #@! TF.ProjectId,pcb connexion,70636220-636f-46e6-9e65-78696f6e2e6b,rev?*
G04 #@! TF.SameCoordinates,Original*
G04 #@! TF.FileFunction,Legend,Top*
G04 #@! TF.FilePolarity,Positive*
%FSLAX46Y46*%
G04 Gerber Fmt 4.6, Leading zero omitted, Abs format (unit mm)*
G04 Created by KiCad (PCBNEW (5.1.0)-1) date 2019-10-08 15:24:56*
%MOMM*%
%LPD*%
G04 APERTURE LIST*
%ADD10C,0.050000*%
%ADD11C,0.120000*%
G04 APERTURE END LIST*
D10*
X138754761Y-81860952D02*
X138678571Y-81860952D01*
X138640476Y-81880000D01*
X138621428Y-81899047D01*
X138583333Y-81956190D01*
X138564285Y-82032380D01*
X138564285Y-82184761D01*
X138583333Y-82222857D01*
X138602380Y-82241904D01*
X138640476Y-82260952D01*
X138716666Y-82260952D01*
X138754761Y-82241904D01*
X138773809Y-82222857D01*
X138792857Y-82184761D01*
X138792857Y-82089523D01*
X138773809Y-82051428D01*
X138754761Y-82032380D01*
X138716666Y-82013333D01*
X138640476Y-82013333D01*
X138602380Y-82032380D01*
X138583333Y-82051428D01*
X138564285Y-82089523D01*
X138945238Y-81899047D02*
X138964285Y-81880000D01*
X139002380Y-81860952D01*
X139097619Y-81860952D01*
X139135714Y-81880000D01*
X139154761Y-81899047D01*
X139173809Y-81937142D01*
X139173809Y-81975238D01*
X139154761Y-82032380D01*
X138926190Y-82260952D01*
X139173809Y-82260952D01*
X139326190Y-81899047D02*
X139345238Y-81880000D01*
X139383333Y-81860952D01*
X139478571Y-81860952D01*
X139516666Y-81880000D01*
X139535714Y-81899047D01*
X139554761Y-81937142D01*
X139554761Y-81975238D01*
X139535714Y-82032380D01*
X139307142Y-82260952D01*
X139554761Y-82260952D01*
X139688095Y-81860952D02*
X139954761Y-81860952D01*
X139783333Y-82260952D01*
D11*
X143800000Y-73950000D02*
X143800000Y-81650000D01*
X138500000Y-73950000D02*
X138500000Y-81650000D01*
X138500000Y-81650000D02*
X143800000Y-81650000D01*
X138500000Y-73950000D02*
X143800000Y-73950000D01*
X130000000Y-81600000D02*
X136400000Y-81600000D01*
X136400000Y-74000000D02*
X136400000Y-81600000D01*
X130000000Y-74000000D02*
X130000000Y-81600000D01*
X130000000Y-74000000D02*
X136400000Y-74000000D01*
M02*
