G04 #@! TF.GenerationSoftware,KiCad,Pcbnew,(5.1.0)-1*
G04 #@! TF.CreationDate,2019-11-14T11:54:30+01:00*
G04 #@! TF.ProjectId,perpendicular_pcb,70657270-656e-4646-9963-756c61725f70,rev?*
G04 #@! TF.SameCoordinates,Original*
G04 #@! TF.FileFunction,Paste,Top*
G04 #@! TF.FilePolarity,Positive*
%FSLAX46Y46*%
G04 Gerber Fmt 4.6, Leading zero omitted, Abs format (unit mm)*
G04 Created by KiCad (PCBNEW (5.1.0)-1) date 2019-11-14 11:54:30*
%MOMM*%
%LPD*%
G04 APERTURE LIST*
%ADD10C,0.100000*%
%ADD11C,0.975000*%
%ADD12C,0.533400*%
%ADD13R,1.600200X0.533400*%
%ADD14R,2.286000X2.286000*%
G04 APERTURE END LIST*
D10*
G36*
X156712642Y-82841174D02*
G01*
X156736303Y-82844684D01*
X156759507Y-82850496D01*
X156782029Y-82858554D01*
X156803653Y-82868782D01*
X156824170Y-82881079D01*
X156843383Y-82895329D01*
X156861107Y-82911393D01*
X156877171Y-82929117D01*
X156891421Y-82948330D01*
X156903718Y-82968847D01*
X156913946Y-82990471D01*
X156922004Y-83012993D01*
X156927816Y-83036197D01*
X156931326Y-83059858D01*
X156932500Y-83083750D01*
X156932500Y-83996250D01*
X156931326Y-84020142D01*
X156927816Y-84043803D01*
X156922004Y-84067007D01*
X156913946Y-84089529D01*
X156903718Y-84111153D01*
X156891421Y-84131670D01*
X156877171Y-84150883D01*
X156861107Y-84168607D01*
X156843383Y-84184671D01*
X156824170Y-84198921D01*
X156803653Y-84211218D01*
X156782029Y-84221446D01*
X156759507Y-84229504D01*
X156736303Y-84235316D01*
X156712642Y-84238826D01*
X156688750Y-84240000D01*
X156201250Y-84240000D01*
X156177358Y-84238826D01*
X156153697Y-84235316D01*
X156130493Y-84229504D01*
X156107971Y-84221446D01*
X156086347Y-84211218D01*
X156065830Y-84198921D01*
X156046617Y-84184671D01*
X156028893Y-84168607D01*
X156012829Y-84150883D01*
X155998579Y-84131670D01*
X155986282Y-84111153D01*
X155976054Y-84089529D01*
X155967996Y-84067007D01*
X155962184Y-84043803D01*
X155958674Y-84020142D01*
X155957500Y-83996250D01*
X155957500Y-83083750D01*
X155958674Y-83059858D01*
X155962184Y-83036197D01*
X155967996Y-83012993D01*
X155976054Y-82990471D01*
X155986282Y-82968847D01*
X155998579Y-82948330D01*
X156012829Y-82929117D01*
X156028893Y-82911393D01*
X156046617Y-82895329D01*
X156065830Y-82881079D01*
X156086347Y-82868782D01*
X156107971Y-82858554D01*
X156130493Y-82850496D01*
X156153697Y-82844684D01*
X156177358Y-82841174D01*
X156201250Y-82840000D01*
X156688750Y-82840000D01*
X156712642Y-82841174D01*
X156712642Y-82841174D01*
G37*
D11*
X156445000Y-83540000D03*
D10*
G36*
X154837642Y-82841174D02*
G01*
X154861303Y-82844684D01*
X154884507Y-82850496D01*
X154907029Y-82858554D01*
X154928653Y-82868782D01*
X154949170Y-82881079D01*
X154968383Y-82895329D01*
X154986107Y-82911393D01*
X155002171Y-82929117D01*
X155016421Y-82948330D01*
X155028718Y-82968847D01*
X155038946Y-82990471D01*
X155047004Y-83012993D01*
X155052816Y-83036197D01*
X155056326Y-83059858D01*
X155057500Y-83083750D01*
X155057500Y-83996250D01*
X155056326Y-84020142D01*
X155052816Y-84043803D01*
X155047004Y-84067007D01*
X155038946Y-84089529D01*
X155028718Y-84111153D01*
X155016421Y-84131670D01*
X155002171Y-84150883D01*
X154986107Y-84168607D01*
X154968383Y-84184671D01*
X154949170Y-84198921D01*
X154928653Y-84211218D01*
X154907029Y-84221446D01*
X154884507Y-84229504D01*
X154861303Y-84235316D01*
X154837642Y-84238826D01*
X154813750Y-84240000D01*
X154326250Y-84240000D01*
X154302358Y-84238826D01*
X154278697Y-84235316D01*
X154255493Y-84229504D01*
X154232971Y-84221446D01*
X154211347Y-84211218D01*
X154190830Y-84198921D01*
X154171617Y-84184671D01*
X154153893Y-84168607D01*
X154137829Y-84150883D01*
X154123579Y-84131670D01*
X154111282Y-84111153D01*
X154101054Y-84089529D01*
X154092996Y-84067007D01*
X154087184Y-84043803D01*
X154083674Y-84020142D01*
X154082500Y-83996250D01*
X154082500Y-83083750D01*
X154083674Y-83059858D01*
X154087184Y-83036197D01*
X154092996Y-83012993D01*
X154101054Y-82990471D01*
X154111282Y-82968847D01*
X154123579Y-82948330D01*
X154137829Y-82929117D01*
X154153893Y-82911393D01*
X154171617Y-82895329D01*
X154190830Y-82881079D01*
X154211347Y-82868782D01*
X154232971Y-82858554D01*
X154255493Y-82850496D01*
X154278697Y-82844684D01*
X154302358Y-82841174D01*
X154326250Y-82840000D01*
X154813750Y-82840000D01*
X154837642Y-82841174D01*
X154837642Y-82841174D01*
G37*
D11*
X154570000Y-83540000D03*
D10*
G36*
X159860142Y-86401174D02*
G01*
X159883803Y-86404684D01*
X159907007Y-86410496D01*
X159929529Y-86418554D01*
X159951153Y-86428782D01*
X159971670Y-86441079D01*
X159990883Y-86455329D01*
X160008607Y-86471393D01*
X160024671Y-86489117D01*
X160038921Y-86508330D01*
X160051218Y-86528847D01*
X160061446Y-86550471D01*
X160069504Y-86572993D01*
X160075316Y-86596197D01*
X160078826Y-86619858D01*
X160080000Y-86643750D01*
X160080000Y-87131250D01*
X160078826Y-87155142D01*
X160075316Y-87178803D01*
X160069504Y-87202007D01*
X160061446Y-87224529D01*
X160051218Y-87246153D01*
X160038921Y-87266670D01*
X160024671Y-87285883D01*
X160008607Y-87303607D01*
X159990883Y-87319671D01*
X159971670Y-87333921D01*
X159951153Y-87346218D01*
X159929529Y-87356446D01*
X159907007Y-87364504D01*
X159883803Y-87370316D01*
X159860142Y-87373826D01*
X159836250Y-87375000D01*
X158923750Y-87375000D01*
X158899858Y-87373826D01*
X158876197Y-87370316D01*
X158852993Y-87364504D01*
X158830471Y-87356446D01*
X158808847Y-87346218D01*
X158788330Y-87333921D01*
X158769117Y-87319671D01*
X158751393Y-87303607D01*
X158735329Y-87285883D01*
X158721079Y-87266670D01*
X158708782Y-87246153D01*
X158698554Y-87224529D01*
X158690496Y-87202007D01*
X158684684Y-87178803D01*
X158681174Y-87155142D01*
X158680000Y-87131250D01*
X158680000Y-86643750D01*
X158681174Y-86619858D01*
X158684684Y-86596197D01*
X158690496Y-86572993D01*
X158698554Y-86550471D01*
X158708782Y-86528847D01*
X158721079Y-86508330D01*
X158735329Y-86489117D01*
X158751393Y-86471393D01*
X158769117Y-86455329D01*
X158788330Y-86441079D01*
X158808847Y-86428782D01*
X158830471Y-86418554D01*
X158852993Y-86410496D01*
X158876197Y-86404684D01*
X158899858Y-86401174D01*
X158923750Y-86400000D01*
X159836250Y-86400000D01*
X159860142Y-86401174D01*
X159860142Y-86401174D01*
G37*
D11*
X159380000Y-86887500D03*
D10*
G36*
X159860142Y-84526174D02*
G01*
X159883803Y-84529684D01*
X159907007Y-84535496D01*
X159929529Y-84543554D01*
X159951153Y-84553782D01*
X159971670Y-84566079D01*
X159990883Y-84580329D01*
X160008607Y-84596393D01*
X160024671Y-84614117D01*
X160038921Y-84633330D01*
X160051218Y-84653847D01*
X160061446Y-84675471D01*
X160069504Y-84697993D01*
X160075316Y-84721197D01*
X160078826Y-84744858D01*
X160080000Y-84768750D01*
X160080000Y-85256250D01*
X160078826Y-85280142D01*
X160075316Y-85303803D01*
X160069504Y-85327007D01*
X160061446Y-85349529D01*
X160051218Y-85371153D01*
X160038921Y-85391670D01*
X160024671Y-85410883D01*
X160008607Y-85428607D01*
X159990883Y-85444671D01*
X159971670Y-85458921D01*
X159951153Y-85471218D01*
X159929529Y-85481446D01*
X159907007Y-85489504D01*
X159883803Y-85495316D01*
X159860142Y-85498826D01*
X159836250Y-85500000D01*
X158923750Y-85500000D01*
X158899858Y-85498826D01*
X158876197Y-85495316D01*
X158852993Y-85489504D01*
X158830471Y-85481446D01*
X158808847Y-85471218D01*
X158788330Y-85458921D01*
X158769117Y-85444671D01*
X158751393Y-85428607D01*
X158735329Y-85410883D01*
X158721079Y-85391670D01*
X158708782Y-85371153D01*
X158698554Y-85349529D01*
X158690496Y-85327007D01*
X158684684Y-85303803D01*
X158681174Y-85280142D01*
X158680000Y-85256250D01*
X158680000Y-84768750D01*
X158681174Y-84744858D01*
X158684684Y-84721197D01*
X158690496Y-84697993D01*
X158698554Y-84675471D01*
X158708782Y-84653847D01*
X158721079Y-84633330D01*
X158735329Y-84614117D01*
X158751393Y-84596393D01*
X158769117Y-84580329D01*
X158788330Y-84566079D01*
X158808847Y-84553782D01*
X158830471Y-84543554D01*
X158852993Y-84535496D01*
X158876197Y-84529684D01*
X158899858Y-84526174D01*
X158923750Y-84525000D01*
X159836250Y-84525000D01*
X159860142Y-84526174D01*
X159860142Y-84526174D01*
G37*
D11*
X159380000Y-85012500D03*
D10*
G36*
X146022642Y-90961174D02*
G01*
X146046303Y-90964684D01*
X146069507Y-90970496D01*
X146092029Y-90978554D01*
X146113653Y-90988782D01*
X146134170Y-91001079D01*
X146153383Y-91015329D01*
X146171107Y-91031393D01*
X146187171Y-91049117D01*
X146201421Y-91068330D01*
X146213718Y-91088847D01*
X146223946Y-91110471D01*
X146232004Y-91132993D01*
X146237816Y-91156197D01*
X146241326Y-91179858D01*
X146242500Y-91203750D01*
X146242500Y-92116250D01*
X146241326Y-92140142D01*
X146237816Y-92163803D01*
X146232004Y-92187007D01*
X146223946Y-92209529D01*
X146213718Y-92231153D01*
X146201421Y-92251670D01*
X146187171Y-92270883D01*
X146171107Y-92288607D01*
X146153383Y-92304671D01*
X146134170Y-92318921D01*
X146113653Y-92331218D01*
X146092029Y-92341446D01*
X146069507Y-92349504D01*
X146046303Y-92355316D01*
X146022642Y-92358826D01*
X145998750Y-92360000D01*
X145511250Y-92360000D01*
X145487358Y-92358826D01*
X145463697Y-92355316D01*
X145440493Y-92349504D01*
X145417971Y-92341446D01*
X145396347Y-92331218D01*
X145375830Y-92318921D01*
X145356617Y-92304671D01*
X145338893Y-92288607D01*
X145322829Y-92270883D01*
X145308579Y-92251670D01*
X145296282Y-92231153D01*
X145286054Y-92209529D01*
X145277996Y-92187007D01*
X145272184Y-92163803D01*
X145268674Y-92140142D01*
X145267500Y-92116250D01*
X145267500Y-91203750D01*
X145268674Y-91179858D01*
X145272184Y-91156197D01*
X145277996Y-91132993D01*
X145286054Y-91110471D01*
X145296282Y-91088847D01*
X145308579Y-91068330D01*
X145322829Y-91049117D01*
X145338893Y-91031393D01*
X145356617Y-91015329D01*
X145375830Y-91001079D01*
X145396347Y-90988782D01*
X145417971Y-90978554D01*
X145440493Y-90970496D01*
X145463697Y-90964684D01*
X145487358Y-90961174D01*
X145511250Y-90960000D01*
X145998750Y-90960000D01*
X146022642Y-90961174D01*
X146022642Y-90961174D01*
G37*
D11*
X145755000Y-91660000D03*
D10*
G36*
X147897642Y-90961174D02*
G01*
X147921303Y-90964684D01*
X147944507Y-90970496D01*
X147967029Y-90978554D01*
X147988653Y-90988782D01*
X148009170Y-91001079D01*
X148028383Y-91015329D01*
X148046107Y-91031393D01*
X148062171Y-91049117D01*
X148076421Y-91068330D01*
X148088718Y-91088847D01*
X148098946Y-91110471D01*
X148107004Y-91132993D01*
X148112816Y-91156197D01*
X148116326Y-91179858D01*
X148117500Y-91203750D01*
X148117500Y-92116250D01*
X148116326Y-92140142D01*
X148112816Y-92163803D01*
X148107004Y-92187007D01*
X148098946Y-92209529D01*
X148088718Y-92231153D01*
X148076421Y-92251670D01*
X148062171Y-92270883D01*
X148046107Y-92288607D01*
X148028383Y-92304671D01*
X148009170Y-92318921D01*
X147988653Y-92331218D01*
X147967029Y-92341446D01*
X147944507Y-92349504D01*
X147921303Y-92355316D01*
X147897642Y-92358826D01*
X147873750Y-92360000D01*
X147386250Y-92360000D01*
X147362358Y-92358826D01*
X147338697Y-92355316D01*
X147315493Y-92349504D01*
X147292971Y-92341446D01*
X147271347Y-92331218D01*
X147250830Y-92318921D01*
X147231617Y-92304671D01*
X147213893Y-92288607D01*
X147197829Y-92270883D01*
X147183579Y-92251670D01*
X147171282Y-92231153D01*
X147161054Y-92209529D01*
X147152996Y-92187007D01*
X147147184Y-92163803D01*
X147143674Y-92140142D01*
X147142500Y-92116250D01*
X147142500Y-91203750D01*
X147143674Y-91179858D01*
X147147184Y-91156197D01*
X147152996Y-91132993D01*
X147161054Y-91110471D01*
X147171282Y-91088847D01*
X147183579Y-91068330D01*
X147197829Y-91049117D01*
X147213893Y-91031393D01*
X147231617Y-91015329D01*
X147250830Y-91001079D01*
X147271347Y-90988782D01*
X147292971Y-90978554D01*
X147315493Y-90970496D01*
X147338697Y-90964684D01*
X147362358Y-90961174D01*
X147386250Y-90960000D01*
X147873750Y-90960000D01*
X147897642Y-90961174D01*
X147897642Y-90961174D01*
G37*
D11*
X147630000Y-91660000D03*
D10*
G36*
X145932642Y-82871174D02*
G01*
X145956303Y-82874684D01*
X145979507Y-82880496D01*
X146002029Y-82888554D01*
X146023653Y-82898782D01*
X146044170Y-82911079D01*
X146063383Y-82925329D01*
X146081107Y-82941393D01*
X146097171Y-82959117D01*
X146111421Y-82978330D01*
X146123718Y-82998847D01*
X146133946Y-83020471D01*
X146142004Y-83042993D01*
X146147816Y-83066197D01*
X146151326Y-83089858D01*
X146152500Y-83113750D01*
X146152500Y-84026250D01*
X146151326Y-84050142D01*
X146147816Y-84073803D01*
X146142004Y-84097007D01*
X146133946Y-84119529D01*
X146123718Y-84141153D01*
X146111421Y-84161670D01*
X146097171Y-84180883D01*
X146081107Y-84198607D01*
X146063383Y-84214671D01*
X146044170Y-84228921D01*
X146023653Y-84241218D01*
X146002029Y-84251446D01*
X145979507Y-84259504D01*
X145956303Y-84265316D01*
X145932642Y-84268826D01*
X145908750Y-84270000D01*
X145421250Y-84270000D01*
X145397358Y-84268826D01*
X145373697Y-84265316D01*
X145350493Y-84259504D01*
X145327971Y-84251446D01*
X145306347Y-84241218D01*
X145285830Y-84228921D01*
X145266617Y-84214671D01*
X145248893Y-84198607D01*
X145232829Y-84180883D01*
X145218579Y-84161670D01*
X145206282Y-84141153D01*
X145196054Y-84119529D01*
X145187996Y-84097007D01*
X145182184Y-84073803D01*
X145178674Y-84050142D01*
X145177500Y-84026250D01*
X145177500Y-83113750D01*
X145178674Y-83089858D01*
X145182184Y-83066197D01*
X145187996Y-83042993D01*
X145196054Y-83020471D01*
X145206282Y-82998847D01*
X145218579Y-82978330D01*
X145232829Y-82959117D01*
X145248893Y-82941393D01*
X145266617Y-82925329D01*
X145285830Y-82911079D01*
X145306347Y-82898782D01*
X145327971Y-82888554D01*
X145350493Y-82880496D01*
X145373697Y-82874684D01*
X145397358Y-82871174D01*
X145421250Y-82870000D01*
X145908750Y-82870000D01*
X145932642Y-82871174D01*
X145932642Y-82871174D01*
G37*
D11*
X145665000Y-83570000D03*
D10*
G36*
X147807642Y-82871174D02*
G01*
X147831303Y-82874684D01*
X147854507Y-82880496D01*
X147877029Y-82888554D01*
X147898653Y-82898782D01*
X147919170Y-82911079D01*
X147938383Y-82925329D01*
X147956107Y-82941393D01*
X147972171Y-82959117D01*
X147986421Y-82978330D01*
X147998718Y-82998847D01*
X148008946Y-83020471D01*
X148017004Y-83042993D01*
X148022816Y-83066197D01*
X148026326Y-83089858D01*
X148027500Y-83113750D01*
X148027500Y-84026250D01*
X148026326Y-84050142D01*
X148022816Y-84073803D01*
X148017004Y-84097007D01*
X148008946Y-84119529D01*
X147998718Y-84141153D01*
X147986421Y-84161670D01*
X147972171Y-84180883D01*
X147956107Y-84198607D01*
X147938383Y-84214671D01*
X147919170Y-84228921D01*
X147898653Y-84241218D01*
X147877029Y-84251446D01*
X147854507Y-84259504D01*
X147831303Y-84265316D01*
X147807642Y-84268826D01*
X147783750Y-84270000D01*
X147296250Y-84270000D01*
X147272358Y-84268826D01*
X147248697Y-84265316D01*
X147225493Y-84259504D01*
X147202971Y-84251446D01*
X147181347Y-84241218D01*
X147160830Y-84228921D01*
X147141617Y-84214671D01*
X147123893Y-84198607D01*
X147107829Y-84180883D01*
X147093579Y-84161670D01*
X147081282Y-84141153D01*
X147071054Y-84119529D01*
X147062996Y-84097007D01*
X147057184Y-84073803D01*
X147053674Y-84050142D01*
X147052500Y-84026250D01*
X147052500Y-83113750D01*
X147053674Y-83089858D01*
X147057184Y-83066197D01*
X147062996Y-83042993D01*
X147071054Y-83020471D01*
X147081282Y-82998847D01*
X147093579Y-82978330D01*
X147107829Y-82959117D01*
X147123893Y-82941393D01*
X147141617Y-82925329D01*
X147160830Y-82911079D01*
X147181347Y-82898782D01*
X147202971Y-82888554D01*
X147225493Y-82880496D01*
X147248697Y-82874684D01*
X147272358Y-82871174D01*
X147296250Y-82870000D01*
X147783750Y-82870000D01*
X147807642Y-82871174D01*
X147807642Y-82871174D01*
G37*
D11*
X147540000Y-83570000D03*
D10*
G36*
X150582642Y-82901174D02*
G01*
X150606303Y-82904684D01*
X150629507Y-82910496D01*
X150652029Y-82918554D01*
X150673653Y-82928782D01*
X150694170Y-82941079D01*
X150713383Y-82955329D01*
X150731107Y-82971393D01*
X150747171Y-82989117D01*
X150761421Y-83008330D01*
X150773718Y-83028847D01*
X150783946Y-83050471D01*
X150792004Y-83072993D01*
X150797816Y-83096197D01*
X150801326Y-83119858D01*
X150802500Y-83143750D01*
X150802500Y-84056250D01*
X150801326Y-84080142D01*
X150797816Y-84103803D01*
X150792004Y-84127007D01*
X150783946Y-84149529D01*
X150773718Y-84171153D01*
X150761421Y-84191670D01*
X150747171Y-84210883D01*
X150731107Y-84228607D01*
X150713383Y-84244671D01*
X150694170Y-84258921D01*
X150673653Y-84271218D01*
X150652029Y-84281446D01*
X150629507Y-84289504D01*
X150606303Y-84295316D01*
X150582642Y-84298826D01*
X150558750Y-84300000D01*
X150071250Y-84300000D01*
X150047358Y-84298826D01*
X150023697Y-84295316D01*
X150000493Y-84289504D01*
X149977971Y-84281446D01*
X149956347Y-84271218D01*
X149935830Y-84258921D01*
X149916617Y-84244671D01*
X149898893Y-84228607D01*
X149882829Y-84210883D01*
X149868579Y-84191670D01*
X149856282Y-84171153D01*
X149846054Y-84149529D01*
X149837996Y-84127007D01*
X149832184Y-84103803D01*
X149828674Y-84080142D01*
X149827500Y-84056250D01*
X149827500Y-83143750D01*
X149828674Y-83119858D01*
X149832184Y-83096197D01*
X149837996Y-83072993D01*
X149846054Y-83050471D01*
X149856282Y-83028847D01*
X149868579Y-83008330D01*
X149882829Y-82989117D01*
X149898893Y-82971393D01*
X149916617Y-82955329D01*
X149935830Y-82941079D01*
X149956347Y-82928782D01*
X149977971Y-82918554D01*
X150000493Y-82910496D01*
X150023697Y-82904684D01*
X150047358Y-82901174D01*
X150071250Y-82900000D01*
X150558750Y-82900000D01*
X150582642Y-82901174D01*
X150582642Y-82901174D01*
G37*
D11*
X150315000Y-83600000D03*
D10*
G36*
X152457642Y-82901174D02*
G01*
X152481303Y-82904684D01*
X152504507Y-82910496D01*
X152527029Y-82918554D01*
X152548653Y-82928782D01*
X152569170Y-82941079D01*
X152588383Y-82955329D01*
X152606107Y-82971393D01*
X152622171Y-82989117D01*
X152636421Y-83008330D01*
X152648718Y-83028847D01*
X152658946Y-83050471D01*
X152667004Y-83072993D01*
X152672816Y-83096197D01*
X152676326Y-83119858D01*
X152677500Y-83143750D01*
X152677500Y-84056250D01*
X152676326Y-84080142D01*
X152672816Y-84103803D01*
X152667004Y-84127007D01*
X152658946Y-84149529D01*
X152648718Y-84171153D01*
X152636421Y-84191670D01*
X152622171Y-84210883D01*
X152606107Y-84228607D01*
X152588383Y-84244671D01*
X152569170Y-84258921D01*
X152548653Y-84271218D01*
X152527029Y-84281446D01*
X152504507Y-84289504D01*
X152481303Y-84295316D01*
X152457642Y-84298826D01*
X152433750Y-84300000D01*
X151946250Y-84300000D01*
X151922358Y-84298826D01*
X151898697Y-84295316D01*
X151875493Y-84289504D01*
X151852971Y-84281446D01*
X151831347Y-84271218D01*
X151810830Y-84258921D01*
X151791617Y-84244671D01*
X151773893Y-84228607D01*
X151757829Y-84210883D01*
X151743579Y-84191670D01*
X151731282Y-84171153D01*
X151721054Y-84149529D01*
X151712996Y-84127007D01*
X151707184Y-84103803D01*
X151703674Y-84080142D01*
X151702500Y-84056250D01*
X151702500Y-83143750D01*
X151703674Y-83119858D01*
X151707184Y-83096197D01*
X151712996Y-83072993D01*
X151721054Y-83050471D01*
X151731282Y-83028847D01*
X151743579Y-83008330D01*
X151757829Y-82989117D01*
X151773893Y-82971393D01*
X151791617Y-82955329D01*
X151810830Y-82941079D01*
X151831347Y-82928782D01*
X151852971Y-82918554D01*
X151875493Y-82910496D01*
X151898697Y-82904684D01*
X151922358Y-82901174D01*
X151946250Y-82900000D01*
X152433750Y-82900000D01*
X152457642Y-82901174D01*
X152457642Y-82901174D01*
G37*
D11*
X152190000Y-83600000D03*
D10*
G36*
X150557642Y-90971174D02*
G01*
X150581303Y-90974684D01*
X150604507Y-90980496D01*
X150627029Y-90988554D01*
X150648653Y-90998782D01*
X150669170Y-91011079D01*
X150688383Y-91025329D01*
X150706107Y-91041393D01*
X150722171Y-91059117D01*
X150736421Y-91078330D01*
X150748718Y-91098847D01*
X150758946Y-91120471D01*
X150767004Y-91142993D01*
X150772816Y-91166197D01*
X150776326Y-91189858D01*
X150777500Y-91213750D01*
X150777500Y-92126250D01*
X150776326Y-92150142D01*
X150772816Y-92173803D01*
X150767004Y-92197007D01*
X150758946Y-92219529D01*
X150748718Y-92241153D01*
X150736421Y-92261670D01*
X150722171Y-92280883D01*
X150706107Y-92298607D01*
X150688383Y-92314671D01*
X150669170Y-92328921D01*
X150648653Y-92341218D01*
X150627029Y-92351446D01*
X150604507Y-92359504D01*
X150581303Y-92365316D01*
X150557642Y-92368826D01*
X150533750Y-92370000D01*
X150046250Y-92370000D01*
X150022358Y-92368826D01*
X149998697Y-92365316D01*
X149975493Y-92359504D01*
X149952971Y-92351446D01*
X149931347Y-92341218D01*
X149910830Y-92328921D01*
X149891617Y-92314671D01*
X149873893Y-92298607D01*
X149857829Y-92280883D01*
X149843579Y-92261670D01*
X149831282Y-92241153D01*
X149821054Y-92219529D01*
X149812996Y-92197007D01*
X149807184Y-92173803D01*
X149803674Y-92150142D01*
X149802500Y-92126250D01*
X149802500Y-91213750D01*
X149803674Y-91189858D01*
X149807184Y-91166197D01*
X149812996Y-91142993D01*
X149821054Y-91120471D01*
X149831282Y-91098847D01*
X149843579Y-91078330D01*
X149857829Y-91059117D01*
X149873893Y-91041393D01*
X149891617Y-91025329D01*
X149910830Y-91011079D01*
X149931347Y-90998782D01*
X149952971Y-90988554D01*
X149975493Y-90980496D01*
X149998697Y-90974684D01*
X150022358Y-90971174D01*
X150046250Y-90970000D01*
X150533750Y-90970000D01*
X150557642Y-90971174D01*
X150557642Y-90971174D01*
G37*
D11*
X150290000Y-91670000D03*
D10*
G36*
X152432642Y-90971174D02*
G01*
X152456303Y-90974684D01*
X152479507Y-90980496D01*
X152502029Y-90988554D01*
X152523653Y-90998782D01*
X152544170Y-91011079D01*
X152563383Y-91025329D01*
X152581107Y-91041393D01*
X152597171Y-91059117D01*
X152611421Y-91078330D01*
X152623718Y-91098847D01*
X152633946Y-91120471D01*
X152642004Y-91142993D01*
X152647816Y-91166197D01*
X152651326Y-91189858D01*
X152652500Y-91213750D01*
X152652500Y-92126250D01*
X152651326Y-92150142D01*
X152647816Y-92173803D01*
X152642004Y-92197007D01*
X152633946Y-92219529D01*
X152623718Y-92241153D01*
X152611421Y-92261670D01*
X152597171Y-92280883D01*
X152581107Y-92298607D01*
X152563383Y-92314671D01*
X152544170Y-92328921D01*
X152523653Y-92341218D01*
X152502029Y-92351446D01*
X152479507Y-92359504D01*
X152456303Y-92365316D01*
X152432642Y-92368826D01*
X152408750Y-92370000D01*
X151921250Y-92370000D01*
X151897358Y-92368826D01*
X151873697Y-92365316D01*
X151850493Y-92359504D01*
X151827971Y-92351446D01*
X151806347Y-92341218D01*
X151785830Y-92328921D01*
X151766617Y-92314671D01*
X151748893Y-92298607D01*
X151732829Y-92280883D01*
X151718579Y-92261670D01*
X151706282Y-92241153D01*
X151696054Y-92219529D01*
X151687996Y-92197007D01*
X151682184Y-92173803D01*
X151678674Y-92150142D01*
X151677500Y-92126250D01*
X151677500Y-91213750D01*
X151678674Y-91189858D01*
X151682184Y-91166197D01*
X151687996Y-91142993D01*
X151696054Y-91120471D01*
X151706282Y-91098847D01*
X151718579Y-91078330D01*
X151732829Y-91059117D01*
X151748893Y-91041393D01*
X151766617Y-91025329D01*
X151785830Y-91011079D01*
X151806347Y-90998782D01*
X151827971Y-90988554D01*
X151850493Y-90980496D01*
X151873697Y-90974684D01*
X151897358Y-90971174D01*
X151921250Y-90970000D01*
X152408750Y-90970000D01*
X152432642Y-90971174D01*
X152432642Y-90971174D01*
G37*
D11*
X152165000Y-91670000D03*
D10*
G36*
X151349821Y-85433942D02*
G01*
X151362765Y-85435862D01*
X151375459Y-85439042D01*
X151387781Y-85443451D01*
X151399611Y-85449046D01*
X151410835Y-85455774D01*
X151421346Y-85463569D01*
X151431043Y-85472357D01*
X151439831Y-85482054D01*
X151447626Y-85492565D01*
X151454354Y-85503789D01*
X151459949Y-85515619D01*
X151464358Y-85527941D01*
X151467538Y-85540635D01*
X151469458Y-85553579D01*
X151470100Y-85566650D01*
X151470100Y-85833350D01*
X151469458Y-85846421D01*
X151467538Y-85859365D01*
X151464358Y-85872059D01*
X151459949Y-85884381D01*
X151454354Y-85896211D01*
X151447626Y-85907435D01*
X151439831Y-85917946D01*
X151431043Y-85927643D01*
X151421346Y-85936431D01*
X151410835Y-85944226D01*
X151399611Y-85950954D01*
X151387781Y-85956549D01*
X151375459Y-85960958D01*
X151362765Y-85964138D01*
X151349821Y-85966058D01*
X151336750Y-85966700D01*
X150003250Y-85966700D01*
X149990179Y-85966058D01*
X149977235Y-85964138D01*
X149964541Y-85960958D01*
X149952219Y-85956549D01*
X149940389Y-85950954D01*
X149929165Y-85944226D01*
X149918654Y-85936431D01*
X149908957Y-85927643D01*
X149900169Y-85917946D01*
X149892374Y-85907435D01*
X149885646Y-85896211D01*
X149880051Y-85884381D01*
X149875642Y-85872059D01*
X149872462Y-85859365D01*
X149870542Y-85846421D01*
X149869900Y-85833350D01*
X149869900Y-85566650D01*
X149870542Y-85553579D01*
X149872462Y-85540635D01*
X149875642Y-85527941D01*
X149880051Y-85515619D01*
X149885646Y-85503789D01*
X149892374Y-85492565D01*
X149900169Y-85482054D01*
X149908957Y-85472357D01*
X149918654Y-85463569D01*
X149929165Y-85455774D01*
X149940389Y-85449046D01*
X149952219Y-85443451D01*
X149964541Y-85439042D01*
X149977235Y-85435862D01*
X149990179Y-85433942D01*
X150003250Y-85433300D01*
X151336750Y-85433300D01*
X151349821Y-85433942D01*
X151349821Y-85433942D01*
G37*
D12*
X150670000Y-85700000D03*
D13*
X150670000Y-86970000D03*
X150670000Y-88240000D03*
X150670000Y-89510000D03*
X156004000Y-89510000D03*
X156004000Y-88240000D03*
X156004000Y-86970000D03*
X156004000Y-85700000D03*
D14*
X153337000Y-87605000D03*
M02*
