M48
; DRILL file {KiCad (5.1.0)-1} date 14.11.2019 11:54:28
; FORMAT={-:-/ absolute / metric / decimal}
; #@! TF.CreationDate,2019-11-14T11:54:28+01:00
; #@! TF.GenerationSoftware,Kicad,Pcbnew,(5.1.0)-1
; #@! TF.FileFunction,Plated,1,2,PTH
FMAT,2
METRIC
T1C0.400
T2C0.800
%
G90
G05
T1
X141.5Y-96.0
X144.0Y-96.0
X145.665Y-89.715
X146.5Y-96.0
X147.54Y-85.08
X149.0Y-96.0
X151.5Y-96.0
X152.35Y-90.02
X154.0Y-96.0
X154.19Y-90.13
X157.67Y-85.69
X157.79Y-88.25
X158.52Y-89.51
X159.61Y-83.07
T2
X156.145Y-92.02
X156.145Y-93.29
X157.415Y-92.02
X157.415Y-93.29
X158.685Y-92.02
X158.685Y-93.29
T0
M30
