G04 #@! TF.GenerationSoftware,KiCad,Pcbnew,(5.1.0)-1*
G04 #@! TF.CreationDate,2020-01-16T15:44:38+01:00*
G04 #@! TF.ProjectId,first_channel_half_bridge,66697273-745f-4636-9861-6e6e656c5f68,rev?*
G04 #@! TF.SameCoordinates,Original*
G04 #@! TF.FileFunction,Copper,L2,Bot*
G04 #@! TF.FilePolarity,Positive*
%FSLAX46Y46*%
G04 Gerber Fmt 4.6, Leading zero omitted, Abs format (unit mm)*
G04 Created by KiCad (PCBNEW (5.1.0)-1) date 2020-01-16 15:44:38*
%MOMM*%
%LPD*%
G04 APERTURE LIST*
%ADD10C,0.000100*%
%ADD11R,1.300000X1.900000*%
%ADD12R,2.000000X1.600000*%
%ADD13C,0.100000*%
%ADD14C,0.975000*%
%ADD15C,0.800000*%
%ADD16C,0.250000*%
%ADD17C,0.500000*%
G04 APERTURE END LIST*
D10*
G36*
X145740000Y-103120000D02*
G01*
X145740000Y-105060000D01*
X144260000Y-105057500D01*
X144260000Y-103117500D01*
X145740000Y-103120000D01*
G37*
X145740000Y-103120000D02*
X145740000Y-105060000D01*
X144260000Y-105057500D01*
X144260000Y-103117500D01*
X145740000Y-103120000D01*
G36*
X143240000Y-105062500D02*
G01*
X141760000Y-105060000D01*
X141760000Y-103120000D01*
X143240000Y-103120000D01*
X143240000Y-105062500D01*
G37*
X143240000Y-105062500D02*
X141760000Y-105060000D01*
X141760000Y-103120000D01*
X143240000Y-103120000D01*
X143240000Y-105062500D01*
G36*
X140740000Y-105062500D02*
G01*
X139260000Y-105060000D01*
X139260000Y-103120000D01*
X140740000Y-103120000D01*
X140740000Y-105062500D01*
G37*
X140740000Y-105062500D02*
X139260000Y-105060000D01*
X139260000Y-103120000D01*
X140740000Y-103120000D01*
X140740000Y-105062500D01*
G36*
X138230000Y-105062500D02*
G01*
X136750000Y-105060000D01*
X136750000Y-103122500D01*
X138230000Y-103120000D01*
X138230000Y-105062500D01*
G37*
X138230000Y-105062500D02*
X136750000Y-105060000D01*
X136750000Y-103122500D01*
X138230000Y-103120000D01*
X138230000Y-105062500D01*
G36*
X135740000Y-105132500D02*
G01*
X134250000Y-105127500D01*
X134250000Y-103120000D01*
X135740000Y-103120000D01*
X135740000Y-105132500D01*
G37*
X135740000Y-105132500D02*
X134250000Y-105127500D01*
X134250000Y-103120000D01*
X135740000Y-103120000D01*
X135740000Y-105132500D01*
G36*
X133240000Y-105132500D02*
G01*
X131750000Y-105132500D01*
X131750000Y-103120000D01*
X133240000Y-103120000D01*
X133240000Y-105132500D01*
G37*
X133240000Y-105132500D02*
X131750000Y-105132500D01*
X131750000Y-103120000D01*
X133240000Y-103120000D01*
X133240000Y-105132500D01*
D11*
X134290000Y-109220000D03*
X136790000Y-109220000D03*
D12*
X135540000Y-112120000D03*
D13*
G36*
X140997642Y-105831174D02*
G01*
X141021303Y-105834684D01*
X141044507Y-105840496D01*
X141067029Y-105848554D01*
X141088653Y-105858782D01*
X141109170Y-105871079D01*
X141128383Y-105885329D01*
X141146107Y-105901393D01*
X141162171Y-105919117D01*
X141176421Y-105938330D01*
X141188718Y-105958847D01*
X141198946Y-105980471D01*
X141207004Y-106002993D01*
X141212816Y-106026197D01*
X141216326Y-106049858D01*
X141217500Y-106073750D01*
X141217500Y-106986250D01*
X141216326Y-107010142D01*
X141212816Y-107033803D01*
X141207004Y-107057007D01*
X141198946Y-107079529D01*
X141188718Y-107101153D01*
X141176421Y-107121670D01*
X141162171Y-107140883D01*
X141146107Y-107158607D01*
X141128383Y-107174671D01*
X141109170Y-107188921D01*
X141088653Y-107201218D01*
X141067029Y-107211446D01*
X141044507Y-107219504D01*
X141021303Y-107225316D01*
X140997642Y-107228826D01*
X140973750Y-107230000D01*
X140486250Y-107230000D01*
X140462358Y-107228826D01*
X140438697Y-107225316D01*
X140415493Y-107219504D01*
X140392971Y-107211446D01*
X140371347Y-107201218D01*
X140350830Y-107188921D01*
X140331617Y-107174671D01*
X140313893Y-107158607D01*
X140297829Y-107140883D01*
X140283579Y-107121670D01*
X140271282Y-107101153D01*
X140261054Y-107079529D01*
X140252996Y-107057007D01*
X140247184Y-107033803D01*
X140243674Y-107010142D01*
X140242500Y-106986250D01*
X140242500Y-106073750D01*
X140243674Y-106049858D01*
X140247184Y-106026197D01*
X140252996Y-106002993D01*
X140261054Y-105980471D01*
X140271282Y-105958847D01*
X140283579Y-105938330D01*
X140297829Y-105919117D01*
X140313893Y-105901393D01*
X140331617Y-105885329D01*
X140350830Y-105871079D01*
X140371347Y-105858782D01*
X140392971Y-105848554D01*
X140415493Y-105840496D01*
X140438697Y-105834684D01*
X140462358Y-105831174D01*
X140486250Y-105830000D01*
X140973750Y-105830000D01*
X140997642Y-105831174D01*
X140997642Y-105831174D01*
G37*
D14*
X140730000Y-106530000D03*
D13*
G36*
X142872642Y-105831174D02*
G01*
X142896303Y-105834684D01*
X142919507Y-105840496D01*
X142942029Y-105848554D01*
X142963653Y-105858782D01*
X142984170Y-105871079D01*
X143003383Y-105885329D01*
X143021107Y-105901393D01*
X143037171Y-105919117D01*
X143051421Y-105938330D01*
X143063718Y-105958847D01*
X143073946Y-105980471D01*
X143082004Y-106002993D01*
X143087816Y-106026197D01*
X143091326Y-106049858D01*
X143092500Y-106073750D01*
X143092500Y-106986250D01*
X143091326Y-107010142D01*
X143087816Y-107033803D01*
X143082004Y-107057007D01*
X143073946Y-107079529D01*
X143063718Y-107101153D01*
X143051421Y-107121670D01*
X143037171Y-107140883D01*
X143021107Y-107158607D01*
X143003383Y-107174671D01*
X142984170Y-107188921D01*
X142963653Y-107201218D01*
X142942029Y-107211446D01*
X142919507Y-107219504D01*
X142896303Y-107225316D01*
X142872642Y-107228826D01*
X142848750Y-107230000D01*
X142361250Y-107230000D01*
X142337358Y-107228826D01*
X142313697Y-107225316D01*
X142290493Y-107219504D01*
X142267971Y-107211446D01*
X142246347Y-107201218D01*
X142225830Y-107188921D01*
X142206617Y-107174671D01*
X142188893Y-107158607D01*
X142172829Y-107140883D01*
X142158579Y-107121670D01*
X142146282Y-107101153D01*
X142136054Y-107079529D01*
X142127996Y-107057007D01*
X142122184Y-107033803D01*
X142118674Y-107010142D01*
X142117500Y-106986250D01*
X142117500Y-106073750D01*
X142118674Y-106049858D01*
X142122184Y-106026197D01*
X142127996Y-106002993D01*
X142136054Y-105980471D01*
X142146282Y-105958847D01*
X142158579Y-105938330D01*
X142172829Y-105919117D01*
X142188893Y-105901393D01*
X142206617Y-105885329D01*
X142225830Y-105871079D01*
X142246347Y-105858782D01*
X142267971Y-105848554D01*
X142290493Y-105840496D01*
X142313697Y-105834684D01*
X142337358Y-105831174D01*
X142361250Y-105830000D01*
X142848750Y-105830000D01*
X142872642Y-105831174D01*
X142872642Y-105831174D01*
G37*
D14*
X142605000Y-106530000D03*
D13*
G36*
X136507642Y-106201174D02*
G01*
X136531303Y-106204684D01*
X136554507Y-106210496D01*
X136577029Y-106218554D01*
X136598653Y-106228782D01*
X136619170Y-106241079D01*
X136638383Y-106255329D01*
X136656107Y-106271393D01*
X136672171Y-106289117D01*
X136686421Y-106308330D01*
X136698718Y-106328847D01*
X136708946Y-106350471D01*
X136717004Y-106372993D01*
X136722816Y-106396197D01*
X136726326Y-106419858D01*
X136727500Y-106443750D01*
X136727500Y-107356250D01*
X136726326Y-107380142D01*
X136722816Y-107403803D01*
X136717004Y-107427007D01*
X136708946Y-107449529D01*
X136698718Y-107471153D01*
X136686421Y-107491670D01*
X136672171Y-107510883D01*
X136656107Y-107528607D01*
X136638383Y-107544671D01*
X136619170Y-107558921D01*
X136598653Y-107571218D01*
X136577029Y-107581446D01*
X136554507Y-107589504D01*
X136531303Y-107595316D01*
X136507642Y-107598826D01*
X136483750Y-107600000D01*
X135996250Y-107600000D01*
X135972358Y-107598826D01*
X135948697Y-107595316D01*
X135925493Y-107589504D01*
X135902971Y-107581446D01*
X135881347Y-107571218D01*
X135860830Y-107558921D01*
X135841617Y-107544671D01*
X135823893Y-107528607D01*
X135807829Y-107510883D01*
X135793579Y-107491670D01*
X135781282Y-107471153D01*
X135771054Y-107449529D01*
X135762996Y-107427007D01*
X135757184Y-107403803D01*
X135753674Y-107380142D01*
X135752500Y-107356250D01*
X135752500Y-106443750D01*
X135753674Y-106419858D01*
X135757184Y-106396197D01*
X135762996Y-106372993D01*
X135771054Y-106350471D01*
X135781282Y-106328847D01*
X135793579Y-106308330D01*
X135807829Y-106289117D01*
X135823893Y-106271393D01*
X135841617Y-106255329D01*
X135860830Y-106241079D01*
X135881347Y-106228782D01*
X135902971Y-106218554D01*
X135925493Y-106210496D01*
X135948697Y-106204684D01*
X135972358Y-106201174D01*
X135996250Y-106200000D01*
X136483750Y-106200000D01*
X136507642Y-106201174D01*
X136507642Y-106201174D01*
G37*
D14*
X136240000Y-106900000D03*
D13*
G36*
X134632642Y-106201174D02*
G01*
X134656303Y-106204684D01*
X134679507Y-106210496D01*
X134702029Y-106218554D01*
X134723653Y-106228782D01*
X134744170Y-106241079D01*
X134763383Y-106255329D01*
X134781107Y-106271393D01*
X134797171Y-106289117D01*
X134811421Y-106308330D01*
X134823718Y-106328847D01*
X134833946Y-106350471D01*
X134842004Y-106372993D01*
X134847816Y-106396197D01*
X134851326Y-106419858D01*
X134852500Y-106443750D01*
X134852500Y-107356250D01*
X134851326Y-107380142D01*
X134847816Y-107403803D01*
X134842004Y-107427007D01*
X134833946Y-107449529D01*
X134823718Y-107471153D01*
X134811421Y-107491670D01*
X134797171Y-107510883D01*
X134781107Y-107528607D01*
X134763383Y-107544671D01*
X134744170Y-107558921D01*
X134723653Y-107571218D01*
X134702029Y-107581446D01*
X134679507Y-107589504D01*
X134656303Y-107595316D01*
X134632642Y-107598826D01*
X134608750Y-107600000D01*
X134121250Y-107600000D01*
X134097358Y-107598826D01*
X134073697Y-107595316D01*
X134050493Y-107589504D01*
X134027971Y-107581446D01*
X134006347Y-107571218D01*
X133985830Y-107558921D01*
X133966617Y-107544671D01*
X133948893Y-107528607D01*
X133932829Y-107510883D01*
X133918579Y-107491670D01*
X133906282Y-107471153D01*
X133896054Y-107449529D01*
X133887996Y-107427007D01*
X133882184Y-107403803D01*
X133878674Y-107380142D01*
X133877500Y-107356250D01*
X133877500Y-106443750D01*
X133878674Y-106419858D01*
X133882184Y-106396197D01*
X133887996Y-106372993D01*
X133896054Y-106350471D01*
X133906282Y-106328847D01*
X133918579Y-106308330D01*
X133932829Y-106289117D01*
X133948893Y-106271393D01*
X133966617Y-106255329D01*
X133985830Y-106241079D01*
X134006347Y-106228782D01*
X134027971Y-106218554D01*
X134050493Y-106210496D01*
X134073697Y-106204684D01*
X134097358Y-106201174D01*
X134121250Y-106200000D01*
X134608750Y-106200000D01*
X134632642Y-106201174D01*
X134632642Y-106201174D01*
G37*
D14*
X134365000Y-106900000D03*
D11*
X139400000Y-109220000D03*
X141900000Y-109220000D03*
D12*
X140650000Y-112120000D03*
D15*
X145000000Y-104500000D03*
X142500000Y-104500000D03*
X137520000Y-112300000D03*
X132500000Y-104500000D03*
X135000000Y-104500000D03*
X143630000Y-108740000D03*
X145260000Y-109710000D03*
X138090000Y-109750000D03*
X143780000Y-111420000D03*
X145260000Y-107710000D03*
X145260000Y-108710000D03*
X138600000Y-112300000D03*
X137500000Y-104500000D03*
X138560000Y-106150000D03*
X145260000Y-106710000D03*
X139100000Y-107650000D03*
X140000000Y-104500000D03*
D16*
X135720000Y-112300000D02*
X135540000Y-112120000D01*
X137520000Y-112300000D02*
X135720000Y-112300000D01*
D17*
X145260000Y-109710000D02*
X151000000Y-109710000D01*
D16*
X141740000Y-109220000D02*
X141490000Y-109220000D01*
X141900000Y-109220000D02*
X142800000Y-109220000D01*
X143150000Y-109220000D02*
X143630000Y-108740000D01*
X141900000Y-109220000D02*
X143150000Y-109220000D01*
X144600000Y-109710000D02*
X143630000Y-108740000D01*
X144694315Y-109710000D02*
X144600000Y-109710000D01*
X145260000Y-109710000D02*
X144694315Y-109710000D01*
X142095000Y-109025000D02*
X141900000Y-109220000D01*
X136790000Y-109220000D02*
X136790000Y-109250000D01*
X136914989Y-110544989D02*
X137044989Y-110544989D01*
X136790000Y-109220000D02*
X136790000Y-110420000D01*
X136790000Y-110420000D02*
X136914989Y-110544989D01*
X137494999Y-110994999D02*
X141865001Y-110994999D01*
X137044989Y-110544989D02*
X137494999Y-110994999D01*
X141900000Y-110960000D02*
X141900000Y-109220000D01*
X141865001Y-110994999D02*
X141900000Y-110960000D01*
X141900000Y-107235000D02*
X141900000Y-109220000D01*
X142605000Y-106530000D02*
X141900000Y-107235000D01*
X133520000Y-105980000D02*
X135000000Y-104500000D01*
X132860000Y-105980000D02*
X133520000Y-105980000D01*
X132860000Y-107720000D02*
X132860000Y-105980000D01*
X135890000Y-109220000D02*
X135500000Y-108830000D01*
X136790000Y-109220000D02*
X135890000Y-109220000D01*
X135500000Y-108830000D02*
X135500000Y-108244998D01*
X135500000Y-108244998D02*
X135200001Y-107944999D01*
X135200001Y-107944999D02*
X133084999Y-107944999D01*
X133084999Y-107944999D02*
X132860000Y-107720000D01*
X136240000Y-106900000D02*
X136260000Y-106880000D01*
X136827500Y-106900000D02*
X136240000Y-106900000D01*
X140142500Y-106530000D02*
X139772500Y-106900000D01*
X140730000Y-106530000D02*
X140142500Y-106530000D01*
X138090000Y-106970000D02*
X138160000Y-106900000D01*
X138090000Y-109750000D02*
X138090000Y-106970000D01*
X139772500Y-106900000D02*
X138160000Y-106900000D01*
X138160000Y-106900000D02*
X136827500Y-106900000D01*
D17*
X145260000Y-107710000D02*
X151000000Y-107710000D01*
X145260000Y-108710000D02*
X151000000Y-108710000D01*
D16*
X143780000Y-112050000D02*
X143780000Y-111420000D01*
X140490000Y-112120000D02*
X143710000Y-112120000D01*
X143710000Y-112120000D02*
X143780000Y-112050000D01*
X134290000Y-109220000D02*
X134290000Y-109520000D01*
X138440684Y-111574999D02*
X137085001Y-111574999D01*
X138600000Y-112300000D02*
X138600000Y-111734315D01*
X138600000Y-111734315D02*
X138440684Y-111574999D01*
X137085001Y-111279999D02*
X136800001Y-110994999D01*
X137085001Y-111574999D02*
X137085001Y-111279999D01*
X136800001Y-110994999D02*
X134295001Y-110994999D01*
X134290000Y-110989998D02*
X134290000Y-109220000D01*
X134295001Y-110994999D02*
X134290000Y-110989998D01*
D17*
X145260000Y-106710000D02*
X151000000Y-106710000D01*
D16*
X139400000Y-109220000D02*
X139400000Y-108580000D01*
X138560000Y-106150000D02*
X138020000Y-105610000D01*
X134921237Y-106343763D02*
X134921237Y-105808763D01*
X134365000Y-106900000D02*
X134921237Y-106343763D01*
X134921237Y-105808763D02*
X135120000Y-105610000D01*
X139400000Y-107950000D02*
X139100000Y-107650000D01*
X139400000Y-109220000D02*
X139400000Y-107950000D01*
X137500000Y-105600000D02*
X137510000Y-105610000D01*
X137500000Y-104500000D02*
X137500000Y-105600000D01*
X135120000Y-105610000D02*
X137510000Y-105610000D01*
X137510000Y-105610000D02*
X138020000Y-105610000D01*
M02*
