G04 #@! TF.GenerationSoftware,KiCad,Pcbnew,(5.1.0)-1*
G04 #@! TF.CreationDate,2019-11-14T11:54:30+01:00*
G04 #@! TF.ProjectId,perpendicular_pcb,70657270-656e-4646-9963-756c61725f70,rev?*
G04 #@! TF.SameCoordinates,Original*
G04 #@! TF.FileFunction,Copper,L2,Bot*
G04 #@! TF.FilePolarity,Positive*
%FSLAX46Y46*%
G04 Gerber Fmt 4.6, Leading zero omitted, Abs format (unit mm)*
G04 Created by KiCad (PCBNEW (5.1.0)-1) date 2019-11-14 11:54:30*
%MOMM*%
%LPD*%
G04 APERTURE LIST*
%ADD10C,0.800000*%
%ADD11C,1.000000*%
%ADD12C,1.500000*%
%ADD13C,0.250000*%
G04 APERTURE END LIST*
D10*
X154000000Y-96000000D03*
X151500000Y-96000000D03*
X149000000Y-96000000D03*
D11*
X157415000Y-93290000D03*
X158685000Y-93290000D03*
X156145000Y-92020000D03*
X158685000Y-92020000D03*
D10*
X152350000Y-90020000D03*
X141500000Y-96000000D03*
X157670000Y-85690000D03*
D11*
X157415000Y-92020000D03*
D10*
X154190000Y-90130000D03*
D11*
X156145000Y-93290000D03*
D10*
X144000000Y-96000000D03*
X159610000Y-83070000D03*
X157790000Y-88250000D03*
X147540000Y-85080000D03*
X146500000Y-96000000D03*
X158520000Y-89510000D03*
X145665000Y-89715000D03*
D12*
X154000000Y-96000000D02*
X154000000Y-118500000D01*
X151500000Y-96000000D02*
X151500000Y-118500000D01*
X149000000Y-96000000D02*
X149000000Y-118500000D01*
D13*
X154000000Y-96000000D02*
X157240000Y-96000000D01*
X158685000Y-94555000D02*
X158685000Y-93290000D01*
X157240000Y-96000000D02*
X158685000Y-94555000D01*
X151909999Y-95600001D02*
X153210000Y-94300000D01*
X153210000Y-94300000D02*
X154780000Y-94300000D01*
X154780000Y-94300000D02*
X155450000Y-94970000D01*
X155450000Y-94970000D02*
X157090000Y-94970000D01*
X157415000Y-94645000D02*
X157415000Y-93290000D01*
X157090000Y-94970000D02*
X157415000Y-94645000D01*
X154180000Y-92020000D02*
X156145000Y-92020000D01*
X152910000Y-93290000D02*
X154180000Y-92020000D01*
X152660000Y-93290000D02*
X152910000Y-93290000D01*
X151450000Y-94500000D02*
X152660000Y-93290000D01*
X149000000Y-96000000D02*
X150500000Y-94500000D01*
X150500000Y-94500000D02*
X151450000Y-94500000D01*
D12*
X141500000Y-96000000D02*
X141500000Y-118500000D01*
D13*
X157670000Y-85690000D02*
X150200000Y-85690000D01*
X150200000Y-88435685D02*
X150200000Y-87700000D01*
X151784315Y-90020000D02*
X150200000Y-88435685D01*
X152350000Y-90020000D02*
X151784315Y-90020000D01*
X150200000Y-88140000D02*
X150200000Y-87700000D01*
X150200000Y-87420000D02*
X150200000Y-87700000D01*
X150200000Y-85690000D02*
X150200000Y-87420000D01*
X154080000Y-90020000D02*
X154190000Y-90130000D01*
X152350000Y-90020000D02*
X154080000Y-90020000D01*
D12*
X144000000Y-96000000D02*
X144000000Y-118500000D01*
D13*
X159610000Y-87180000D02*
X159610000Y-83070000D01*
X158540000Y-88250000D02*
X157790000Y-88250000D01*
X158775000Y-88015000D02*
X158540000Y-88250000D01*
X158775000Y-88015000D02*
X159610000Y-87180000D01*
X148105685Y-85080000D02*
X149215685Y-83970000D01*
X147540000Y-85080000D02*
X148105685Y-85080000D01*
X158180000Y-83070000D02*
X157280000Y-83970000D01*
X159610000Y-83070000D02*
X158180000Y-83070000D01*
X149215685Y-83970000D02*
X157280000Y-83970000D01*
D12*
X146500000Y-96000000D02*
X146500000Y-118500000D01*
D13*
X158520000Y-90075685D02*
X158235685Y-90360000D01*
X158520000Y-89510000D02*
X158520000Y-90075685D01*
X158235685Y-90360000D02*
X157470000Y-90360000D01*
X157470000Y-90360000D02*
X157120000Y-90710000D01*
X157120000Y-90710000D02*
X155380000Y-90710000D01*
X155380000Y-90710000D02*
X155020000Y-91070000D01*
X155020000Y-91070000D02*
X147020000Y-91070000D01*
X147010000Y-91060000D02*
X146435000Y-90485000D01*
X146435000Y-90485000D02*
X145665000Y-89715000D01*
X145099315Y-89715000D02*
X145004315Y-89810000D01*
X145665000Y-89715000D02*
X145099315Y-89715000D01*
X145004315Y-89810000D02*
X145004315Y-92714315D01*
X146500000Y-94210000D02*
X146500000Y-96000000D01*
X145004315Y-92714315D02*
X146500000Y-94210000D01*
M02*
