G04 #@! TF.GenerationSoftware,KiCad,Pcbnew,(5.1.0)-1*
G04 #@! TF.CreationDate,2019-11-14T11:54:30+01:00*
G04 #@! TF.ProjectId,perpendicular_pcb,70657270-656e-4646-9963-756c61725f70,rev?*
G04 #@! TF.SameCoordinates,Original*
G04 #@! TF.FileFunction,Soldermask,Top*
G04 #@! TF.FilePolarity,Negative*
%FSLAX46Y46*%
G04 Gerber Fmt 4.6, Leading zero omitted, Abs format (unit mm)*
G04 Created by KiCad (PCBNEW (5.1.0)-1) date 2019-11-14 11:54:30*
%MOMM*%
%LPD*%
G04 APERTURE LIST*
%ADD10C,0.200000*%
%ADD11C,1.500000*%
%ADD12C,0.100000*%
G04 APERTURE END LIST*
D10*
X159085000Y-93290000D02*
G75*
G03X159085000Y-93290000I-400000J0D01*
G01*
X157815000Y-93290000D02*
G75*
G03X157815000Y-93290000I-400000J0D01*
G01*
X156545000Y-93290000D02*
G75*
G03X156545000Y-93290000I-400000J0D01*
G01*
X156545000Y-92020000D02*
G75*
G03X156545000Y-92020000I-400000J0D01*
G01*
X157815000Y-92020000D02*
G75*
G03X157815000Y-92020000I-400000J0D01*
G01*
X159085000Y-92020000D02*
G75*
G03X159085000Y-92020000I-400000J0D01*
G01*
D11*
X154000000Y-96000000D02*
X154000000Y-118500000D01*
X151500000Y-96000000D02*
X151500000Y-118500000D01*
X149000000Y-96000000D02*
X149000000Y-118500000D01*
X146500000Y-96000000D02*
X146500000Y-118500000D01*
X144000000Y-96000000D02*
X144000000Y-118500000D01*
X141500000Y-96000000D02*
X141500000Y-118500000D01*
D12*
G36*
X152536968Y-90923565D02*
G01*
X152575638Y-90935296D01*
X152611277Y-90954346D01*
X152642517Y-90979983D01*
X152668154Y-91011223D01*
X152687204Y-91046862D01*
X152698935Y-91085532D01*
X152703500Y-91131888D01*
X152703500Y-92208112D01*
X152698935Y-92254468D01*
X152687204Y-92293138D01*
X152668154Y-92328777D01*
X152642517Y-92360017D01*
X152611277Y-92385654D01*
X152575638Y-92404704D01*
X152536968Y-92416435D01*
X152490612Y-92421000D01*
X151839388Y-92421000D01*
X151793032Y-92416435D01*
X151754362Y-92404704D01*
X151718723Y-92385654D01*
X151687483Y-92360017D01*
X151661846Y-92328777D01*
X151642796Y-92293138D01*
X151631065Y-92254468D01*
X151626500Y-92208112D01*
X151626500Y-91131888D01*
X151631065Y-91085532D01*
X151642796Y-91046862D01*
X151661846Y-91011223D01*
X151687483Y-90979983D01*
X151718723Y-90954346D01*
X151754362Y-90935296D01*
X151793032Y-90923565D01*
X151839388Y-90919000D01*
X152490612Y-90919000D01*
X152536968Y-90923565D01*
X152536968Y-90923565D01*
G37*
G36*
X150661968Y-90923565D02*
G01*
X150700638Y-90935296D01*
X150736277Y-90954346D01*
X150767517Y-90979983D01*
X150793154Y-91011223D01*
X150812204Y-91046862D01*
X150823935Y-91085532D01*
X150828500Y-91131888D01*
X150828500Y-92208112D01*
X150823935Y-92254468D01*
X150812204Y-92293138D01*
X150793154Y-92328777D01*
X150767517Y-92360017D01*
X150736277Y-92385654D01*
X150700638Y-92404704D01*
X150661968Y-92416435D01*
X150615612Y-92421000D01*
X149964388Y-92421000D01*
X149918032Y-92416435D01*
X149879362Y-92404704D01*
X149843723Y-92385654D01*
X149812483Y-92360017D01*
X149786846Y-92328777D01*
X149767796Y-92293138D01*
X149756065Y-92254468D01*
X149751500Y-92208112D01*
X149751500Y-91131888D01*
X149756065Y-91085532D01*
X149767796Y-91046862D01*
X149786846Y-91011223D01*
X149812483Y-90979983D01*
X149843723Y-90954346D01*
X149879362Y-90935296D01*
X149918032Y-90923565D01*
X149964388Y-90919000D01*
X150615612Y-90919000D01*
X150661968Y-90923565D01*
X150661968Y-90923565D01*
G37*
G36*
X148001968Y-90913565D02*
G01*
X148040638Y-90925296D01*
X148076277Y-90944346D01*
X148107517Y-90969983D01*
X148133154Y-91001223D01*
X148152204Y-91036862D01*
X148163935Y-91075532D01*
X148168500Y-91121888D01*
X148168500Y-92198112D01*
X148163935Y-92244468D01*
X148152204Y-92283138D01*
X148133154Y-92318777D01*
X148107517Y-92350017D01*
X148076277Y-92375654D01*
X148040638Y-92394704D01*
X148001968Y-92406435D01*
X147955612Y-92411000D01*
X147304388Y-92411000D01*
X147258032Y-92406435D01*
X147219362Y-92394704D01*
X147183723Y-92375654D01*
X147152483Y-92350017D01*
X147126846Y-92318777D01*
X147107796Y-92283138D01*
X147096065Y-92244468D01*
X147091500Y-92198112D01*
X147091500Y-91121888D01*
X147096065Y-91075532D01*
X147107796Y-91036862D01*
X147126846Y-91001223D01*
X147152483Y-90969983D01*
X147183723Y-90944346D01*
X147219362Y-90925296D01*
X147258032Y-90913565D01*
X147304388Y-90909000D01*
X147955612Y-90909000D01*
X148001968Y-90913565D01*
X148001968Y-90913565D01*
G37*
G36*
X146126968Y-90913565D02*
G01*
X146165638Y-90925296D01*
X146201277Y-90944346D01*
X146232517Y-90969983D01*
X146258154Y-91001223D01*
X146277204Y-91036862D01*
X146288935Y-91075532D01*
X146293500Y-91121888D01*
X146293500Y-92198112D01*
X146288935Y-92244468D01*
X146277204Y-92283138D01*
X146258154Y-92318777D01*
X146232517Y-92350017D01*
X146201277Y-92375654D01*
X146165638Y-92394704D01*
X146126968Y-92406435D01*
X146080612Y-92411000D01*
X145429388Y-92411000D01*
X145383032Y-92406435D01*
X145344362Y-92394704D01*
X145308723Y-92375654D01*
X145277483Y-92350017D01*
X145251846Y-92318777D01*
X145232796Y-92283138D01*
X145221065Y-92244468D01*
X145216500Y-92198112D01*
X145216500Y-91121888D01*
X145221065Y-91075532D01*
X145232796Y-91036862D01*
X145251846Y-91001223D01*
X145277483Y-90969983D01*
X145308723Y-90944346D01*
X145344362Y-90925296D01*
X145383032Y-90913565D01*
X145429388Y-90909000D01*
X146080612Y-90909000D01*
X146126968Y-90913565D01*
X146126968Y-90913565D01*
G37*
G36*
X156855100Y-89827700D02*
G01*
X155152900Y-89827700D01*
X155152900Y-89192300D01*
X156855100Y-89192300D01*
X156855100Y-89827700D01*
X156855100Y-89827700D01*
G37*
G36*
X151521100Y-89827700D02*
G01*
X149818900Y-89827700D01*
X149818900Y-89192300D01*
X151521100Y-89192300D01*
X151521100Y-89827700D01*
X151521100Y-89827700D01*
G37*
G36*
X154531000Y-88799000D02*
G01*
X152143000Y-88799000D01*
X152143000Y-86411000D01*
X154531000Y-86411000D01*
X154531000Y-88799000D01*
X154531000Y-88799000D01*
G37*
G36*
X156855100Y-88557700D02*
G01*
X155152900Y-88557700D01*
X155152900Y-87922300D01*
X156855100Y-87922300D01*
X156855100Y-88557700D01*
X156855100Y-88557700D01*
G37*
G36*
X151521100Y-88557700D02*
G01*
X149818900Y-88557700D01*
X149818900Y-87922300D01*
X151521100Y-87922300D01*
X151521100Y-88557700D01*
X151521100Y-88557700D01*
G37*
G36*
X159964468Y-86353565D02*
G01*
X160003138Y-86365296D01*
X160038777Y-86384346D01*
X160070017Y-86409983D01*
X160095654Y-86441223D01*
X160114704Y-86476862D01*
X160126435Y-86515532D01*
X160131000Y-86561888D01*
X160131000Y-87213112D01*
X160126435Y-87259468D01*
X160114704Y-87298138D01*
X160095654Y-87333777D01*
X160070017Y-87365017D01*
X160038777Y-87390654D01*
X160003138Y-87409704D01*
X159964468Y-87421435D01*
X159918112Y-87426000D01*
X158841888Y-87426000D01*
X158795532Y-87421435D01*
X158756862Y-87409704D01*
X158721223Y-87390654D01*
X158689983Y-87365017D01*
X158664346Y-87333777D01*
X158645296Y-87298138D01*
X158633565Y-87259468D01*
X158629000Y-87213112D01*
X158629000Y-86561888D01*
X158633565Y-86515532D01*
X158645296Y-86476862D01*
X158664346Y-86441223D01*
X158689983Y-86409983D01*
X158721223Y-86384346D01*
X158756862Y-86365296D01*
X158795532Y-86353565D01*
X158841888Y-86349000D01*
X159918112Y-86349000D01*
X159964468Y-86353565D01*
X159964468Y-86353565D01*
G37*
G36*
X156855100Y-87287700D02*
G01*
X155152900Y-87287700D01*
X155152900Y-86652300D01*
X156855100Y-86652300D01*
X156855100Y-87287700D01*
X156855100Y-87287700D01*
G37*
G36*
X151521100Y-87287700D02*
G01*
X149818900Y-87287700D01*
X149818900Y-86652300D01*
X151521100Y-86652300D01*
X151521100Y-87287700D01*
X151521100Y-87287700D01*
G37*
G36*
X151443427Y-85384744D02*
G01*
X151461391Y-85390193D01*
X151477944Y-85399041D01*
X151492452Y-85410948D01*
X151504359Y-85425456D01*
X151513207Y-85442009D01*
X151518656Y-85459973D01*
X151521100Y-85484790D01*
X151521100Y-85915210D01*
X151518656Y-85940027D01*
X151513207Y-85957991D01*
X151504359Y-85974544D01*
X151492452Y-85989052D01*
X151477944Y-86000959D01*
X151461391Y-86009807D01*
X151443427Y-86015256D01*
X151418610Y-86017700D01*
X149921390Y-86017700D01*
X149896573Y-86015256D01*
X149878609Y-86009807D01*
X149862056Y-86000959D01*
X149847548Y-85989052D01*
X149835641Y-85974544D01*
X149826793Y-85957991D01*
X149821344Y-85940027D01*
X149818900Y-85915210D01*
X149818900Y-85484790D01*
X149821344Y-85459973D01*
X149826793Y-85442009D01*
X149835641Y-85425456D01*
X149847548Y-85410948D01*
X149862056Y-85399041D01*
X149878609Y-85390193D01*
X149896573Y-85384744D01*
X149921390Y-85382300D01*
X151418610Y-85382300D01*
X151443427Y-85384744D01*
X151443427Y-85384744D01*
G37*
G36*
X156855100Y-86017700D02*
G01*
X155152900Y-86017700D01*
X155152900Y-85382300D01*
X156855100Y-85382300D01*
X156855100Y-86017700D01*
X156855100Y-86017700D01*
G37*
G36*
X159964468Y-84478565D02*
G01*
X160003138Y-84490296D01*
X160038777Y-84509346D01*
X160070017Y-84534983D01*
X160095654Y-84566223D01*
X160114704Y-84601862D01*
X160126435Y-84640532D01*
X160131000Y-84686888D01*
X160131000Y-85338112D01*
X160126435Y-85384468D01*
X160114704Y-85423138D01*
X160095654Y-85458777D01*
X160070017Y-85490017D01*
X160038777Y-85515654D01*
X160003138Y-85534704D01*
X159964468Y-85546435D01*
X159918112Y-85551000D01*
X158841888Y-85551000D01*
X158795532Y-85546435D01*
X158756862Y-85534704D01*
X158721223Y-85515654D01*
X158689983Y-85490017D01*
X158664346Y-85458777D01*
X158645296Y-85423138D01*
X158633565Y-85384468D01*
X158629000Y-85338112D01*
X158629000Y-84686888D01*
X158633565Y-84640532D01*
X158645296Y-84601862D01*
X158664346Y-84566223D01*
X158689983Y-84534983D01*
X158721223Y-84509346D01*
X158756862Y-84490296D01*
X158795532Y-84478565D01*
X158841888Y-84474000D01*
X159918112Y-84474000D01*
X159964468Y-84478565D01*
X159964468Y-84478565D01*
G37*
G36*
X150686968Y-82853565D02*
G01*
X150725638Y-82865296D01*
X150761277Y-82884346D01*
X150792517Y-82909983D01*
X150818154Y-82941223D01*
X150837204Y-82976862D01*
X150848935Y-83015532D01*
X150853500Y-83061888D01*
X150853500Y-84138112D01*
X150848935Y-84184468D01*
X150837204Y-84223138D01*
X150818154Y-84258777D01*
X150792517Y-84290017D01*
X150761277Y-84315654D01*
X150725638Y-84334704D01*
X150686968Y-84346435D01*
X150640612Y-84351000D01*
X149989388Y-84351000D01*
X149943032Y-84346435D01*
X149904362Y-84334704D01*
X149868723Y-84315654D01*
X149837483Y-84290017D01*
X149811846Y-84258777D01*
X149792796Y-84223138D01*
X149781065Y-84184468D01*
X149776500Y-84138112D01*
X149776500Y-83061888D01*
X149781065Y-83015532D01*
X149792796Y-82976862D01*
X149811846Y-82941223D01*
X149837483Y-82909983D01*
X149868723Y-82884346D01*
X149904362Y-82865296D01*
X149943032Y-82853565D01*
X149989388Y-82849000D01*
X150640612Y-82849000D01*
X150686968Y-82853565D01*
X150686968Y-82853565D01*
G37*
G36*
X152561968Y-82853565D02*
G01*
X152600638Y-82865296D01*
X152636277Y-82884346D01*
X152667517Y-82909983D01*
X152693154Y-82941223D01*
X152712204Y-82976862D01*
X152723935Y-83015532D01*
X152728500Y-83061888D01*
X152728500Y-84138112D01*
X152723935Y-84184468D01*
X152712204Y-84223138D01*
X152693154Y-84258777D01*
X152667517Y-84290017D01*
X152636277Y-84315654D01*
X152600638Y-84334704D01*
X152561968Y-84346435D01*
X152515612Y-84351000D01*
X151864388Y-84351000D01*
X151818032Y-84346435D01*
X151779362Y-84334704D01*
X151743723Y-84315654D01*
X151712483Y-84290017D01*
X151686846Y-84258777D01*
X151667796Y-84223138D01*
X151656065Y-84184468D01*
X151651500Y-84138112D01*
X151651500Y-83061888D01*
X151656065Y-83015532D01*
X151667796Y-82976862D01*
X151686846Y-82941223D01*
X151712483Y-82909983D01*
X151743723Y-82884346D01*
X151779362Y-82865296D01*
X151818032Y-82853565D01*
X151864388Y-82849000D01*
X152515612Y-82849000D01*
X152561968Y-82853565D01*
X152561968Y-82853565D01*
G37*
G36*
X147911968Y-82823565D02*
G01*
X147950638Y-82835296D01*
X147986277Y-82854346D01*
X148017517Y-82879983D01*
X148043154Y-82911223D01*
X148062204Y-82946862D01*
X148073935Y-82985532D01*
X148078500Y-83031888D01*
X148078500Y-84108112D01*
X148073935Y-84154468D01*
X148062204Y-84193138D01*
X148043154Y-84228777D01*
X148017517Y-84260017D01*
X147986277Y-84285654D01*
X147950638Y-84304704D01*
X147911968Y-84316435D01*
X147865612Y-84321000D01*
X147214388Y-84321000D01*
X147168032Y-84316435D01*
X147129362Y-84304704D01*
X147093723Y-84285654D01*
X147062483Y-84260017D01*
X147036846Y-84228777D01*
X147017796Y-84193138D01*
X147006065Y-84154468D01*
X147001500Y-84108112D01*
X147001500Y-83031888D01*
X147006065Y-82985532D01*
X147017796Y-82946862D01*
X147036846Y-82911223D01*
X147062483Y-82879983D01*
X147093723Y-82854346D01*
X147129362Y-82835296D01*
X147168032Y-82823565D01*
X147214388Y-82819000D01*
X147865612Y-82819000D01*
X147911968Y-82823565D01*
X147911968Y-82823565D01*
G37*
G36*
X146036968Y-82823565D02*
G01*
X146075638Y-82835296D01*
X146111277Y-82854346D01*
X146142517Y-82879983D01*
X146168154Y-82911223D01*
X146187204Y-82946862D01*
X146198935Y-82985532D01*
X146203500Y-83031888D01*
X146203500Y-84108112D01*
X146198935Y-84154468D01*
X146187204Y-84193138D01*
X146168154Y-84228777D01*
X146142517Y-84260017D01*
X146111277Y-84285654D01*
X146075638Y-84304704D01*
X146036968Y-84316435D01*
X145990612Y-84321000D01*
X145339388Y-84321000D01*
X145293032Y-84316435D01*
X145254362Y-84304704D01*
X145218723Y-84285654D01*
X145187483Y-84260017D01*
X145161846Y-84228777D01*
X145142796Y-84193138D01*
X145131065Y-84154468D01*
X145126500Y-84108112D01*
X145126500Y-83031888D01*
X145131065Y-82985532D01*
X145142796Y-82946862D01*
X145161846Y-82911223D01*
X145187483Y-82879983D01*
X145218723Y-82854346D01*
X145254362Y-82835296D01*
X145293032Y-82823565D01*
X145339388Y-82819000D01*
X145990612Y-82819000D01*
X146036968Y-82823565D01*
X146036968Y-82823565D01*
G37*
G36*
X154941968Y-82793565D02*
G01*
X154980638Y-82805296D01*
X155016277Y-82824346D01*
X155047517Y-82849983D01*
X155073154Y-82881223D01*
X155092204Y-82916862D01*
X155103935Y-82955532D01*
X155108500Y-83001888D01*
X155108500Y-84078112D01*
X155103935Y-84124468D01*
X155092204Y-84163138D01*
X155073154Y-84198777D01*
X155047517Y-84230017D01*
X155016277Y-84255654D01*
X154980638Y-84274704D01*
X154941968Y-84286435D01*
X154895612Y-84291000D01*
X154244388Y-84291000D01*
X154198032Y-84286435D01*
X154159362Y-84274704D01*
X154123723Y-84255654D01*
X154092483Y-84230017D01*
X154066846Y-84198777D01*
X154047796Y-84163138D01*
X154036065Y-84124468D01*
X154031500Y-84078112D01*
X154031500Y-83001888D01*
X154036065Y-82955532D01*
X154047796Y-82916862D01*
X154066846Y-82881223D01*
X154092483Y-82849983D01*
X154123723Y-82824346D01*
X154159362Y-82805296D01*
X154198032Y-82793565D01*
X154244388Y-82789000D01*
X154895612Y-82789000D01*
X154941968Y-82793565D01*
X154941968Y-82793565D01*
G37*
G36*
X156816968Y-82793565D02*
G01*
X156855638Y-82805296D01*
X156891277Y-82824346D01*
X156922517Y-82849983D01*
X156948154Y-82881223D01*
X156967204Y-82916862D01*
X156978935Y-82955532D01*
X156983500Y-83001888D01*
X156983500Y-84078112D01*
X156978935Y-84124468D01*
X156967204Y-84163138D01*
X156948154Y-84198777D01*
X156922517Y-84230017D01*
X156891277Y-84255654D01*
X156855638Y-84274704D01*
X156816968Y-84286435D01*
X156770612Y-84291000D01*
X156119388Y-84291000D01*
X156073032Y-84286435D01*
X156034362Y-84274704D01*
X155998723Y-84255654D01*
X155967483Y-84230017D01*
X155941846Y-84198777D01*
X155922796Y-84163138D01*
X155911065Y-84124468D01*
X155906500Y-84078112D01*
X155906500Y-83001888D01*
X155911065Y-82955532D01*
X155922796Y-82916862D01*
X155941846Y-82881223D01*
X155967483Y-82849983D01*
X155998723Y-82824346D01*
X156034362Y-82805296D01*
X156073032Y-82793565D01*
X156119388Y-82789000D01*
X156770612Y-82789000D01*
X156816968Y-82793565D01*
X156816968Y-82793565D01*
G37*
M02*
