G04 #@! TF.GenerationSoftware,KiCad,Pcbnew,(5.1.0)-1*
G04 #@! TF.CreationDate,2019-11-14T11:54:30+01:00*
G04 #@! TF.ProjectId,perpendicular_pcb,70657270-656e-4646-9963-756c61725f70,rev?*
G04 #@! TF.SameCoordinates,Original*
G04 #@! TF.FileFunction,Legend,Top*
G04 #@! TF.FilePolarity,Positive*
%FSLAX46Y46*%
G04 Gerber Fmt 4.6, Leading zero omitted, Abs format (unit mm)*
G04 Created by KiCad (PCBNEW (5.1.0)-1) date 2019-11-14 11:54:30*
%MOMM*%
%LPD*%
G04 APERTURE LIST*
%ADD10C,0.120000*%
%ADD11C,0.152400*%
%ADD12C,0.100000*%
%ADD13C,0.150000*%
%ADD14C,0.050000*%
G04 APERTURE END LIST*
D10*
X155510000Y-94370000D02*
X159320000Y-94370000D01*
X159320000Y-90940000D02*
X159320000Y-94370000D01*
X155510000Y-90940000D02*
X155510000Y-94370000D01*
X155510000Y-90940000D02*
X159320000Y-90940000D01*
X155766078Y-84250000D02*
X155248922Y-84250000D01*
X155766078Y-82830000D02*
X155248922Y-82830000D01*
X158670000Y-86208578D02*
X158670000Y-85691422D01*
X160090000Y-86208578D02*
X160090000Y-85691422D01*
X146433922Y-90950000D02*
X146951078Y-90950000D01*
X146433922Y-92370000D02*
X146951078Y-92370000D01*
X146343922Y-82860000D02*
X146861078Y-82860000D01*
X146343922Y-84280000D02*
X146861078Y-84280000D01*
X150993922Y-82890000D02*
X151511078Y-82890000D01*
X150993922Y-84310000D02*
X151511078Y-84310000D01*
X150968922Y-90960000D02*
X151486078Y-90960000D01*
X150968922Y-92380000D02*
X151486078Y-92380000D01*
D11*
X151660600Y-90043400D02*
X155013400Y-90043400D01*
X155013400Y-85166600D02*
X153641800Y-85166600D01*
X153641800Y-85166600D02*
X153032200Y-85166600D01*
X153032200Y-85166600D02*
X151660600Y-85166600D01*
D12*
X153641800Y-85166600D02*
G75*
G02X153032200Y-85166600I-304800J0D01*
G01*
D13*
X158013333Y-83612380D02*
X157680000Y-83136190D01*
X157441904Y-83612380D02*
X157441904Y-82612380D01*
X157822857Y-82612380D01*
X157918095Y-82660000D01*
X157965714Y-82707619D01*
X158013333Y-82802857D01*
X158013333Y-82945714D01*
X157965714Y-83040952D01*
X157918095Y-83088571D01*
X157822857Y-83136190D01*
X157441904Y-83136190D01*
X158394285Y-82707619D02*
X158441904Y-82660000D01*
X158537142Y-82612380D01*
X158775238Y-82612380D01*
X158870476Y-82660000D01*
X158918095Y-82707619D01*
X158965714Y-82802857D01*
X158965714Y-82898095D01*
X158918095Y-83040952D01*
X158346666Y-83612380D01*
X158965714Y-83612380D01*
X158212380Y-87066666D02*
X157736190Y-87400000D01*
X158212380Y-87638095D02*
X157212380Y-87638095D01*
X157212380Y-87257142D01*
X157260000Y-87161904D01*
X157307619Y-87114285D01*
X157402857Y-87066666D01*
X157545714Y-87066666D01*
X157640952Y-87114285D01*
X157688571Y-87161904D01*
X157736190Y-87257142D01*
X157736190Y-87638095D01*
X158212380Y-86114285D02*
X158212380Y-86685714D01*
X158212380Y-86400000D02*
X157212380Y-86400000D01*
X157355238Y-86495238D01*
X157450476Y-86590476D01*
X157498095Y-86685714D01*
X145358333Y-89917142D02*
X145310714Y-89964761D01*
X145167857Y-90012380D01*
X145072619Y-90012380D01*
X144929761Y-89964761D01*
X144834523Y-89869523D01*
X144786904Y-89774285D01*
X144739285Y-89583809D01*
X144739285Y-89440952D01*
X144786904Y-89250476D01*
X144834523Y-89155238D01*
X144929761Y-89060000D01*
X145072619Y-89012380D01*
X145167857Y-89012380D01*
X145310714Y-89060000D01*
X145358333Y-89107619D01*
X146215476Y-89345714D02*
X146215476Y-90012380D01*
X145977380Y-88964761D02*
X145739285Y-89679047D01*
X146358333Y-89679047D01*
X144459642Y-83916666D02*
X144507261Y-83964285D01*
X144554880Y-84107142D01*
X144554880Y-84202380D01*
X144507261Y-84345238D01*
X144412023Y-84440476D01*
X144316785Y-84488095D01*
X144126309Y-84535714D01*
X143983452Y-84535714D01*
X143792976Y-84488095D01*
X143697738Y-84440476D01*
X143602500Y-84345238D01*
X143554880Y-84202380D01*
X143554880Y-84107142D01*
X143602500Y-83964285D01*
X143650119Y-83916666D01*
X143554880Y-83583333D02*
X143554880Y-82964285D01*
X143935833Y-83297619D01*
X143935833Y-83154761D01*
X143983452Y-83059523D01*
X144031071Y-83011904D01*
X144126309Y-82964285D01*
X144364404Y-82964285D01*
X144459642Y-83011904D01*
X144507261Y-83059523D01*
X144554880Y-83154761D01*
X144554880Y-83440476D01*
X144507261Y-83535714D01*
X144459642Y-83583333D01*
X148673333Y-85497142D02*
X148625714Y-85544761D01*
X148482857Y-85592380D01*
X148387619Y-85592380D01*
X148244761Y-85544761D01*
X148149523Y-85449523D01*
X148101904Y-85354285D01*
X148054285Y-85163809D01*
X148054285Y-85020952D01*
X148101904Y-84830476D01*
X148149523Y-84735238D01*
X148244761Y-84640000D01*
X148387619Y-84592380D01*
X148482857Y-84592380D01*
X148625714Y-84640000D01*
X148673333Y-84687619D01*
X149054285Y-84687619D02*
X149101904Y-84640000D01*
X149197142Y-84592380D01*
X149435238Y-84592380D01*
X149530476Y-84640000D01*
X149578095Y-84687619D01*
X149625714Y-84782857D01*
X149625714Y-84878095D01*
X149578095Y-85020952D01*
X149006666Y-85592380D01*
X149625714Y-85592380D01*
X148463333Y-91217142D02*
X148415714Y-91264761D01*
X148272857Y-91312380D01*
X148177619Y-91312380D01*
X148034761Y-91264761D01*
X147939523Y-91169523D01*
X147891904Y-91074285D01*
X147844285Y-90883809D01*
X147844285Y-90740952D01*
X147891904Y-90550476D01*
X147939523Y-90455238D01*
X148034761Y-90360000D01*
X148177619Y-90312380D01*
X148272857Y-90312380D01*
X148415714Y-90360000D01*
X148463333Y-90407619D01*
X149415714Y-91312380D02*
X148844285Y-91312380D01*
X149130000Y-91312380D02*
X149130000Y-90312380D01*
X149034761Y-90455238D01*
X148939523Y-90550476D01*
X148844285Y-90598095D01*
D14*
X151525807Y-82838545D02*
X151525807Y-84168277D01*
X151604027Y-84324716D01*
X151682246Y-84402935D01*
X151838685Y-84481155D01*
X152151563Y-84481155D01*
X152308002Y-84402935D01*
X152386222Y-84324716D01*
X152464441Y-84168277D01*
X152464441Y-82838545D01*
X154107051Y-84481155D02*
X153168417Y-84481155D01*
X153637734Y-84481155D02*
X153637734Y-82838545D01*
X153481295Y-83073204D01*
X153324856Y-83229643D01*
X153168417Y-83307862D01*
M02*
