G04 #@! TF.GenerationSoftware,KiCad,Pcbnew,(5.1.0)-1*
G04 #@! TF.CreationDate,2020-11-19T10:17:46+01:00*
G04 #@! TF.ProjectId,PCB_optical_sensors_2_PMW,5043425f-6f70-4746-9963-616c5f73656e,rev?*
G04 #@! TF.SameCoordinates,Original*
G04 #@! TF.FileFunction,Legend,Top*
G04 #@! TF.FilePolarity,Positive*
%FSLAX46Y46*%
G04 Gerber Fmt 4.6, Leading zero omitted, Abs format (unit mm)*
G04 Created by KiCad (PCBNEW (5.1.0)-1) date 2020-11-19 10:17:46*
%MOMM*%
%LPD*%
G04 APERTURE LIST*
%ADD10C,0.120000*%
%ADD11C,0.001000*%
%ADD12C,0.300000*%
%ADD13C,0.150000*%
%ADD14C,0.100000*%
G04 APERTURE END LIST*
D10*
X164742000Y-74610000D02*
X165438000Y-74610000D01*
X165438000Y-73914000D02*
X165438000Y-74610000D01*
X165438000Y-72710000D02*
X164742000Y-72710000D01*
X165438000Y-72710000D02*
X165438000Y-73406000D01*
X163934000Y-72710000D02*
X163238000Y-72710000D01*
D11*
X163838000Y-74010000D02*
X163838000Y-73310000D01*
X164838000Y-74010000D02*
X164838000Y-73310000D01*
D10*
X163238000Y-72710000D02*
X163238000Y-73406000D01*
D11*
X163338000Y-73310000D02*
X165338000Y-73310000D01*
X163338000Y-74010000D02*
X165338000Y-74010000D01*
D10*
X161800000Y-75266733D02*
X161800000Y-75609267D01*
X160780000Y-75266733D02*
X160780000Y-75609267D01*
X160722000Y-63186000D02*
X160722000Y-68386000D01*
X165862000Y-63186000D02*
X160722000Y-63186000D01*
X168462000Y-68386000D02*
X160722000Y-68386000D01*
X165862000Y-63186000D02*
X165862000Y-65786000D01*
X165862000Y-65786000D02*
X168462000Y-65786000D01*
X168462000Y-65786000D02*
X168462000Y-68386000D01*
X167132000Y-63186000D02*
X168462000Y-63186000D01*
X168462000Y-63186000D02*
X168462000Y-64516000D01*
X169220000Y-74440000D02*
X169220000Y-75900000D01*
X166060000Y-74440000D02*
X166060000Y-76600000D01*
X166060000Y-74440000D02*
X166990000Y-74440000D01*
X169220000Y-74440000D02*
X168290000Y-74440000D01*
X167223221Y-73154000D02*
X167548779Y-73154000D01*
X167223221Y-72134000D02*
X167548779Y-72134000D01*
D12*
X161688000Y-84472000D02*
G75*
G03X161688000Y-84472000I-150000J0D01*
G01*
D10*
X161278000Y-83832000D02*
X161278000Y-83282000D01*
X167398000Y-83282000D02*
X167398000Y-83832000D01*
X167398000Y-83832000D02*
X166848000Y-83832000D01*
X161278000Y-78262000D02*
X161278000Y-77712000D01*
X161278000Y-77712000D02*
X161828000Y-77712000D01*
X166848000Y-77712000D02*
X167398000Y-77712000D01*
X167398000Y-77712000D02*
X167398000Y-78262000D01*
D13*
X171394380Y-81851333D02*
X170918190Y-82184666D01*
X171394380Y-82422761D02*
X170394380Y-82422761D01*
X170394380Y-82041809D01*
X170442000Y-81946571D01*
X170489619Y-81898952D01*
X170584857Y-81851333D01*
X170727714Y-81851333D01*
X170822952Y-81898952D01*
X170870571Y-81946571D01*
X170918190Y-82041809D01*
X170918190Y-82422761D01*
X170870571Y-81422761D02*
X170870571Y-81089428D01*
X171394380Y-80946571D02*
X171394380Y-81422761D01*
X170394380Y-81422761D01*
X170394380Y-80946571D01*
X170870571Y-80184666D02*
X170870571Y-80518000D01*
X171394380Y-80518000D02*
X170394380Y-80518000D01*
X170394380Y-80041809D01*
X170394380Y-79518000D02*
X170632476Y-79518000D01*
X170537238Y-79756095D02*
X170632476Y-79518000D01*
X170537238Y-79279904D01*
X170822952Y-79660857D02*
X170632476Y-79518000D01*
X170822952Y-79375142D01*
X170394380Y-78756095D02*
X170632476Y-78756095D01*
X170537238Y-78994190D02*
X170632476Y-78756095D01*
X170537238Y-78518000D01*
X170822952Y-78898952D02*
X170632476Y-78756095D01*
X170822952Y-78613238D01*
X171394380Y-69405333D02*
X170918190Y-69738666D01*
X171394380Y-69976761D02*
X170394380Y-69976761D01*
X170394380Y-69595809D01*
X170442000Y-69500571D01*
X170489619Y-69452952D01*
X170584857Y-69405333D01*
X170727714Y-69405333D01*
X170822952Y-69452952D01*
X170870571Y-69500571D01*
X170918190Y-69595809D01*
X170918190Y-69976761D01*
X170870571Y-68976761D02*
X170870571Y-68643428D01*
X171394380Y-68500571D02*
X171394380Y-68976761D01*
X170394380Y-68976761D01*
X170394380Y-68500571D01*
X170870571Y-67738666D02*
X170870571Y-68072000D01*
X171394380Y-68072000D02*
X170394380Y-68072000D01*
X170394380Y-67595809D01*
X170394380Y-67072000D02*
X170632476Y-67072000D01*
X170537238Y-67310095D02*
X170632476Y-67072000D01*
X170537238Y-66833904D01*
X170822952Y-67214857D02*
X170632476Y-67072000D01*
X170822952Y-66929142D01*
X170394380Y-66310095D02*
X170632476Y-66310095D01*
X170537238Y-66548190D02*
X170632476Y-66310095D01*
X170537238Y-66072000D01*
X170822952Y-66452952D02*
X170632476Y-66310095D01*
X170822952Y-66167238D01*
D14*
X161848857Y-72569428D02*
X161848857Y-73055142D01*
X161877428Y-73112285D01*
X161906000Y-73140857D01*
X161963142Y-73169428D01*
X162077428Y-73169428D01*
X162134571Y-73140857D01*
X162163142Y-73112285D01*
X162191714Y-73055142D01*
X162191714Y-72569428D01*
X162448857Y-72626571D02*
X162477428Y-72598000D01*
X162534571Y-72569428D01*
X162677428Y-72569428D01*
X162734571Y-72598000D01*
X162763142Y-72626571D01*
X162791714Y-72683714D01*
X162791714Y-72740857D01*
X162763142Y-72826571D01*
X162420285Y-73169428D01*
X162791714Y-73169428D01*
X160174000Y-75652285D02*
X160145428Y-75680857D01*
X160059714Y-75709428D01*
X160002571Y-75709428D01*
X159916857Y-75680857D01*
X159859714Y-75623714D01*
X159831142Y-75566571D01*
X159802571Y-75452285D01*
X159802571Y-75366571D01*
X159831142Y-75252285D01*
X159859714Y-75195142D01*
X159916857Y-75138000D01*
X160002571Y-75109428D01*
X160059714Y-75109428D01*
X160145428Y-75138000D01*
X160174000Y-75166571D01*
X160745428Y-75709428D02*
X160402571Y-75709428D01*
X160574000Y-75709428D02*
X160574000Y-75109428D01*
X160516857Y-75195142D01*
X160459714Y-75252285D01*
X160402571Y-75280857D01*
D13*
X160194666Y-63206380D02*
X160194666Y-63920666D01*
X160147047Y-64063523D01*
X160051809Y-64158761D01*
X159908952Y-64206380D01*
X159813714Y-64206380D01*
X161194666Y-64206380D02*
X160623238Y-64206380D01*
X160908952Y-64206380D02*
X160908952Y-63206380D01*
X160813714Y-63349238D01*
X160718476Y-63444476D01*
X160623238Y-63492095D01*
D14*
X169868857Y-75258571D02*
X169811714Y-75230000D01*
X169754571Y-75172857D01*
X169668857Y-75087142D01*
X169611714Y-75058571D01*
X169554571Y-75058571D01*
X169583142Y-75201428D02*
X169526000Y-75172857D01*
X169468857Y-75115714D01*
X169440285Y-75001428D01*
X169440285Y-74801428D01*
X169468857Y-74687142D01*
X169526000Y-74630000D01*
X169583142Y-74601428D01*
X169697428Y-74601428D01*
X169754571Y-74630000D01*
X169811714Y-74687142D01*
X169840285Y-74801428D01*
X169840285Y-75001428D01*
X169811714Y-75115714D01*
X169754571Y-75172857D01*
X169697428Y-75201428D01*
X169583142Y-75201428D01*
X170411714Y-75201428D02*
X170068857Y-75201428D01*
X170240285Y-75201428D02*
X170240285Y-74601428D01*
X170183142Y-74687142D01*
X170126000Y-74744285D01*
X170068857Y-74772857D01*
X169318000Y-72915428D02*
X169118000Y-72629714D01*
X168975142Y-72915428D02*
X168975142Y-72315428D01*
X169203714Y-72315428D01*
X169260857Y-72344000D01*
X169289428Y-72372571D01*
X169318000Y-72429714D01*
X169318000Y-72515428D01*
X169289428Y-72572571D01*
X169260857Y-72601142D01*
X169203714Y-72629714D01*
X168975142Y-72629714D01*
X169546571Y-72372571D02*
X169575142Y-72344000D01*
X169632285Y-72315428D01*
X169775142Y-72315428D01*
X169832285Y-72344000D01*
X169860857Y-72372571D01*
X169889428Y-72429714D01*
X169889428Y-72486857D01*
X169860857Y-72572571D01*
X169518000Y-72915428D01*
X169889428Y-72915428D01*
X167182857Y-84253428D02*
X167182857Y-84739142D01*
X167211428Y-84796285D01*
X167240000Y-84824857D01*
X167297142Y-84853428D01*
X167411428Y-84853428D01*
X167468571Y-84824857D01*
X167497142Y-84796285D01*
X167525714Y-84739142D01*
X167525714Y-84253428D01*
X168125714Y-84853428D02*
X167782857Y-84853428D01*
X167954285Y-84853428D02*
X167954285Y-84253428D01*
X167897142Y-84339142D01*
X167840000Y-84396285D01*
X167782857Y-84424857D01*
M02*
